<svg width="207" height="60" viewBox="0 0 207 60" fill="none" xmlns="http://www.w3.org/2000/svg">
<path fill-rule="evenodd" clip-rule="evenodd" d="M27.3608 57.7148C37.6284 57.7148 45.9521 58.2262 45.9521 58.8576C45.9521 59.4891 37.6288 60 27.3608 60C17.0932 60 8.76953 59.4891 8.76953 58.8576C8.76953 58.2262 17.0932 57.7148 27.3608 57.7148Z" fill="#57B33E"/>
<path fill-rule="evenodd" clip-rule="evenodd" d="M75.7374 21.2599V18.3321H63.5586V21.2599H67.9783V31.9534H71.3181V21.2599H75.7374ZM87.9574 29.0667H80.6867V26.5051H87.3056V23.7812H80.6867V21.2196H87.8963V18.3325H77.326V31.9538H87.9574V29.0667ZM100.218 26.1999C99.7494 28.2329 98.3646 29.2091 96.6334 29.2091C94.4745 29.2091 92.7432 27.4606 92.7432 25.1431C92.7432 22.8253 94.4741 21.0975 96.6334 21.0975C98.385 21.0975 99.7694 22.053 100.197 24.0253L103.497 23.253C102.845 20.0204 99.994 18.0281 96.6334 18.0281C92.5805 18.0281 89.383 21.159 89.383 25.1435C89.383 29.1484 92.5805 32.2589 96.6334 32.2589C100.136 32.2589 102.886 30.2666 103.517 26.8514L100.218 26.1999ZM117.855 18.3321H114.515V23.6384H108.772V18.3321H105.412V31.9534H108.772V26.5661H114.515V31.9534H117.855V18.3321ZM133.273 18.3321H129.933V26.4644L123.028 18.3321H120.238V31.9534H123.598V24.0656L130.503 31.9534H133.273V18.3321ZM142.458 18.0273C138.384 18.0273 135.187 21.1781 135.187 25.1631C135.187 29.1273 138.384 32.2582 142.458 32.2582C146.53 32.2582 149.728 29.1273 149.728 25.1631C149.729 21.1785 146.53 18.0273 142.458 18.0273ZM142.458 29.1887C140.238 29.1887 138.548 27.4809 138.548 25.1635C138.548 22.8253 140.238 21.0975 142.458 21.0975C144.678 21.0975 146.368 22.8257 146.368 25.1635C146.368 27.4809 144.678 29.1887 142.458 29.1887ZM161.704 29.026H154.983V18.3321H151.622V31.9534H161.704V29.026ZM169.973 18.0273C165.899 18.0273 162.702 21.1781 162.702 25.1631C162.702 29.1273 165.9 32.2582 169.973 32.2582C174.047 32.2582 177.243 29.1273 177.243 25.1631C177.244 21.1785 174.047 18.0273 169.973 18.0273ZM169.973 29.1887C167.753 29.1887 166.062 27.4809 166.062 25.1635C166.062 22.8253 167.753 21.0975 169.973 21.0975C172.193 21.0975 173.883 22.8257 173.883 25.1635C173.883 27.4809 172.193 29.1887 169.973 29.1887ZM185.492 23.9228V26.7692H189.667C189.158 28.2736 187.854 29.2087 186.063 29.2087C183.782 29.2087 182.05 27.4602 182.05 25.1428C182.05 22.8453 183.74 21.0972 185.961 21.0972C187.284 21.0972 188.588 21.5037 189.382 23.0487L192.62 22.1136C191.663 19.4503 188.995 18.0273 185.96 18.0273C181.866 18.0273 178.669 21.1582 178.669 25.1428C178.669 29.1477 181.886 32.2582 186.021 32.2582C190.135 32.2582 193.089 29.2901 193.089 25.1631C193.089 24.8176 193.068 24.4111 193.007 23.9228H185.492ZM201.5 27.6844V31.9534H198.079V27.7247L192.804 18.3321H196.47L199.831 24.3094L203.15 18.3321H206.897L201.5 27.6844Z" fill="#57B33E"/>
<path fill-rule="evenodd" clip-rule="evenodd" d="M69.9658 38.0681C69.6316 38.0681 69.3574 38.136 69.1432 38.2715C68.929 38.4082 68.8217 38.6139 68.8217 38.8895C68.8217 39.1644 68.929 39.3748 69.1432 39.5206C69.3574 39.6665 69.8131 39.8239 70.5111 39.9928C71.209 40.1609 71.7347 40.3978 72.0881 40.7018C72.4419 41.0062 72.6188 41.4549 72.6188 42.0473C72.6188 42.6407 72.395 43.1221 71.947 43.491C71.499 43.8607 70.9118 44.0449 70.185 44.0449C69.1201 44.0449 68.176 43.6783 67.3516 42.9467L68.0722 42.0814C68.7602 42.6776 69.4739 42.9758 70.2138 42.9758C70.5837 42.9758 70.8775 42.8964 71.0952 42.7378C71.3125 42.5785 71.4213 42.3686 71.4213 42.106C71.4213 41.8434 71.319 41.6396 71.1144 41.4941C70.9098 41.3482 70.5576 41.215 70.0581 41.0953C69.5581 40.9751 69.1782 40.8657 68.9186 40.7647C68.659 40.6649 68.4287 40.5333 68.2272 40.3717C67.825 40.0665 67.6234 39.6005 67.6234 38.9717C67.6234 38.3437 67.8523 37.8592 68.3099 37.5191C68.7675 37.1786 69.3339 37.0086 70.0088 37.0086C70.4438 37.0086 70.8752 37.0796 71.3036 37.2224C71.732 37.3648 72.102 37.566 72.4135 37.8251L71.8005 38.6903C71.5994 38.5091 71.3267 38.3598 70.9825 38.2435C70.6391 38.1268 70.2999 38.0681 69.9658 38.0681ZM80.9802 43.9674V37.174H82.1292V42.8795H85.2353V43.9678L80.9802 43.9674ZM98.2844 38.7775C97.8202 38.2976 97.2507 38.0581 96.5758 38.0581C95.9009 38.0581 95.3314 38.2976 94.8672 38.7775C94.4031 39.2569 94.1712 39.8385 94.1712 40.5229C94.1712 41.2062 94.4031 41.7878 94.8672 42.2664C95.3314 42.7459 95.9009 42.9858 96.5758 42.9858C97.2507 42.9858 97.8202 42.7459 98.2844 42.2664C98.7485 41.7878 98.9808 41.2062 98.9808 40.5229C98.9808 39.8385 98.7485 39.2569 98.2844 38.7775ZM99.1265 43.03C98.4386 43.6998 97.5883 44.0349 96.5758 44.0349C95.5633 44.0349 94.713 43.6998 94.0247 43.03C93.3367 42.3593 92.9925 41.5225 92.9925 40.5225C92.9925 39.5206 93.3367 38.6849 94.0247 38.0139C94.713 37.3433 95.5629 37.0078 96.5758 37.0078C97.5883 37.0078 98.4386 37.3433 99.1265 38.0139C99.8149 38.6849 100.159 39.5206 100.159 40.5225C100.159 41.5229 99.8149 42.3593 99.1265 43.03ZM113.261 40.6634H114.41V42.9858C113.768 43.6925 112.849 44.0453 111.655 44.0453C110.649 44.0453 109.806 43.7152 109.128 43.0545C108.45 42.3931 108.111 41.5574 108.111 40.5463C108.111 39.536 108.457 38.6938 109.148 38.0193C109.839 37.3456 110.675 37.0086 111.655 37.0086C112.635 37.0086 113.449 37.2938 114.099 37.8635L113.485 38.7387C113.219 38.5122 112.951 38.3548 112.682 38.2677C112.412 38.1798 112.099 38.1364 111.742 38.1364C111.054 38.1364 110.477 38.3586 110.009 38.802C109.542 39.2465 109.308 39.8293 109.308 40.5513C109.308 41.2741 109.535 41.8542 109.989 42.291C110.444 42.7282 110.995 42.947 111.641 42.947C112.286 42.947 112.827 42.8081 113.261 42.529V40.6634ZM123.823 42.4223L123.142 43.9674H121.914L124.914 37.174H126.14L129.138 43.9674H127.912L127.23 42.4223H123.823ZM126.763 41.3628L125.527 38.5636L124.291 41.3628H126.763ZM142.126 37.1736H143.275V43.967H142.028L138.173 39.0108V43.967H137.023V37.1736H138.173L142.126 42.2469V37.1736ZM154.77 43.9674V37.174H155.919V40.1191H159.298V37.174H160.447V43.9674H159.298V41.1885H155.919V43.9674H154.77ZM174.056 37.1736V38.2523H170.425V40.0504H173.686V41.0707H170.425V42.8883H174.173V43.967H169.276V37.1736H174.056ZM188.016 39.3801C188.016 40.501 187.526 41.2077 186.545 41.4983L188.327 43.9674H186.867L185.241 41.6837H183.732V43.9674H182.582V37.174H185.114C186.153 37.174 186.896 37.3491 187.344 37.6995C187.792 38.0485 188.016 38.6085 188.016 39.3801ZM185.163 40.6434C185.812 40.6434 186.254 40.5429 186.488 40.3425C186.721 40.1413 186.838 39.8193 186.838 39.3748C186.838 38.9314 186.718 38.6274 186.477 38.4623C186.237 38.2961 185.809 38.2139 185.193 38.2139H183.732V40.6434H185.163ZM201.392 37.1736V38.2523H197.76V40.0504H201.021V41.0707H197.76V42.8883H201.508V43.967H196.611V37.1736H201.392Z" fill="#57B33E"/>
<path fill-rule="evenodd" clip-rule="evenodd" d="M0.0976562 23.3136C0.83677 19.2519 18.1963 7.8337 21.978 12.0862C24.7676 13.3967 25.2075 32.1541 19.8376 36.2193C17.0296 38.0884 1.24248 29.7108 0.0976562 23.3136ZM5.14032 35.5821C4.1151 37.635 6.82044 43.3274 8.01064 43.3877C10.3891 43.3643 14.2208 37.9571 13.707 37.0005C13.5328 35.0002 6.20592 34.5871 5.14032 35.5821ZM7.9468 45.8402C8.03833 44.7063 12.4892 41.1006 13.6428 42.1647C14.4435 42.448 15.0776 47.5815 13.7155 48.8433C12.9964 49.4337 8.43557 47.565 7.9468 45.8402Z" fill="#57B33E"/>
<path fill-rule="evenodd" clip-rule="evenodd" d="M5.53313 35.878C6.24918 35.2097 10.2589 35.2827 12.0325 36.1702C9.9632 35.4888 6.5672 35.5944 5.86039 36.1947C5.34201 37.1168 5.40239 37.9874 5.85732 39.2622C5.3324 38.2404 5.05129 36.8427 5.53313 35.878Z" fill="#57B33E"/>
<path fill-rule="evenodd" clip-rule="evenodd" d="M8.32812 45.8053C8.38965 45.044 10.7447 42.9819 12.2367 42.5635C10.6824 43.2567 8.77613 45.0993 8.68384 45.8168C8.87035 46.6217 9.36296 47.0928 10.2974 47.591C9.45602 47.2755 8.55809 46.6156 8.32812 45.8053Z" fill="#57B33E"/>
<path fill-rule="evenodd" clip-rule="evenodd" d="M28.6156 53.7993C21.2959 50.022 11.2256 43.0989 22.2308 36.9892C25.4903 35.1797 29.86 33.4553 33.6836 32.797C46.69 30.5564 44.0996 61.7918 28.6156 53.7993ZM45.7313 46.8539C48.0275 46.9334 52.0934 42.1147 51.6546 41.0091C50.6467 38.8575 44.1285 37.6211 43.4694 38.4848C41.7189 39.4733 44.3819 46.2989 45.7313 46.8539ZM53.9177 40.0491C52.8456 40.4364 47.7122 37.8906 48.2032 36.4008C48.1294 35.5555 52.5464 32.8496 54.2611 33.5632C55.0968 33.9724 55.286 38.8898 53.9177 40.0491Z" fill="#57B33E"/>
<path fill-rule="evenodd" clip-rule="evenodd" d="M45.8387 46.3766C44.9327 46.0035 43.3356 42.3318 43.4087 40.3525C43.6467 42.5145 45.1519 45.5551 45.9921 45.9482C47.0473 46.0361 47.8157 45.62 48.789 44.6788C48.0752 45.5793 46.9177 46.4135 45.8387 46.3766Z" fill="#57B33E"/>
<path fill-rule="evenodd" clip-rule="evenodd" d="M53.7254 39.7168C53.0055 39.9767 50.1487 38.693 49.1484 37.5119C50.4248 38.6362 52.8959 39.6028 53.5881 39.3886C54.2438 38.885 54.4691 38.242 54.5353 37.1875C54.5972 38.0819 54.3684 39.1717 53.7254 39.7168Z" fill="#57B33E"/>
<path fill-rule="evenodd" clip-rule="evenodd" d="M47.8884 8.51732C50.5446 11.6812 48.2415 32.3065 42.5478 32.49C39.7551 33.7928 25.0244 22.1386 25.3263 15.4185C25.6812 12.0673 42.2286 5.30587 47.8884 8.51732ZM35.2135 4.54427C34.2875 2.44527 28.1735 0.882536 27.3659 1.75776C25.8627 3.59803 27.5782 9.9956 28.6438 10.2136C30.2962 11.358 35.2989 5.99837 35.2135 4.54427ZM25.517 0.139366C23.8765 -0.587299 19.521 1.71899 19.5156 2.64834C19.6164 4.50012 23.9768 7.29585 24.7071 6.86246C26.2646 6.6567 26.3322 0.935128 25.517 0.139366Z" fill="#57B33E"/>
<path fill-rule="evenodd" clip-rule="evenodd" d="M27.0002 15.5487C28.1592 13.0297 38.7529 8.92884 44.3566 9.35724C38.1984 9.78679 29.4067 13.6992 28.1984 16.0297C27.8308 19.0023 28.9225 21.2196 31.4848 24.0756C29.0114 21.957 26.774 18.5935 27.0002 15.5487Z" fill="#57B33E"/>
<path fill-rule="evenodd" clip-rule="evenodd" d="M34.7394 4.65498C34.7967 5.63192 32.1768 8.66296 30.3594 9.4568C32.2068 8.30365 34.2968 5.62962 34.2864 4.70334C33.9073 3.71641 33.1985 3.20587 31.9261 2.74023C33.0486 2.9909 34.3041 3.66881 34.7394 4.65498Z" fill="#57B33E"/>
<path fill-rule="evenodd" clip-rule="evenodd" d="M25.301 0.454577C25.8484 0.988923 25.9311 4.11516 25.2995 5.52741C25.7596 3.89136 25.5582 1.24996 25.065 0.720215C24.3261 0.348629 23.6483 0.426169 22.668 0.825009C23.448 0.380872 24.5302 0.113317 25.301 0.454577Z" fill="#57B33E"/>
<path fill-rule="evenodd" clip-rule="evenodd" d="M20.4648 38.1016C20.9801 37.7285 21.5651 37.3576 22.2276 36.9899C25.4871 35.1796 29.8568 33.4568 33.6804 32.7969C40.0525 31.6998 42.6783 38.6367 41.8815 45.0596C41.1039 45.121 40.3175 45.1533 39.5238 45.1533C32.9948 45.1533 26.9657 43.0159 22.0981 39.4052H22.0977L22.085 39.3956L22.0727 39.3852L22.035 39.3576L22.0223 39.348L22.01 39.3388L21.9973 39.3292L21.985 39.3204L21.9723 39.3111L21.9604 39.3012L21.9477 39.2916L21.9454 39.29L21.935 39.2824L21.9223 39.2731L21.91 39.2632L21.8977 39.2536L21.885 39.244L21.8727 39.2344L21.8604 39.2255L21.8477 39.216L21.8354 39.2071L21.8231 39.1968L21.8104 39.1872L21.7981 39.1783L21.7858 39.168L21.7735 39.1591L21.7485 39.1399L21.7362 39.1307L21.6247 39.0444L21.6124 39.0351L21.6 39.0256L21.5877 39.016L21.5754 39.0071L21.5635 38.9971L21.3912 38.8624L21.3789 38.852L21.3666 38.8424L21.3547 38.8328L21.3424 38.8232L21.3301 38.8129L21.3182 38.8033L21.3059 38.7941C21.0201 38.568 20.741 38.3377 20.4648 38.1016Z" fill="#57B33E"/>
<path fill-rule="evenodd" clip-rule="evenodd" d="M10.3227 14.3403C15.1047 11.6513 20.1435 10.021 21.9797 12.0866C24.7693 13.3967 25.2092 32.1545 19.8393 36.2193C19.5763 36.3944 19.1994 36.48 18.7314 36.485C13.5341 31.2398 10.3135 24.0395 10.2781 16.0888V16.0838V16.0788V16.0735V16.0685V16.0635V16.0585V16.0531V16.0485V16.0435L10.2777 16.0381V16.0335V16.0282V16.0232V16.0182V16.0132V16.0078L10.2773 16.0024V15.9978V15.9925V15.9875V15.9825V15.9775V15.9725V15.9671V15.9625V15.9571V15.9518V15.9464V15.941V15.9356V15.9318V15.931V15.9253V15.9203V15.9149V15.9095V15.9061L10.2777 15.8777V15.8723C10.2781 15.3583 10.2939 14.8478 10.3227 14.3403Z" fill="#57B33E"/>
<path fill-rule="evenodd" clip-rule="evenodd" d="M1.48828 23.3262C1.98436 20.5988 11.2267 14.0008 16.7616 13.0273C10.9029 14.9697 3.35953 20.9389 2.76847 23.4947C3.15148 26.4655 4.76085 28.343 7.95342 30.475C5.03042 29.0355 2.02627 26.3315 1.48828 23.3262Z" fill="#57B33E"/>
<path fill-rule="evenodd" clip-rule="evenodd" d="M18.4766 41.7335C19.2822 39.0809 29.2203 33.5824 34.8309 33.248C28.7876 34.5079 20.6093 39.5758 19.7287 42.0475C19.7683 45.0421 21.1519 47.0908 24.0788 49.5733C21.3403 47.8105 18.6661 44.7806 18.4766 41.7335Z" fill="#57B33E"/>
</svg>
