<svg width="205" height="60" viewBox="0 0 205 60" fill="none" xmlns="http://www.w3.org/2000/svg">
<path fill-rule="evenodd" clip-rule="evenodd" d="M35.8524 54.4964C35.2289 52.5444 36.3087 50.4569 38.2638 49.8345C40.2189 49.2121 42.31 50.2903 42.9336 52.2423C43.5571 54.1932 42.4769 56.281 40.5218 56.9034C38.5671 57.5255 36.476 56.4472 35.8524 54.4964Z" fill="#57B33E"/>
<path fill-rule="evenodd" clip-rule="evenodd" d="M36.372 5.50427C35.7484 7.45589 36.8282 9.54334 38.7837 10.1658C40.7388 10.7882 42.83 9.70994 43.4531 7.75833C44.0767 5.80711 42.9969 3.71927 41.0418 3.09723C39.0867 2.47479 36.9955 3.55266 36.372 5.50427Z" fill="#57B33E"/>
<path fill-rule="evenodd" clip-rule="evenodd" d="M37.088 19.0394L38.8818 13.1806C42.0659 13.6831 45.2293 11.805 46.2387 8.64531C47.3525 5.15757 45.423 1.42733 41.9295 0.315092C38.4355 -0.797147 34.699 1.12888 33.5844 4.61662C32.5978 7.70524 33.999 10.9844 36.7598 12.4666L34.9003 18.3167C34.0695 18.1293 33.2098 18.0302 32.3321 18.0302C31.9039 18.0302 31.4812 18.053 31.0642 18.0961C29.5445 18.2444 28.1081 18.6734 26.8074 19.3326L25.0092 16.1953C26.4376 15.1925 27.3717 13.5341 27.3717 11.6584C27.3717 8.59776 24.8855 6.11559 21.819 6.11559C18.7529 6.11559 16.2659 8.59776 16.2659 11.6584C16.2659 14.7187 18.7529 17.2012 21.819 17.2012C22.4177 17.2012 22.9941 17.1061 23.5344 16.9307L25.349 20.2059C22.6927 22.0621 20.8208 24.9601 20.3302 28.3068L13.4463 28.2965C12.8704 25.2206 10.1669 22.8919 6.91866 22.8919C3.25181 22.8919 0.277344 25.8606 0.277344 29.521C0.277344 33.1813 3.25141 36.1501 6.91866 36.1501C10.2413 36.1501 12.9949 33.7126 13.4831 30.5313L20.2145 30.6128C20.3482 33.5724 21.5541 36.2523 23.4531 38.2782L18.8365 43.6245C17.595 42.9262 16.1618 42.5278 14.6358 42.5278C9.89993 42.5278 6.05938 46.3612 6.05938 51.0886C6.05938 55.8156 9.89993 59.6501 14.6358 59.6501C19.3716 59.6501 23.2122 55.8156 23.2122 51.0886C23.2122 48.8417 22.3437 46.797 20.9245 45.2693L25.5443 40.0541C27.461 41.3373 29.7659 42.0864 32.2476 42.0864C32.9985 42.0864 33.7341 42.0181 34.4469 41.8862L36.2419 47.5337C33.4815 49.0155 32.0799 52.2943 33.0673 55.3833C34.1811 58.871 37.9184 60.7967 41.412 59.6853C44.9055 58.5726 46.8354 54.8424 45.7212 51.355C44.7114 48.1949 41.5485 46.3168 38.3643 46.8194L36.6601 41.2542C39.8763 39.9894 42.4161 37.3817 43.5876 34.1245C44.0615 32.8377 44.3204 31.4478 44.3204 29.9968C44.3196 25.1111 41.2915 20.8951 37.088 19.0394ZM34.8143 54.826C34.0078 52.3027 35.4046 49.6036 37.9332 48.7986C40.4614 47.9936 43.1662 49.3879 43.9726 51.9112C44.7791 54.4349 43.3823 57.1356 40.8541 57.9394C38.3251 58.744 35.6207 57.3509 34.8143 54.826ZM6.91906 24.7228C9.57335 24.7228 11.725 26.871 11.725 29.5202C11.725 32.1697 9.57295 34.3175 6.91906 34.3175C4.26518 34.3175 2.11277 32.1697 2.11277 29.5202C2.11277 26.8714 4.26478 24.7228 6.91906 24.7228ZM21.8194 7.64692C24.0387 7.64692 25.8385 9.44312 25.8385 11.6588C25.8385 13.8737 24.0391 15.6703 21.8194 15.6703C19.6002 15.6703 17.8008 13.8737 17.8008 11.6588C17.8008 9.44312 19.6002 7.64692 21.8194 7.64692ZM32.3321 21.3358C37.1228 21.3358 41.0081 25.2142 41.0081 29.9968C41.0081 34.7789 37.1228 38.6566 32.3321 38.6566C27.5414 38.6566 23.656 34.7789 23.656 29.9968C23.6556 25.2142 27.5414 21.3358 32.3321 21.3358ZM14.6358 44.8921C18.0633 44.8921 20.8429 47.6668 20.8429 51.0882C20.8429 54.5104 18.0633 57.2846 14.6358 57.2846C11.2083 57.2846 8.42871 54.51 8.42871 51.0882C8.42871 47.6668 11.2083 44.8921 14.6358 44.8921ZM35.3326 5.17314C36.1386 2.64903 38.8433 1.25513 41.3719 2.06015C43.9006 2.86516 45.2973 5.56467 44.4909 8.08878C43.6844 10.6129 40.9801 12.0068 38.4515 11.2022C35.9229 10.3967 34.5261 7.69725 35.3326 5.17314Z" fill="#57B33E"/>
<path fill-rule="evenodd" clip-rule="evenodd" d="M32.3332 23.2998C36.0372 23.2998 39.0413 26.2985 39.0413 29.9964C39.0413 32.2353 37.9395 34.2176 36.2485 35.4333V35.3514C33.7175 37.1868 30.4433 37.0825 28.0336 35.0502V35.1357C26.5615 33.9072 25.625 32.0603 25.625 29.996C25.6246 26.2985 28.6287 23.2998 32.3332 23.2998Z" fill="#57B33E"/>
<path fill-rule="evenodd" clip-rule="evenodd" d="M6.9196 25.8108C8.97155 25.8108 10.6361 27.4723 10.6361 29.5206C10.6361 31.5689 8.97195 33.2305 6.9196 33.2305C4.86725 33.2305 3.20312 31.5689 3.20312 29.5206C3.20312 27.4727 4.86725 25.8108 6.9196 25.8108Z" fill="#57B33E"/>
<path fill-rule="evenodd" clip-rule="evenodd" d="M14.6354 46.2976C17.2853 46.2976 19.4349 48.4426 19.4349 51.0885C19.4349 53.7341 17.2857 55.8791 14.6354 55.8791C11.9851 55.8791 9.83594 53.7341 9.83594 51.0885C9.83594 48.443 11.9851 46.2976 14.6354 46.2976Z" fill="#57B33E"/>
<path fill-rule="evenodd" clip-rule="evenodd" d="M59.98 24.4541V36.5177H56.6373V24.4537H52.3945V21.5664H64.2228V24.4537L59.98 24.4541ZM77.4654 21.5664V24.5392H70.008V27.6194H76.7154V30.4643H70.008V33.5661H77.7011V36.5177H66.6653V21.5664H77.4654ZM87.5586 33.5661C89.2015 33.5661 90.5443 32.9169 91.5873 31.6193L93.7305 33.8234C92.0303 35.7339 90.0268 36.6891 87.7199 36.6891C85.413 36.6891 83.5128 35.962 82.0199 34.507C80.5271 33.0528 79.7807 31.2166 79.7807 28.9993C79.7807 26.782 80.5415 24.9311 82.0627 23.4485C83.5844 21.9659 85.445 21.224 87.6447 21.224C90.1021 21.224 92.1592 22.1585 93.8161 24.0258L91.7378 26.3785C90.6804 25.0665 89.366 24.4109 87.7952 24.4109C86.538 24.4109 85.4626 24.8212 84.5697 25.6406C83.6768 26.4608 83.2306 27.5659 83.2306 28.9566C83.2306 30.3469 83.6524 31.4627 84.4949 32.3033C85.337 33.1454 86.3583 33.5661 87.5586 33.5661ZM105.666 21.5664H109.009V36.5177H105.666V30.6353H99.7082V36.5177H96.3656V21.5664H99.7082V27.812H105.666V21.5664ZM123.173 21.5664H126.515V36.5177H123.173L116.037 27.1488V36.5177H112.694V21.5664H115.822L123.173 31.1918V21.5664H123.173ZM141.666 28.957C141.666 27.6234 141.237 26.4864 140.38 25.5447C139.523 24.6039 138.469 24.1329 137.219 24.1329C135.969 24.1329 134.916 24.6035 134.059 25.5447C133.202 26.4864 132.773 27.6234 132.773 28.957C132.773 30.2897 133.202 31.4239 134.059 32.358C134.916 33.2913 135.969 33.7587 137.219 33.7587C138.47 33.7587 139.523 33.2913 140.38 32.358C141.237 31.4239 141.666 30.2897 141.666 28.957ZM142.802 34.4534C141.287 35.9292 139.423 36.6675 137.208 36.6675C134.994 36.6675 133.13 35.9296 131.615 34.4534C130.101 32.978 129.344 31.1415 129.344 28.9454C129.344 26.7493 130.102 24.9131 131.615 23.4373C133.13 21.9615 134.994 21.2236 137.208 21.2236C139.423 21.2236 141.287 21.9615 142.802 23.4373C144.316 24.9131 145.073 26.7493 145.073 28.9454C145.073 31.1415 144.316 32.978 142.802 34.4534ZM147.901 36.5177V21.5664H151.244V33.545H157.63V36.5177H147.901ZM171.129 28.957C171.129 27.6234 170.702 26.4864 169.844 25.5447C168.987 24.6039 167.934 24.1329 166.684 24.1329C165.433 24.1329 164.38 24.6035 163.523 25.5447C162.665 26.4864 162.237 27.6234 162.237 28.957C162.237 30.2897 162.665 31.4239 163.523 32.358C164.38 33.2913 165.433 33.7587 166.684 33.7587C167.934 33.7587 168.987 33.2913 169.844 32.358C170.702 31.4239 171.129 30.2897 171.129 28.957ZM172.266 34.4534C170.751 35.9292 168.887 36.6675 166.672 36.6675C164.458 36.6675 162.594 35.9296 161.08 34.4534C159.566 32.978 158.809 31.1415 158.809 28.9454C158.809 26.7493 159.566 24.9131 161.08 23.4373C162.594 21.9615 164.459 21.2236 166.672 21.2236C168.887 21.2236 170.751 21.9615 172.266 23.4373C173.78 24.9131 174.538 26.7493 174.538 28.9454C174.538 31.1415 173.78 32.978 172.266 34.4534ZM187.094 28.903H190.459V34.2081C188.973 35.8625 186.915 36.6895 184.287 36.6895C182.086 36.6895 180.241 35.9624 178.748 34.5074C177.254 33.0532 176.508 31.217 176.508 28.9997C176.508 26.7824 177.269 24.9315 178.791 23.4489C180.312 21.9663 182.148 21.2244 184.298 21.2244C186.448 21.2244 188.315 21.9304 189.902 23.3418L188.166 25.8448C187.495 25.2599 186.876 24.8572 186.313 24.6363C185.748 24.4153 185.137 24.3043 184.48 24.3043C183.209 24.3043 182.137 24.7357 181.266 25.5983C180.395 26.4612 179.958 27.5986 179.958 29.0105C179.958 30.4216 180.376 31.5522 181.213 32.4004C182.048 33.2489 183.045 33.6736 184.202 33.6736C185.359 33.6736 186.324 33.4527 187.095 33.0108L187.094 28.903ZM199.63 36.5177H196.287V30.6145L191.101 21.5664H194.722L197.958 27.128L201.193 21.5664H204.815L199.629 30.6145V36.5177H199.63Z" fill="#57B33E"/>
<path fill-rule="evenodd" clip-rule="evenodd" d="M56.2322 43.0166C55.9004 43.0166 55.6278 43.0837 55.4153 43.2187C55.2028 43.3534 55.0963 43.5583 55.0963 43.832C55.0963 44.1052 55.2028 44.3146 55.4153 44.4592C55.6282 44.6038 56.0809 44.7596 56.7741 44.927C57.4669 45.0948 57.9891 45.3289 58.3401 45.6318C58.6915 45.9342 58.8672 46.3796 58.8672 46.9677C58.8672 47.557 58.6447 48.0348 58.2001 48.4016C57.755 48.7687 57.1719 48.9513 56.4499 48.9513C55.3929 48.9513 54.4552 48.5886 53.6367 47.861L54.3519 47.0017C55.0355 47.5942 55.7443 47.8902 56.4791 47.8902C56.8465 47.8902 57.1383 47.8107 57.354 47.6533C57.5701 47.4955 57.6782 47.2873 57.6782 47.0261C57.6782 46.7656 57.5765 46.563 57.3736 46.418C57.1707 46.2734 56.8209 46.1415 56.3246 46.0221C55.8283 45.9034 55.4509 45.794 55.1932 45.6941C54.9354 45.5946 54.7065 45.4648 54.5068 45.3038C54.107 45.0009 53.9073 44.5379 53.9073 43.9139C53.9073 43.2898 54.1346 42.8092 54.5889 42.4712C55.0435 42.1336 55.6058 41.9646 56.2762 41.9646C56.7076 41.9646 57.1363 42.035 57.5617 42.1772C57.9872 42.3186 58.3546 42.518 58.6639 42.7753L58.0548 43.6342C57.8551 43.454 57.5845 43.3062 57.2427 43.1908C56.9009 43.0741 56.5644 43.0166 56.2322 43.0166ZM68.6299 48.8746V42.128H69.7709V47.7939H72.8551V48.8746H68.6299ZM87.0802 43.7205C86.6196 43.2443 86.0537 43.0058 85.3833 43.0058C84.7133 43.0058 84.1474 43.2443 83.6867 43.7205C83.2257 44.1967 82.9955 44.7744 82.9955 45.4532C82.9955 46.1319 83.2261 46.7092 83.6867 47.1851C84.1474 47.6613 84.7133 47.8998 85.3833 47.8998C86.0537 47.8998 86.6196 47.6613 87.0802 47.1851C87.5409 46.7088 87.7718 46.1319 87.7718 45.4532C87.7714 44.7744 87.5409 44.1967 87.0802 43.7205ZM87.9163 47.9425C87.2331 48.6085 86.389 48.9417 85.3833 48.9417C84.3779 48.9417 83.5334 48.6089 82.8503 47.9425C82.1671 47.2766 81.8257 46.4472 81.8257 45.4532C81.8257 44.4592 82.1671 43.629 82.8503 42.963C83.5334 42.2967 84.3779 41.9639 85.3833 41.9639C86.389 41.9639 87.2331 42.2967 87.9163 42.963C88.5995 43.629 88.9413 44.4588 88.9413 45.4532C88.9413 46.4472 88.5995 47.2766 87.9163 47.9425ZM103.413 45.593H104.554V47.8998C103.915 48.6001 103.004 48.9509 101.817 48.9509C100.818 48.9509 99.9815 48.6225 99.3083 47.9665C98.6347 47.3101 98.2977 46.4799 98.2977 45.4764C98.2977 44.4736 98.6407 43.637 99.3271 42.9678C100.013 42.2986 100.844 41.9639 101.817 41.9639C102.79 41.9639 103.599 42.2467 104.243 42.8132L103.634 43.6813C103.37 43.4564 103.104 43.3006 102.837 43.2131C102.569 43.1268 102.258 43.0829 101.904 43.0829C101.221 43.0829 100.647 43.3034 100.183 43.7441C99.7189 44.1847 99.4864 44.764 99.4864 45.482C99.4864 46.1987 99.7121 46.7752 100.163 47.209C100.615 47.6429 101.161 47.8602 101.802 47.8602C102.443 47.8602 102.98 47.722 103.412 47.4455V45.593H103.413ZM115.293 47.3397L114.616 48.8746H113.398L116.376 42.128H117.594L120.572 48.8746H119.354L118.678 47.3397H115.293ZM118.212 46.2882L116.985 43.508L115.757 46.2882H118.212ZM134.927 42.128H136.068V48.8746H134.831L131.002 43.9526V48.8746H129.861V42.128H131.002L134.927 47.1659L134.927 42.128ZM148.944 48.8746V42.128H150.086V45.0521H153.441V42.128H154.582V48.8746H153.441V46.1144H150.086V48.8746H148.944ZM169.555 42.128V43.1991H165.949V44.985H169.189V45.9981H165.949V47.8035H169.672V48.8746H164.809V42.128H169.555ZM184.878 44.3194C184.878 45.432 184.391 46.1332 183.418 46.4232L185.187 48.8746H183.737L182.122 46.6066H180.624V48.8746H179.483V42.128H181.996C183.028 42.128 183.766 42.3022 184.211 42.6498C184.655 42.997 184.878 43.5531 184.878 44.3194ZM182.045 45.5738C182.69 45.5738 183.128 45.4732 183.36 45.2746C183.593 45.0749 183.708 44.7548 183.708 44.3146C183.708 43.8731 183.589 43.5707 183.351 43.4069C183.112 43.2427 182.687 43.1612 182.075 43.1612H180.625V45.5738H182.045ZM199.62 42.128V43.1991H196.014V44.985H199.253V45.9981H196.014V47.8035H199.736V48.8746H194.873V42.128H199.62Z" fill="#57B33E"/>
<path fill-rule="evenodd" clip-rule="evenodd" d="M21.8183 8.55664C23.534 8.55664 24.9252 9.94576 24.9252 11.6585C24.9252 13.3708 23.5336 14.7599 21.8183 14.7599C20.1021 14.7599 18.7109 13.3712 18.7109 11.6585C18.7109 9.94576 20.1021 8.55664 21.8183 8.55664Z" fill="#57B33E"/>
</svg>
