<svg width="137" height="60" viewBox="0 0 137 60" fill="none" xmlns="http://www.w3.org/2000/svg">
<path d="M11.9296 35.4683V24.5312L4.01953 29.0917V40.028L10.3402 43.6681L18.2467 39.1084L11.9296 35.4683Z" fill="#57B33E"/>
<path d="M40.8187 3.87606L37.9688 5.51855L39.6144 8.36386L42.4644 6.72137L40.8187 3.87606Z" fill="#57B33E"/>
<path d="M33.0902 2.49781L31.0547 3.6709L32.2305 5.70384L34.266 4.53075L33.0902 2.49781Z" fill="#57B33E"/>
<path d="M35.6562 5.53584L31.4738 7.946L29.828 5.10059L4.01953 19.9744V29.0924L37.9658 9.52823L35.6562 5.53584Z" fill="#57B33E"/>
<path d="M36.7584 3.3344L35.168 4.25098L36.087 5.83994L37.6774 4.92336L36.7584 3.3344Z" fill="#57B33E"/>
<path d="M37.6507 0.00145354L35.5352 1.2207L36.7572 3.33364L38.8728 2.11439L37.6507 0.00145354Z" fill="#57B33E"/>
<g style="mix-blend-mode:multiply" opacity="0.5">
<path d="M4.01953 29.091V31.1807L11.9289 26.6216V24.5312L4.01953 29.091Z" fill="#57B33E"/>
</g>
<path d="M38.8131 30.9082V19.9755L32.496 16.3311L24.5859 20.8915L30.9023 24.5317V35.4687L38.8131 30.9082Z" fill="#57B33E"/>
<path d="M2.02113 56.1249L4.87109 54.4824L3.22542 51.6371L0.375459 53.2796L2.02113 56.1249Z" fill="#57B33E"/>
<path d="M9.74577 57.5041L11.7812 56.3311L10.6054 54.2981L8.56996 55.4712L9.74577 57.5041Z" fill="#57B33E"/>
<path d="M7.17998 54.4665L11.3624 52.0556L13.0082 54.9018L38.8167 40.0272V30.9092L4.87109 50.4734L7.17998 54.4665Z" fill="#57B33E"/>
<path d="M6.08149 56.6666L7.67188 55.75L6.75285 54.161L5.16247 55.0776L6.08149 56.6666Z" fill="#57B33E"/>
<path d="M5.18521 60.0005L7.30078 58.7812L6.0787 56.6683L3.96313 57.8876L5.18521 60.0005Z" fill="#57B33E"/>
<g style="mix-blend-mode:multiply" opacity="0.5">
<path d="M38.8124 30.908V28.8184L30.9023 33.3774V35.4678L38.8124 30.908Z" fill="#57B33E"/>
</g>
<path d="M56.5451 20.5613C55.8933 20.5743 55.3447 20.7102 54.8993 20.9691C54.4539 21.228 54.2312 21.7227 54.2312 22.4532C54.2312 23.0104 54.4206 23.4086 54.7995 23.6478C55.1978 23.893 55.6585 24.0183 56.1264 24.0087L60.1165 23.9885C60.2612 24.0024 60.4142 24.0092 60.5757 24.0087C60.7372 24.0082 60.8968 24.0147 61.0544 24.0282C61.5193 24.0552 61.9799 24.1321 62.4283 24.2577C62.8787 24.3829 63.2902 24.6192 63.6251 24.9449C63.9439 25.2356 64.1899 25.5971 64.3431 26.0002C64.5023 26.409 64.603 26.8381 64.6425 27.2749C64.6555 27.4077 64.6656 27.5369 64.6728 27.6633C64.6801 27.7896 64.6822 27.9188 64.6822 28.0516C64.6557 29.7108 64.1978 30.8359 63.3083 31.4268C62.4189 32.0178 61.2084 32.3132 59.6769 32.3132H51.6569V29.7638H59.1982C59.8635 29.7777 60.4388 29.6716 60.9243 29.4454C61.4097 29.2193 61.6057 28.7082 61.5121 27.9123C61.4456 27.2867 61.213 26.9017 60.8143 26.7574C60.3582 26.6018 59.8798 26.5211 59.3978 26.5185L55.8466 26.499C54.37 26.512 53.2029 26.2165 52.3453 25.6126C51.4877 25.0086 51.0654 23.9165 51.0784 22.3362C51.1044 20.6765 51.5665 19.5457 52.4646 18.9437C53.3627 18.3417 54.5763 18.0397 56.1055 18.0378L63.9873 18.0176V20.5671L56.5451 20.5613Z" fill="#57B33E"/>
<path d="M68.0388 18.0117L71.5705 23.4687L75.1614 18.0117H78.6526L73.1266 25.9979V32.311H70.1112V25.9979L64.6641 18.0117H68.0388Z" fill="#57B33E"/>
<path d="M83.978 20.5613C83.3267 20.5743 82.7781 20.7102 82.3322 20.9691C81.8863 21.228 81.6636 21.7227 81.6641 22.4532C81.6641 23.0104 81.8535 23.4086 82.2324 23.6478C82.6307 23.893 83.0915 24.0183 83.5593 24.0087L87.5494 23.9885C87.6941 24.0022 87.8488 24.0087 88.0079 24.0087C88.167 24.0087 88.3275 24.0152 88.4873 24.0282C88.9522 24.0551 89.4129 24.1321 89.8612 24.2577C90.3117 24.3831 90.7235 24.6193 91.0587 24.9449C91.3771 25.236 91.623 25.5974 91.7767 26.0002C91.9359 26.409 92.0367 26.8381 92.0761 27.2749C92.0891 27.4077 92.0992 27.5369 92.1057 27.6633C92.1123 27.7896 92.1159 27.9188 92.1159 28.0516C92.0894 29.7108 91.6314 30.8359 90.742 31.4268C89.8525 32.0178 88.6423 32.3132 87.1112 32.3132H79.0905V29.7638H86.6325C87.2973 29.7777 87.8724 29.6716 88.3579 29.4454C88.8433 29.2193 89.0395 28.7082 88.9465 27.9123C88.88 27.2867 88.6471 26.9017 88.248 26.7574C87.7921 26.6017 87.3139 26.521 86.8321 26.5185L83.2802 26.499C81.8041 26.512 80.637 26.2165 79.7789 25.6126C78.9208 25.0086 78.4985 23.9165 78.512 22.3362C78.5385 20.6765 79.0009 19.5457 79.899 18.9437C80.7971 18.3417 82.0107 18.0397 83.5398 18.0378L91.4217 18.0176V20.5671L83.978 20.5613Z" fill="#57B33E"/>
<path d="M92.8945 20.5201V18.0312H105.264V20.5201H100.615V32.3103H97.5058V20.5201H92.8945Z" fill="#57B33E"/>
<path d="M110.154 21.3872C109.609 21.9646 109.303 22.7844 109.236 23.8464L117.576 23.8269V26.3157H109.216C109.214 26.8054 109.272 27.2934 109.386 27.7695C109.505 28.2454 109.741 28.6838 110.074 29.0442C110.349 29.3838 110.732 29.6194 111.159 29.7119C111.582 29.7984 112.013 29.8417 112.445 29.8411H112.625L117.573 29.8209V32.3105H112.485C111.699 32.3135 110.914 32.241 110.141 32.0939C109.36 31.9336 108.631 31.5846 108.016 31.0776C107.241 30.4597 106.66 29.6331 106.34 28.6956C106.023 27.7682 105.848 26.7981 105.822 25.8184C105.809 25.6052 105.805 25.3993 105.812 25.2005C105.818 25.0018 105.828 24.8028 105.842 24.6036C105.987 22.3467 106.602 20.6865 107.687 19.623C108.773 18.5596 110.399 18.0285 112.565 18.03L117.573 18.0098V20.4993H112.629C111.525 20.5133 110.7 20.8092 110.154 21.3872Z" fill="#57B33E"/>
<path d="M124.638 18.0117L128.289 28.9834L131.94 18.0117H136.351V32.311H133.398L133.638 21.1783L129.966 32.311H126.775L122.984 21.0585L123.283 32.311H120.211V18.0117H124.638Z" fill="#57B33E"/>
<path d="M52.487 37.9334H51.0781V37.5674H54.3203V37.9334H52.9106V41.5706H52.487V37.9334Z" fill="#57B33E"/>
<path d="M59.2077 41.2046V41.5706H56.3711V37.5674H59.1181V37.9334H56.7925V39.3575H58.8658V39.7184H56.7925V41.2054L59.2077 41.2046Z" fill="#57B33E"/>
<path d="M61.2031 39.5695C61.2031 38.3972 62.0969 37.5332 63.3052 37.5332C63.8902 37.5332 64.4166 37.7281 64.7724 38.1164L64.5027 38.3857C64.3486 38.229 64.1637 38.1059 63.9596 38.0241C63.7555 37.9424 63.5366 37.9038 63.3168 37.9107C62.3485 37.9107 61.6211 38.6203 61.6211 39.5709C61.6211 40.5215 62.3485 41.2311 63.3168 41.2311C63.7752 41.2311 64.1765 41.0867 64.5027 40.7511L64.7724 41.0196C64.4166 41.4087 63.8902 41.6086 63.3001 41.6086C62.0969 41.605 61.2031 40.7417 61.2031 39.5695Z" fill="#57B33E"/>
<path d="M70.3975 37.5674V41.5706H69.9797V39.7235H67.4712V41.5706H67.0469V37.5674H67.4712V39.3517H69.9797V37.5674H70.3975Z" fill="#57B33E"/>
<path d="M76.4326 37.5674V41.5706H76.0835L73.5056 38.3224V41.5706H73.082V37.5674H73.4312L76.0141 40.8156V37.5674H76.4326Z" fill="#57B33E"/>
<path d="M78.7578 39.5695C78.7578 38.403 79.6516 37.5332 80.8664 37.5332C82.0697 37.5332 82.9685 38.3994 82.9685 39.5695C82.9685 40.7395 82.0697 41.605 80.8664 41.605C79.6552 41.605 78.7578 40.7359 78.7578 39.5695ZM82.5447 39.5695C82.5447 38.6145 81.8289 37.9093 80.8664 37.9093C79.9039 37.9093 79.1758 38.613 79.1758 39.5695C79.1758 40.5259 79.8989 41.2296 80.8664 41.2296C81.8339 41.2296 82.5476 40.5244 82.5476 39.5695H82.5447Z" fill="#57B33E"/>
<path d="M85.2969 37.5674H85.7205V41.2046H87.9658V41.5706H85.2969V37.5674Z" fill="#57B33E"/>
<path d="M89.6055 39.5695C89.6055 38.403 90.4992 37.5332 91.7133 37.5332C92.9274 37.5332 93.8161 38.3994 93.8161 39.5695C93.8161 40.7395 92.9166 41.605 91.7133 41.605C90.5101 41.605 89.6055 40.7359 89.6055 39.5695ZM93.3924 39.5695C93.3924 38.6145 92.6765 37.9093 91.7133 37.9093C90.7502 37.9093 90.0234 38.613 90.0234 39.5695C90.0234 40.5259 90.7465 41.2296 91.7133 41.2296C92.6801 41.2296 93.3924 40.5244 93.3924 39.5695Z" fill="#57B33E"/>
<path d="M98.9686 39.5695H99.3757V41.0961C98.9975 41.4339 98.4588 41.605 97.9034 41.605C96.6828 41.605 95.7891 40.7388 95.7891 39.5695C95.7891 38.4001 96.6828 37.5332 97.9092 37.5332C98.5159 37.5332 99.0431 37.7281 99.3981 38.1107L99.1349 38.3799C98.7972 38.0479 98.3959 37.9107 97.9259 37.9107C96.9352 37.9107 96.207 38.6145 96.207 39.5709C96.207 40.5273 96.9352 41.2311 97.9201 41.2311C98.2937 41.2438 98.6614 41.1357 98.9686 40.9229V39.5695Z" fill="#57B33E"/>
<path d="M103.319 40.1861V41.5706H102.901V40.1861L101.297 37.5674H101.749L103.123 39.8151L104.497 37.5674H104.921L103.319 40.1861Z" fill="#57B33E"/>
</svg>
