<svg width="218" height="60" viewBox="0 0 218 60" fill="none" xmlns="http://www.w3.org/2000/svg">
<path d="M45.5625 14.9001C46.6027 13.7489 47.2421 12.2296 47.2421 10.5609C47.2421 6.98024 44.3237 4.06733 40.7369 4.06733C39.2556 4.06733 37.8927 4.56979 36.7979 5.40521C31.739 1.8685 25.8116 0 19.5917 0C18.8234 0 18.2003 0.62172 18.2003 1.38897C18.2003 2.15621 18.8231 2.7779 19.5917 2.7779C25.1479 2.7779 30.4475 4.41688 34.9893 7.52824C34.5076 8.4342 34.2321 9.4657 34.2321 10.5609C34.2321 14.1416 37.1504 17.0545 40.7372 17.0545C41.6448 17.0545 42.5089 16.8668 43.2946 16.5299C45.6316 20.6206 46.8629 25.2549 46.8629 30C46.8629 45.0104 34.6292 57.2224 19.592 57.2224C14.2212 57.2224 9.02516 55.6658 4.5656 52.7211C3.92434 52.2962 3.0616 52.4731 2.63734 53.1132C2.21335 53.7528 2.38922 54.6143 3.03022 55.0375C7.94646 58.2842 13.6735 60 19.5917 60C36.1635 60 49.6455 46.5417 49.6455 29.9997C49.645 24.6727 48.2343 19.471 45.5625 14.9001ZM40.7367 14.2766C38.6842 14.2766 37.0144 12.61 37.0144 10.5606C37.0144 8.51132 38.6842 6.84468 40.7367 6.84468C42.7891 6.84468 44.459 8.51132 44.459 10.5606C44.459 12.61 42.7894 14.2766 40.7367 14.2766Z" fill="#57B33E"/>
<path d="M19.5938 44.4508C27.5761 44.4508 34.0704 37.9686 34.0704 30.0003C34.0704 29.233 33.4473 28.6113 32.679 28.6113C31.9106 28.6113 31.2876 29.233 31.2876 30.0003C31.2876 36.4364 26.0417 41.6729 19.5938 41.6729C13.1459 41.6729 7.90002 36.4364 7.90002 30.0003C7.90002 29.233 7.27696 28.6113 6.50861 28.6113C5.74026 28.6113 5.11719 29.233 5.11719 30.0003C5.11719 37.9686 11.6113 44.4508 19.5938 44.4508Z" fill="#57B33E"/>
<path d="M6.95994 25.3441C7.18855 25.3283 7.414 25.2991 7.63602 25.2583C8.5863 25.083 9.56348 25.3012 10.3503 25.8523C11.2389 26.4751 11.6877 27.5863 11.5068 28.6552C11.3407 29.6372 11.3515 30.68 11.5827 31.7526C12.3308 35.2243 15.1545 37.759 18.6919 38.1351C23.9897 38.6984 28.4055 34.2186 27.7181 28.9087C27.2546 25.3267 24.5727 22.5338 21.0046 21.9355C19.8479 21.7418 18.7281 21.7913 17.6863 22.0408C16.0141 22.4406 15.3952 24.0015 16.4436 25.3622C16.9875 26.0682 17.8487 26.2871 18.6542 26.0926C18.7956 26.0584 18.9401 26.0329 19.0869 26.0139C19.1318 26.0084 19.1782 26.0079 19.2233 26.0036C19.3311 25.9939 19.4392 25.9852 19.5492 25.9842C19.6438 25.9831 19.7398 25.9879 19.8358 25.9939C19.8814 25.9965 19.9265 25.996 19.9724 26.0005C20.1071 26.0134 20.2432 26.0331 20.3803 26.0597C20.3895 26.0618 20.3985 26.0618 20.4074 26.0642C20.4172 26.0658 20.4264 26.0703 20.4362 26.0724C20.5936 26.105 20.7462 26.151 20.8965 26.2021C20.9546 26.2216 21.0115 26.2429 21.0682 26.265C21.2043 26.3182 21.3374 26.3779 21.4658 26.4456C21.517 26.4727 21.566 26.5019 21.6158 26.5314C21.7258 26.5953 21.8326 26.6643 21.9357 26.738C21.9874 26.7754 22.038 26.8122 22.0878 26.852C22.2057 26.9446 22.3196 27.0428 22.4264 27.1489C22.4707 27.1923 22.5105 27.2394 22.5527 27.2849C22.6263 27.3647 22.6967 27.4471 22.7636 27.5324C22.8103 27.5921 22.8562 27.6516 22.8994 27.7135C22.968 27.8122 23.0313 27.9143 23.0909 28.0188C23.142 28.1082 23.1879 28.2006 23.2319 28.2938C23.2691 28.3725 23.3042 28.4523 23.3363 28.5336C23.3664 28.6107 23.3962 28.687 23.4215 28.7657C23.4682 28.911 23.509 29.0587 23.538 29.2106C23.5409 29.2253 23.5468 29.2387 23.5494 29.2535C23.5576 29.2979 23.5583 29.3419 23.5649 29.3864C23.5805 29.4906 23.5939 29.594 23.6013 29.6967C23.6055 29.753 23.6079 29.8091 23.6098 29.8654C23.6132 29.9712 23.6121 30.0765 23.6074 30.1802C23.605 30.2334 23.604 30.286 23.5995 30.3387C23.5895 30.4592 23.5729 30.5784 23.5523 30.6956C23.5467 30.7272 23.5441 30.7595 23.5378 30.7906C23.5083 30.9382 23.4703 31.0825 23.4252 31.2236C23.4133 31.2609 23.3983 31.2957 23.3854 31.3325C23.3487 31.4362 23.3094 31.5381 23.2649 31.6378C23.2438 31.685 23.2208 31.7305 23.1982 31.7763C23.1547 31.8642 23.1083 31.9506 23.0587 32.0345C23.0326 32.079 23.0062 32.1229 22.9783 32.1664C22.9221 32.2538 22.8617 32.3377 22.7992 32.4204C22.7734 32.4546 22.7494 32.4893 22.7228 32.5222C22.6313 32.6357 22.5348 32.7446 22.4317 32.8473C22.4222 32.8565 22.4116 32.8647 22.4021 32.8739C22.3077 32.966 22.2086 33.0529 22.1055 33.1355C22.0696 33.1642 22.0317 33.1908 21.9948 33.2184C21.9141 33.2781 21.8315 33.3361 21.7461 33.3903C21.7026 33.4179 21.6588 33.444 21.6143 33.47C21.5278 33.5206 21.4392 33.5672 21.3487 33.6111C21.3055 33.6322 21.2628 33.654 21.2188 33.6735C21.1064 33.7235 20.9912 33.7674 20.8739 33.8064C20.8501 33.8146 20.8275 33.8248 20.8035 33.8325C20.6613 33.8769 20.5153 33.9133 20.3668 33.942C20.3278 33.9496 20.2875 33.9538 20.2479 33.9604C20.1374 33.9783 20.0256 33.9935 19.9122 34.0022C19.859 34.0064 19.8052 34.0083 19.7514 34.0104C19.6467 34.0149 19.5413 34.0149 19.4345 34.0104C19.3799 34.0088 19.3253 34.0067 19.2702 34.0022C19.1637 33.9941 19.0558 33.9788 18.9477 33.9625C18.9032 33.9554 18.8594 33.9543 18.8146 33.9457C18.803 33.9435 18.7921 33.9391 18.7808 33.937C18.6368 33.9088 18.4971 33.8685 18.3589 33.8246C18.2693 33.7964 18.1825 33.7632 18.0955 33.7285C18.0388 33.7056 17.9832 33.6814 17.9278 33.6564C17.7374 33.5701 17.555 33.4708 17.3815 33.3568C17.367 33.3476 17.3517 33.3395 17.3374 33.3298C17.2512 33.2719 17.1695 33.2081 17.088 33.1437C17.0469 33.111 17.0065 33.0771 16.9665 33.0428C16.717 32.8286 16.4947 32.5844 16.3041 32.3154C16.2714 32.2693 16.2398 32.2224 16.2092 32.1753C16.1549 32.0913 16.1013 32.0077 16.0533 31.9192C16.009 31.8379 15.9705 31.7537 15.9323 31.6692C15.8827 31.5607 15.8379 31.4505 15.7984 31.3378C15.7662 31.2449 15.7359 31.1517 15.7103 31.0567C15.7 31.0177 15.6834 30.9809 15.6742 30.9411C15.6697 30.9222 15.67 30.9032 15.6657 30.8835C15.6228 30.6866 15.594 30.4913 15.58 30.2992C15.5787 30.2823 15.5735 30.2644 15.5724 30.2476C15.4886 28.8805 14.7186 27.6461 13.613 26.8351L12.4526 25.9839L10.1122 24.2662C10.1154 24.2641 10.118 24.2615 10.1212 24.2591L8.4078 22.9984C7.9751 22.6799 7.44274 22.5254 6.90642 22.5633C5.99701 22.6267 5.07045 22.418 4.33216 21.8839C3.42089 21.2254 2.86928 20.2292 2.79202 19.1255C2.64885 17.0817 4.1982 15.3027 6.24565 15.1596C6.33345 15.153 6.42073 15.1503 6.50748 15.1503C8.44313 15.1503 10.0816 16.6509 10.2187 18.6073C10.2451 18.9842 10.2137 19.3561 10.1291 19.7135C9.99908 20.2626 10.1905 20.8356 10.6432 21.1725C11.4242 21.7537 12.5778 21.3841 12.8159 20.4411C12.9807 19.7873 13.0432 19.1053 12.9947 18.413C12.7447 14.8421 9.62993 12.1538 6.05159 12.3883C2.4735 12.6383 -0.234191 15.7476 0.0160379 19.3198C0.137329 21.0499 0.926252 22.6294 2.23751 23.7669C3.4317 24.8032 4.92833 25.3604 6.49482 25.3604C6.64987 25.3604 6.8049 25.3548 6.95994 25.3441Z" fill="#57B33E"/>
<path d="M82.7258 21.9863V25.3464H78.5122V38.9732H74.473V25.3464H70.2344V21.9863H82.7258Z" fill="#57B33E"/>
<path d="M99.1391 25.2219H91.0358V28.7065H97.4062V31.9045H91.0358V35.6131H99.1391V38.9732H86.9844V21.9863H99.1391V25.2219Z" fill="#57B33E"/>
<path d="M117.817 28.3074L113.641 28.5693C113.583 26.1717 112.646 24.9728 110.83 24.9728C108.748 24.9728 107.707 26.8184 107.707 30.5104C107.707 32.6427 107.99 34.0885 108.556 34.847C109.123 35.6064 109.914 35.9862 110.93 35.9862C112.579 35.9862 113.586 34.9157 113.953 32.7753L117.817 33.0117C117.568 35.0442 116.81 36.5897 115.542 37.647C114.275 38.7051 112.723 39.2336 110.886 39.2336C108.634 39.2336 106.803 38.4585 105.394 36.9069C103.986 35.3553 103.281 33.2107 103.281 30.4733C103.281 27.9097 103.963 25.8111 105.326 24.1764C106.689 22.5416 108.55 21.7246 110.911 21.7246C115 21.7246 117.302 23.9192 117.817 28.3074Z" fill="#57B33E"/>
<path d="M135.804 21.9863V38.9732H131.889V31.9671H126.579V38.9732H122.664V21.9863H126.579V28.6068H131.889V21.9863H135.804Z" fill="#57B33E"/>
<path d="M154.742 35.6131H161.512V38.9732H150.703V21.9863H154.742V35.6131Z" fill="#57B33E"/>
<path d="M172.254 39.2343C169.962 39.2343 168.189 38.376 166.935 36.6583C165.681 34.9412 165.055 32.8632 165.055 30.424C165.055 27.9436 165.69 25.8737 166.96 24.2145C168.231 22.5558 170.041 21.7256 172.391 21.7256C174.766 21.7256 176.558 22.6113 177.766 24.3826C178.974 26.154 179.578 28.1797 179.578 30.4617C179.578 32.925 178.955 35.0036 177.71 36.696C176.464 38.3884 174.645 39.2343 172.254 39.2343ZM172.366 24.9733C170.276 24.9733 169.231 26.8065 169.231 30.4738C169.231 34.1487 170.276 35.9866 172.366 35.9866C174.39 35.9866 175.402 34.1526 175.402 30.4862C175.402 26.8107 174.39 24.9733 172.366 24.9733Z" fill="#57B33E"/>
<path d="M197.984 29.888V38.9725H196.164C196.033 38.3335 195.843 37.6828 195.597 37.019C194.383 38.4956 192.836 39.2336 190.957 39.2336C188.737 39.2336 187.009 38.4414 185.774 36.8569C184.539 35.2724 183.922 33.2233 183.922 30.7097C183.922 28.005 184.581 25.8317 185.898 24.1887C187.215 22.5458 189.004 21.7246 191.265 21.7246C193.159 21.7246 194.689 22.2558 195.852 23.3175C197.016 24.3798 197.727 25.794 197.984 27.5612L194.194 28.0587C193.887 26.0014 192.91 24.9728 191.265 24.9728C190.184 24.9728 189.368 25.46 188.815 26.4349C188.263 27.4101 187.986 28.8014 187.986 30.6099C187.986 32.3518 188.285 33.6834 188.884 34.6043C189.482 35.525 190.334 35.9862 191.44 35.9862C192.154 35.9862 192.792 35.754 193.353 35.2887C193.914 34.8241 194.195 34.0821 194.195 33.0617H190.991V29.888H197.984Z" fill="#57B33E"/>
<path d="M210.071 39.2343C207.779 39.2343 206.005 38.376 204.752 36.6583C203.498 34.9412 202.871 32.8632 202.871 30.424C202.871 27.9436 203.506 25.8737 204.777 24.2145C206.047 22.5558 207.857 21.7256 210.208 21.7256C212.583 21.7256 214.374 22.6113 215.582 24.3826C216.791 26.154 217.395 28.1797 217.395 30.4617C217.395 32.925 216.772 35.0036 215.526 36.696C214.28 38.3884 212.462 39.2343 210.071 39.2343ZM210.182 24.9733C208.092 24.9733 207.047 26.8065 207.047 30.4738C207.047 34.1487 208.092 35.9866 210.182 35.9866C212.206 35.9866 213.218 34.1526 213.218 30.4862C213.218 26.8107 212.206 24.9733 210.182 24.9733Z" fill="#57B33E"/>
<path d="M76.9387 43.4522V45.1557H76.803C76.7413 44.6967 76.591 44.3456 76.352 44.1029C76.1129 43.861 75.8087 43.7394 75.4391 43.7394C75.3123 43.7394 75.1963 43.7612 75.0914 43.8047C74.9863 43.8481 74.894 43.905 74.8144 43.9758C74.7345 44.0466 74.6731 44.1268 74.6296 44.2169C74.5861 44.3077 74.5645 44.4016 74.5645 44.4993C74.5645 44.5901 74.5824 44.6759 74.6188 44.757C74.6549 44.838 74.7675 44.9659 74.9557 45.1397C75.2709 45.3384 75.5517 45.5031 75.7979 45.6329C76.0296 45.76 76.3433 45.9516 76.7381 46.208C76.9084 46.3385 77.0389 46.4931 77.1293 46.6726C77.2197 46.8513 77.2653 47.0387 77.2653 47.234C77.2653 47.4182 77.2271 47.5941 77.1512 47.7604C77.075 47.9268 76.9693 48.0723 76.8333 48.1973C76.6975 48.3218 76.5336 48.4213 76.3414 48.4955C76.1493 48.5698 75.9392 48.6069 75.7111 48.6069C75.5662 48.6069 75.432 48.5958 75.3089 48.574C75.287 48.5705 75.2301 48.5556 75.1378 48.5279C75.0453 48.5011 74.9467 48.4729 74.8415 48.4439C74.7364 48.415 74.6386 48.3876 74.5482 48.3621C74.4575 48.3374 74.405 48.3242 74.3905 48.3242C74.3288 48.3242 74.2809 48.3426 74.2466 48.3784C74.2121 48.4147 74.186 48.4903 74.1678 48.6066H74.0318V46.9134H74.1678C74.2329 47.2603 74.318 47.5264 74.4232 47.7112C74.4738 47.7978 74.5418 47.8781 74.627 47.9523C74.7121 48.0265 74.8081 48.0918 74.9151 48.1481C75.0218 48.2039 75.137 48.2471 75.2601 48.2779C75.3832 48.3089 75.5082 48.3239 75.635 48.3239C75.7871 48.3239 75.9239 48.3026 76.0454 48.2586C76.1666 48.2155 76.27 48.1571 76.3551 48.0828C76.4403 48.0086 76.5054 47.9228 76.5507 47.8251C76.596 47.7275 76.6187 47.6246 76.6187 47.5159C76.6187 47.3929 76.5852 47.2698 76.518 47.1469C76.4508 47.0239 76.3377 46.9024 76.1785 46.7826C76.0227 46.6892 75.8379 46.5786 75.6242 46.452C75.2148 46.2169 74.8505 45.9909 74.5318 45.7737C74.3541 45.6321 74.2192 45.4776 74.1269 45.3092C74.0344 45.1415 73.9883 44.9538 73.9883 44.7477C73.9883 44.5738 74.0244 44.409 74.0969 44.2516C74.1694 44.0942 74.2698 43.9555 74.3984 43.836C74.5271 43.717 74.68 43.6231 74.8576 43.5544C75.035 43.4857 75.2272 43.4512 75.4336 43.4512C75.6945 43.4512 75.9716 43.5144 76.265 43.641C76.3338 43.6699 76.3918 43.6938 76.4389 43.7117C76.4861 43.7296 76.5241 43.7373 76.5531 43.7331C76.6182 43.7331 76.6707 43.7152 76.7107 43.6788C76.7505 43.643 76.7814 43.5667 76.803 43.4515H76.9387V43.4522Z" fill="#57B33E"/>
<path d="M86.3966 47.131L86.5163 47.1523L86.0924 48.4928H82.2656V48.3575H82.4557C82.6588 48.3575 82.8072 48.2901 82.9014 48.1562C82.952 48.0772 82.9776 47.8977 82.9776 47.6195V44.4339C82.9776 44.1302 82.943 43.9385 82.8742 43.8588C82.7801 43.7503 82.6406 43.6958 82.4557 43.6958H82.2656V43.5605H84.5053V43.6958C84.3711 43.6958 84.2598 43.7019 84.171 43.7151C84.0821 43.7274 84.0088 43.7459 83.9508 43.7693C83.8928 43.7927 83.8474 43.8209 83.815 43.853C83.7823 43.8859 83.7551 43.9217 83.7335 43.9614C83.6971 44.0335 83.6792 44.2204 83.6792 44.5202V47.6192C83.6792 47.789 83.6919 47.9119 83.7172 47.9882C83.7425 48.0638 83.7934 48.1167 83.8693 48.1456C83.9344 48.1669 84.1248 48.178 84.4402 48.178H84.799C85.1795 48.178 85.4458 48.1506 85.5982 48.0969C85.6744 48.0714 85.7467 48.0351 85.8158 47.9885C85.8846 47.9411 85.9515 47.8801 86.0169 47.8037C86.0823 47.7282 86.1456 47.6353 86.2073 47.5268C86.268 47.4181 86.3315 47.2862 86.3966 47.131Z" fill="#57B33E"/>
<path d="M93.8584 43.4521C94.1737 43.4521 94.4743 43.5174 94.7607 43.6472C95.0468 43.7777 95.2988 43.9564 95.5164 44.1846C95.7339 44.4128 95.9069 44.6808 96.0355 44.9906C96.1642 45.2998 96.2286 45.6352 96.2286 45.9966C96.2286 46.3695 96.1642 46.7154 96.0355 47.0334C95.9069 47.3516 95.7328 47.6271 95.5137 47.8606C95.2944 48.0943 95.037 48.2762 94.7417 48.4089C94.4464 48.5407 94.1318 48.6068 93.7985 48.6068C93.4615 48.6068 93.1462 48.5436 92.8527 48.4165C92.5592 48.2901 92.3045 48.1122 92.0891 47.8827C91.8734 47.6524 91.7031 47.3789 91.5781 47.0602C91.4531 46.742 91.3906 46.3908 91.3906 46.0074C91.3906 45.6528 91.4531 45.3201 91.5781 45.009C91.7031 44.6977 91.8753 44.4276 92.0947 44.1981C92.3138 43.9678 92.5737 43.7864 92.8746 43.6524C93.1754 43.519 93.5032 43.4521 93.8584 43.4521ZM93.7877 43.7182C93.5377 43.7182 93.3155 43.7712 93.1219 43.8783C92.9279 43.9849 92.7649 44.1367 92.6325 44.3339C92.5002 44.531 92.3997 44.7703 92.3309 45.0498C92.2621 45.3301 92.2275 45.6462 92.2275 45.9968C92.2275 46.3445 92.261 46.662 92.3283 46.9491C92.3952 47.2371 92.4949 47.485 92.6273 47.6927C92.7594 47.9009 92.9234 48.0617 93.1193 48.1757C93.3149 48.2896 93.5396 48.3468 93.7935 48.3468C94.0219 48.3468 94.2328 48.3033 94.4269 48.2162C94.6207 48.1296 94.7899 47.9948 94.935 47.8122C95.0797 47.6293 95.1931 47.3966 95.2748 47.112C95.3563 46.8283 95.3972 46.4888 95.3972 46.095C95.3972 45.7218 95.3637 45.3886 95.2967 45.0938C95.2298 44.799 95.1282 44.5489 94.9922 44.3447C94.8561 44.1399 94.6879 43.9846 94.4867 43.878C94.2853 43.7712 94.0522 43.7182 93.7877 43.7182Z" fill="#57B33E"/>
<path d="M105.547 43.4521L105.677 45.0038H105.547C105.398 44.5481 105.187 44.2184 104.913 44.0136C104.64 43.8096 104.307 43.7072 103.916 43.7072C103.626 43.7072 103.367 43.7643 103.138 43.8783C102.91 43.9923 102.716 44.1496 102.557 44.3505C102.397 44.551 102.276 44.7882 102.193 45.0609C102.109 45.3344 102.068 45.6299 102.068 45.9479C102.068 46.4146 102.16 46.8433 102.345 47.2342C102.435 47.4292 102.541 47.5977 102.663 47.7385C102.784 47.8801 102.916 47.9962 103.057 48.0891C103.198 48.1812 103.346 48.2491 103.5 48.2925C103.654 48.3357 103.809 48.3578 103.965 48.3578C104.327 48.3578 104.668 48.267 104.987 48.0864V46.6593C104.987 46.5364 104.982 46.4361 104.973 46.3585C104.964 46.28 104.949 46.219 104.929 46.1737C104.909 46.1284 104.885 46.094 104.856 46.0705C104.827 46.0471 104.793 46.0245 104.753 46.0026C104.673 45.9629 104.535 45.9429 104.339 45.9429V45.802H106.253V45.9429H106.161C106.077 45.9429 106.006 45.9526 105.949 45.9702C105.891 45.9881 105.843 46.0224 105.805 46.0734C105.767 46.1242 105.74 46.1964 105.723 46.2906C105.707 46.3848 105.699 46.5077 105.699 46.6596V48.1678C105.557 48.2441 105.419 48.3099 105.283 48.3657C105.147 48.422 105.01 48.4668 104.873 48.4991C104.59 48.5713 104.287 48.6076 103.965 48.6076C103.552 48.6076 103.177 48.5444 102.842 48.4173C102.507 48.2909 102.22 48.1156 101.981 47.8909C101.741 47.6669 101.557 47.4029 101.426 47.0992C101.296 46.7949 101.23 46.4643 101.23 46.1055C101.23 45.6755 101.335 45.2591 101.546 44.8577C101.789 44.3876 102.128 44.0241 102.562 43.7672C102.925 43.5577 103.352 43.4524 103.845 43.4524C103.943 43.4524 104.03 43.455 104.106 43.4606C104.182 43.4661 104.261 43.4764 104.343 43.493C104.424 43.5095 104.513 43.5327 104.609 43.5638C104.705 43.594 104.822 43.6351 104.959 43.6853C105.097 43.7396 105.19 43.7651 105.237 43.7617C105.28 43.7617 105.318 43.7411 105.351 43.699C105.384 43.6577 105.403 43.5753 105.411 43.4524L105.547 43.4521Z" fill="#57B33E"/>
<path d="M114.225 46.8436H112.311L111.974 47.62C111.895 47.8119 111.855 47.9545 111.855 48.048C111.855 48.0877 111.861 48.1243 111.874 48.1564C111.887 48.1893 111.914 48.2191 111.955 48.2464C111.997 48.2733 112.055 48.2967 112.129 48.3165C112.204 48.3365 112.302 48.3501 112.426 48.3578V48.4931H110.871V48.3578C110.994 48.3393 111.094 48.3125 111.17 48.2759C111.246 48.2401 111.311 48.1901 111.366 48.1267C111.42 48.0635 111.47 47.9811 111.515 47.8801C111.561 47.7785 111.616 47.654 111.681 47.5055L113.421 43.4521H113.546L115.263 47.5489C115.332 47.7187 115.397 47.8553 115.456 47.9585C115.516 48.0617 115.578 48.142 115.641 48.2004C115.705 48.258 115.774 48.298 115.848 48.3193C115.922 48.3412 116.012 48.3536 116.117 48.3578V48.4931H114.165V48.3578C114.361 48.3501 114.494 48.3186 114.565 48.2623C114.636 48.2067 114.671 48.1385 114.671 48.0588C114.667 47.9543 114.618 47.784 114.524 47.5489L114.225 46.8436ZM114.121 46.5727L113.284 44.5808L112.425 46.5727H114.121Z" fill="#57B33E"/>
<path d="M120.555 43.5605H121.892L124.914 47.2607V44.4173C124.914 44.2509 124.902 44.1191 124.879 44.0214C124.855 43.9238 124.821 43.8517 124.776 43.8043C124.73 43.7577 124.675 43.7274 124.61 43.7151C124.545 43.7019 124.47 43.6958 124.387 43.6958H124.213V43.5605H125.936V43.6958H125.757C125.67 43.6958 125.594 43.7035 125.529 43.718C125.464 43.7324 125.409 43.7646 125.366 43.8156C125.322 43.8664 125.29 43.9385 125.268 44.0328C125.246 44.127 125.235 44.2554 125.235 44.4176V48.5741H125.105L121.849 44.6026V47.641C121.849 47.8116 121.86 47.944 121.884 48.0403C121.907 48.1359 121.941 48.2072 121.984 48.2546C122.028 48.3014 122.082 48.3301 122.147 48.3412C122.212 48.3522 122.287 48.3578 122.37 48.3578H122.544V48.4931H120.826V48.3578H121C121.087 48.3578 121.163 48.3501 121.229 48.3359C121.294 48.3214 121.349 48.2899 121.394 48.2412C121.44 48.1925 121.473 48.1209 121.495 48.0266C121.517 47.9324 121.528 47.804 121.528 47.641V44.2115C121.455 44.1249 121.395 44.0562 121.345 44.0054C121.296 43.9551 121.25 43.9133 121.207 43.8809C121.163 43.848 121.116 43.8211 121.065 43.799C121.015 43.7777 120.951 43.7537 120.875 43.729C120.803 43.7072 120.696 43.6961 120.555 43.6961V43.5605Z" fill="#57B33E"/>
<path d="M140.086 43.5605H141.809V43.6958H141.711C141.573 43.6958 141.425 43.7585 141.265 43.8835C141.106 44.008 140.93 44.2244 140.738 44.5315L139.548 46.404V47.6408C139.548 47.8071 139.559 47.9382 139.583 48.0345C139.606 48.1301 139.641 48.2014 139.686 48.2488C139.732 48.2956 139.788 48.3256 139.855 48.338C139.922 48.3504 139.999 48.3572 140.086 48.3572H140.243V48.4925H138.145V48.3572H138.325C138.412 48.3572 138.488 48.3496 138.553 48.3354C138.618 48.3209 138.672 48.2893 138.716 48.2406C138.759 48.1919 138.792 48.1204 138.814 48.0261C138.835 47.9319 138.846 47.8035 138.846 47.6405V46.4682L137.493 44.4068C137.409 44.2839 137.341 44.1849 137.289 44.1107C137.236 44.0364 137.196 43.9835 137.167 43.9506C137.152 43.9362 137.128 43.9148 137.093 43.8861C137.059 43.8567 137.016 43.829 136.966 43.8016C136.915 43.7748 136.859 43.7501 136.797 43.7287C136.736 43.7069 136.67 43.6958 136.602 43.6958V43.5605H138.711V43.6958H138.602C138.548 43.6958 138.493 43.7019 138.439 43.7151C138.385 43.7274 138.335 43.7467 138.292 43.7722C138.249 43.7977 138.213 43.8306 138.186 43.8725C138.159 43.9138 138.145 43.9617 138.145 44.0162C138.141 44.0596 138.16 44.1199 138.199 44.1983C138.239 44.276 138.295 44.3728 138.368 44.4884L139.395 46.0784L140.368 44.5592C140.506 44.3386 140.579 44.168 140.586 44.0485C140.579 43.9983 140.567 43.9509 140.55 43.9077C140.534 43.8646 140.507 43.8274 140.469 43.7964C140.431 43.7661 140.381 43.7414 140.319 43.7235C140.258 43.7048 140.18 43.6961 140.086 43.6961V43.5605Z" fill="#57B33E"/>
<path d="M149.101 43.4521C149.416 43.4521 149.717 43.5174 150.003 43.6472C150.289 43.7777 150.541 43.9564 150.759 44.1846C150.976 44.4128 151.149 44.6808 151.278 44.9906C151.406 45.2998 151.471 45.6352 151.471 45.9966C151.471 46.3695 151.406 46.7154 151.278 47.0334C151.149 47.3516 150.975 47.6271 150.756 47.8606C150.537 48.0943 150.279 48.2762 149.984 48.4089C149.688 48.5407 149.374 48.6068 149.041 48.6068C148.704 48.6068 148.388 48.5436 148.095 48.4165C147.801 48.2901 147.547 48.1122 147.331 47.8827C147.116 47.6524 146.945 47.3789 146.82 47.0602C146.695 46.742 146.633 46.3908 146.633 46.0074C146.633 45.6528 146.695 45.3201 146.82 45.009C146.945 44.6977 147.117 44.4276 147.337 44.1981C147.556 43.9678 147.816 43.7864 148.117 43.6524C148.417 43.519 148.745 43.4521 149.101 43.4521ZM149.03 43.7182C148.78 43.7182 148.558 43.7712 148.364 43.8783C148.17 43.9849 148.007 44.1367 147.875 44.3339C147.743 44.531 147.642 44.7703 147.573 45.0498C147.505 45.3301 147.47 45.6462 147.47 45.9968C147.47 46.3445 147.503 46.662 147.57 46.9491C147.637 47.2371 147.737 47.485 147.869 47.6927C148.002 47.9009 148.166 48.0617 148.361 48.1757C148.557 48.2896 148.782 48.3468 149.035 48.3468C149.264 48.3468 149.475 48.3033 149.669 48.2162C149.863 48.1296 150.032 47.9948 150.177 47.8122C150.322 47.6293 150.435 47.3966 150.516 47.112C150.598 46.8283 150.639 46.4888 150.639 46.095C150.639 45.7218 150.605 45.3886 150.538 45.0938C150.471 44.799 150.37 44.5489 150.234 44.3447C150.098 44.1399 149.93 43.9846 149.728 43.878C149.527 43.7712 149.294 43.7182 149.03 43.7182Z" fill="#57B33E"/>
<path d="M159.773 43.6958V43.5605H161.518V43.6958H161.333C161.144 43.6958 160.996 43.7777 160.887 43.9404C160.836 44.0125 160.811 44.1878 160.811 44.4668V46.4637C160.811 46.948 160.76 47.3336 160.659 47.6195C160.608 47.7569 160.536 47.8853 160.441 48.0043C160.347 48.1238 160.228 48.2275 160.083 48.3162C159.938 48.4049 159.768 48.4757 159.574 48.5278C159.38 48.5807 159.158 48.6067 158.908 48.6067C158.637 48.6067 158.399 48.5833 158.196 48.536C157.993 48.4894 157.819 48.4204 157.674 48.3298C157.529 48.2398 157.41 48.1311 157.316 48.0043C157.221 47.8779 157.145 47.735 157.087 47.5755C157.008 47.3549 156.968 46.9501 156.968 46.3606V44.4339C156.968 44.282 156.957 44.1583 156.938 44.0622C156.918 43.9667 156.886 43.8911 156.842 43.8369C156.799 43.7832 156.744 43.7461 156.677 43.7264C156.61 43.7064 156.531 43.6961 156.44 43.6961H156.25V43.5608H158.386V43.6961H158.196C158.109 43.6961 158.033 43.7051 157.968 43.7235C157.903 43.7414 157.848 43.7764 157.805 43.8293C157.761 43.8814 157.728 43.9556 157.704 44.0512C157.681 44.1472 157.669 44.2752 157.669 44.4339V46.5824C157.669 46.7996 157.683 47.0112 157.712 47.2173C157.741 47.4234 157.801 47.6076 157.892 47.7684C157.982 47.9293 158.112 48.0577 158.281 48.1533C158.449 48.2493 158.673 48.2975 158.952 48.2975C159.111 48.2975 159.265 48.2783 159.414 48.2404C159.562 48.2025 159.698 48.1504 159.819 48.0859C159.94 48.0206 160.046 47.9416 160.137 47.8495C160.227 47.7574 160.295 47.6571 160.338 47.5487C160.432 47.335 160.479 46.9625 160.479 46.4306V44.4339C160.479 44.1302 160.445 43.9385 160.376 43.8588C160.282 43.7503 160.142 43.6958 159.958 43.6958H159.773Z" fill="#57B33E"/>
<path d="M171.09 48.4928H169.774L168.1 46.1868C168.038 46.1902 167.983 46.1929 167.934 46.195C167.885 46.1963 167.841 46.1976 167.801 46.1976C167.768 46.1976 167.734 46.1963 167.697 46.195C167.661 46.1929 167.623 46.1902 167.583 46.1868V47.6195C167.583 47.7926 167.595 47.9293 167.619 48.029C167.642 48.1288 167.677 48.203 167.722 48.2517C167.767 48.3004 167.822 48.3301 167.885 48.3409C167.948 48.352 168.02 48.3575 168.1 48.3575H168.296V48.4928H166.176V48.3575H166.366C166.569 48.3575 166.717 48.2901 166.812 48.1562C166.862 48.0772 166.888 47.8977 166.888 47.6195V44.4339C166.888 44.1302 166.853 43.9385 166.784 43.8588C166.69 43.7503 166.551 43.6958 166.366 43.6958H166.176V43.5605H167.975C168.239 43.5605 168.468 43.5703 168.66 43.59C168.852 43.6098 169.01 43.6403 169.133 43.6793C169.256 43.719 169.372 43.7748 169.481 43.8448C169.59 43.9156 169.685 44.0009 169.766 44.0999C169.848 44.1994 169.912 44.3107 169.959 44.4339C170.006 44.5568 170.03 44.6887 170.03 44.8303C170.03 45.1374 169.932 45.4012 169.736 45.6225C169.541 45.8431 169.234 46.0005 168.818 46.0945L169.834 47.5052C169.954 47.6682 170.06 47.8021 170.152 47.9066C170.245 48.0117 170.337 48.0948 170.429 48.1562C170.522 48.218 170.62 48.2633 170.723 48.2922C170.826 48.3212 170.949 48.343 171.09 48.3575V48.4928ZM167.584 45.9586C167.631 45.9586 167.672 45.96 167.706 45.9613C167.74 45.9634 167.768 45.9639 167.79 45.9639C168.026 45.9639 168.232 45.937 168.41 45.8828C168.587 45.8286 168.736 45.7523 168.856 45.6546C168.975 45.557 169.065 45.4422 169.125 45.3096C169.185 45.1777 169.214 45.034 169.214 44.8787C169.214 44.7268 169.189 44.5865 169.138 44.4581C169.087 44.3296 169.015 44.2189 168.921 44.127C168.826 44.0349 168.714 43.9635 168.584 43.9125C168.453 43.8617 168.31 43.8361 168.154 43.8361C168.006 43.8361 167.815 43.8601 167.584 43.9069V45.9586H167.584Z" fill="#57B33E"/>
<path d="M183.33 45.851H185.624V44.4402C185.624 44.3249 185.622 44.2294 185.619 44.1551C185.615 44.0817 185.606 44.0204 185.591 43.9738C185.577 43.9272 185.556 43.8901 185.529 43.8624C185.502 43.8356 185.466 43.8088 185.423 43.784C185.321 43.7256 185.211 43.6966 185.091 43.6966H184.917V43.5613H187.032V43.6966H186.858C186.811 43.6966 186.761 43.7021 186.708 43.7132C186.656 43.7242 186.607 43.7401 186.562 43.7619C186.516 43.7837 186.476 43.8106 186.439 43.843C186.403 43.8759 186.378 43.9138 186.363 43.9569C186.338 44.0333 186.325 44.1941 186.325 44.4399V47.62C186.325 47.7355 186.328 47.8295 186.333 47.9016C186.339 47.9745 186.348 48.0335 186.361 48.0808C186.373 48.1277 186.392 48.1648 186.418 48.1922C186.443 48.219 186.477 48.2451 186.521 48.2706C186.622 48.3291 186.735 48.3577 186.858 48.3577H187.032V48.493H184.917V48.3577H185.091C185.175 48.3577 185.249 48.3509 185.314 48.3385C185.379 48.3261 185.435 48.2954 185.483 48.2464C185.53 48.1977 185.565 48.1235 185.589 48.0237C185.612 47.924 185.624 47.7895 185.624 47.6197V46.1163H183.33V47.6197C183.33 47.7353 183.332 47.8292 183.335 47.9013C183.339 47.9742 183.348 48.0332 183.363 48.0806C183.377 48.1274 183.398 48.1645 183.425 48.1919C183.452 48.2188 183.488 48.2448 183.531 48.2704C183.633 48.3288 183.743 48.3575 183.863 48.3575H184.042V48.4928H181.922V48.3575H182.102C182.301 48.3575 182.448 48.2977 182.542 48.1782C182.6 48.1061 182.629 47.9198 182.629 47.6197V44.4396C182.629 44.3202 182.627 44.2238 182.623 44.1496C182.62 44.0754 182.611 44.0156 182.596 43.9704C182.582 43.9251 182.562 43.8893 182.536 43.8617C182.511 43.8348 182.476 43.8079 182.433 43.7832C182.331 43.7248 182.221 43.6958 182.101 43.6958H181.922V43.5605H184.042V43.6958H183.862C183.819 43.6958 183.771 43.7014 183.718 43.7124C183.666 43.7235 183.617 43.7393 183.571 43.7611C183.526 43.7829 183.485 43.8098 183.449 43.8422C183.413 43.8751 183.388 43.913 183.373 43.9561C183.344 44.0435 183.33 44.2041 183.33 44.4391L183.33 45.851Z" fill="#57B33E"/>
<path d="M193.198 43.8319V45.7799H194.28C194.439 45.7799 194.568 45.7654 194.665 45.736C194.763 45.707 194.84 45.6639 194.896 45.6062C194.953 45.5486 194.991 45.4743 195.013 45.3835C195.035 45.2935 195.049 45.1864 195.057 45.0632H195.193V46.7783H195.057C195.039 46.6367 195.018 46.5193 194.994 46.425C194.971 46.3308 194.932 46.2561 194.88 46.2003C194.827 46.1439 194.754 46.1042 194.66 46.0808C194.565 46.0573 194.438 46.0457 194.279 46.0457H193.197V47.6737C193.197 47.7966 193.199 47.8942 193.203 47.9664C193.206 48.0385 193.221 48.0943 193.246 48.1319C193.271 48.1698 193.311 48.1946 193.366 48.2048C193.42 48.2159 193.5 48.2214 193.605 48.2214H194.442C194.583 48.2214 194.703 48.218 194.801 48.2104C194.899 48.2035 194.983 48.1891 195.054 48.1672C195.124 48.1459 195.187 48.1156 195.241 48.078C195.295 48.0401 195.353 47.9922 195.415 47.9343C195.56 47.7927 195.714 47.5666 195.877 47.256H196.024L195.595 48.4928H191.789V48.3575H191.963C192.011 48.3575 192.059 48.352 192.11 48.3409C192.161 48.3299 192.209 48.3149 192.254 48.2949C192.3 48.2749 192.34 48.2488 192.377 48.2159C192.413 48.1835 192.438 48.1459 192.452 48.1019C192.481 48.023 192.496 47.8634 192.496 47.625V44.4228C192.496 44.108 192.465 43.9151 192.403 43.8422C192.316 43.7445 192.17 43.6958 191.963 43.6958H191.789V43.5605H195.594V44.64H195.507C195.471 44.4626 195.432 44.3212 195.391 44.2138C195.349 44.1072 195.294 44.0249 195.225 43.9672C195.156 43.9096 195.068 43.8725 194.961 43.8559C194.854 43.8393 194.717 43.8319 194.551 43.8319H193.198Z" fill="#57B33E"/>
<path d="M205.684 48.4928H204.368L202.694 46.1868C202.632 46.1902 202.577 46.1929 202.528 46.195C202.479 46.1963 202.435 46.1976 202.395 46.1976C202.362 46.1976 202.328 46.1963 202.291 46.195C202.255 46.1929 202.217 46.1902 202.177 46.1868V47.6195C202.177 47.7926 202.189 47.9293 202.213 48.029C202.236 48.1288 202.271 48.203 202.316 48.2517C202.361 48.3004 202.416 48.3301 202.479 48.3409C202.542 48.352 202.614 48.3575 202.694 48.3575H202.89V48.4928H200.77V48.3575H200.96C201.163 48.3575 201.311 48.2901 201.406 48.1562C201.456 48.0772 201.481 47.8977 201.481 47.6195V44.4339C201.481 44.1302 201.447 43.9385 201.378 43.8588C201.284 43.7503 201.144 43.6958 200.96 43.6958H200.77V43.5605H202.569C202.833 43.5605 203.062 43.5703 203.254 43.59C203.446 43.61 203.604 43.6403 203.727 43.6793C203.85 43.719 203.966 43.7748 204.075 43.8448C204.183 43.9156 204.279 44.0009 204.36 44.0999C204.442 44.1994 204.506 44.3107 204.553 44.4339C204.6 44.5568 204.624 44.6887 204.624 44.8303C204.624 45.1374 204.526 45.4012 204.33 45.6225C204.135 45.8431 203.828 46.0005 203.412 46.0945L204.428 47.5052C204.547 47.6682 204.654 47.8021 204.746 47.9066C204.838 48.0117 204.931 48.0948 205.023 48.1562C205.115 48.218 205.213 48.2633 205.317 48.2922C205.42 48.3212 205.542 48.343 205.684 48.3575V48.4928H205.684ZM202.178 45.9586C202.224 45.9586 202.265 45.96 202.3 45.9613C202.334 45.9634 202.362 45.9639 202.384 45.9639C202.619 45.9639 202.826 45.937 203.004 45.8828C203.181 45.8286 203.33 45.7523 203.449 45.6546C203.569 45.557 203.659 45.4422 203.718 45.3096C203.778 45.1777 203.808 45.034 203.808 44.8787C203.808 44.7268 203.783 44.5865 203.732 44.4581C203.681 44.3296 203.609 44.2189 203.515 44.127C203.42 44.0349 203.308 43.9635 203.178 43.9125C203.047 43.8617 202.904 43.8361 202.748 43.8361C202.6 43.8361 202.409 43.8601 202.178 43.9069V45.9586Z" fill="#57B33E"/>
<path d="M211.631 43.8319V45.7799H212.713C212.872 45.7799 213.001 45.7654 213.099 45.736C213.197 45.707 213.274 45.6639 213.33 45.6062C213.386 45.5486 213.425 45.4743 213.447 45.3835C213.469 45.2935 213.483 45.1864 213.49 45.0632H213.626V46.7783H213.49C213.472 46.6367 213.451 46.5193 213.428 46.425C213.404 46.3308 213.366 46.2561 213.313 46.2003C213.261 46.1439 213.187 46.1042 213.093 46.0808C212.999 46.0573 212.872 46.0457 212.713 46.0457H211.631V47.6737C211.631 47.7966 211.633 47.8942 211.636 47.9664C211.64 48.0385 211.654 48.0943 211.68 48.1319C211.705 48.1698 211.745 48.1946 211.799 48.2048C211.854 48.2159 211.933 48.2214 212.039 48.2214H212.876C213.017 48.2214 213.137 48.218 213.234 48.2104C213.332 48.2035 213.417 48.1891 213.487 48.1672C213.558 48.1459 213.62 48.1156 213.675 48.078C213.729 48.0401 213.787 47.9922 213.849 47.9343C213.993 47.7927 214.148 47.5666 214.311 47.256H214.458L214.028 48.4928H210.223V48.3575H210.397C210.444 48.3575 210.493 48.352 210.544 48.3409C210.595 48.3299 210.643 48.3149 210.688 48.2949C210.733 48.2749 210.774 48.2488 210.81 48.2159C210.846 48.1835 210.872 48.1459 210.886 48.1019C210.915 48.023 210.93 47.8634 210.93 47.625V44.4228C210.93 44.108 210.899 43.9151 210.837 43.8422C210.75 43.7445 210.603 43.6958 210.397 43.6958H210.223V43.5605H214.028V44.64H213.941C213.905 44.4626 213.866 44.3212 213.824 44.2138C213.783 44.1072 213.727 44.0249 213.658 43.9672C213.589 43.9096 213.501 43.8725 213.395 43.8559C213.288 43.8393 213.151 43.8319 212.984 43.8319H211.631Z" fill="#57B33E"/>
<path d="M27.7863 12.2145C27.0883 11.8937 26.262 12.1987 25.9405 12.8949C25.6189 13.5916 25.9242 14.4168 26.6221 14.7379C32.5712 17.4734 36.4153 23.464 36.4153 29.9999H39.1982C39.1982 22.3827 34.7189 15.402 27.7863 12.2145Z" fill="#57B33E"/>
<path d="M9.54719 43.474C8.93124 43.015 8.05926 43.1422 7.6002 43.7573C7.14088 44.3721 7.26797 45.2423 7.88418 45.7005C11.2877 48.2339 15.3362 49.5717 19.5922 49.5717V46.7944C15.94 46.7941 12.4663 45.646 9.54719 43.474Z" fill="#57B33E"/>
<path d="M39.2004 30H36.4176C36.4176 39.2607 28.8704 46.7944 19.5938 46.7944V49.5718C30.405 49.5718 39.2004 40.7923 39.2004 30Z" fill="#57B33E"/>
</svg>
