<svg width="168" height="60" viewBox="0 0 168 60" fill="none" xmlns="http://www.w3.org/2000/svg">
<path fill-rule="evenodd" clip-rule="evenodd" d="M25.1822 10.1156C28.7849 10.1156 32.2092 10.8777 35.3032 12.2484C35.0779 12.4085 34.9301 12.6711 34.9301 12.9669V17.7771C34.9301 18.262 35.3274 18.6582 35.8129 18.6582H36.4173H40.0481H40.6522C40.8732 18.6582 41.0763 18.5762 41.2311 18.4413V20.6254C41.2311 21.0491 41.5784 21.3958 42.0028 21.3958H45.7059C45.8245 21.3958 45.9369 21.3683 46.0373 21.3207C48.6478 25.2609 50.1688 29.9818 50.1688 35.0576C50.1688 48.8306 38.9794 60 25.1822 60C11.385 60 0.195312 48.8303 0.195312 35.0576C0.195644 21.285 11.385 10.1156 25.1822 10.1156ZM43.9039 14.723C43.6484 14.723 43.4393 14.9314 43.4393 15.1864V17.6047C43.4393 17.8597 43.6484 18.0681 43.9039 18.0681H45.9508C46.2059 18.0681 46.415 17.8597 46.415 17.6047V15.1864C46.415 14.9314 46.2059 14.723 45.9508 14.723H43.9039ZM37.2093 12.387C36.8709 12.387 36.5939 12.6635 36.5939 13.0016V16.355C36.5939 16.6934 36.8709 16.9696 37.2093 16.9696H40.1624C40.5007 16.9696 40.7781 16.6934 40.7781 16.355V13.0016C40.7781 12.6635 40.5007 12.387 40.1624 12.387H37.2093ZM41.2135 6.20211C40.8434 6.20211 40.5408 6.50377 40.5408 6.87325V10.5396C40.5408 10.9091 40.8434 11.2111 41.2135 11.2111H44.4417C44.8115 11.2111 45.1141 10.9091 45.1141 10.5396V6.87325C45.1141 6.50377 44.8115 6.20211 44.4417 6.20211H41.2135ZM36.6078 0H39.836C40.2062 0 40.5087 0.302001 40.5087 0.671481V4.33816C40.5087 4.70731 40.2062 5.00931 39.836 5.00931H36.6078C36.238 5.00931 35.9351 4.70731 35.9351 4.33816V0.671481C35.9351 0.302001 36.238 0 36.6078 0ZM46.031 3.74839H47.6451C47.8303 3.74839 47.9814 3.89923 47.9814 4.0838V5.91731C47.9814 6.10221 47.8303 6.25304 47.6451 6.25304H46.031C45.8457 6.25304 45.695 6.10221 45.695 5.91731V4.0838C45.695 3.89923 45.8457 3.74839 46.031 3.74839ZM46.5105 10.7487C46.2483 10.7487 46.0343 10.9623 46.0343 11.2233V13.818C46.0343 14.0793 46.2483 14.293 46.5105 14.293H48.7946C49.057 14.293 49.2708 14.0796 49.2708 13.818V11.2233C49.2708 10.962 49.057 10.7487 48.7946 10.7487H46.5105ZM8.95042 24.8838L8.9481 24.8868L8.94577 24.8905L8.94413 24.8938L8.94147 24.8967L8.93783 24.9034L8.93583 24.907L8.93352 24.91L8.92921 24.9166L8.92755 24.9196L8.83212 25.0717L8.83046 25.075L8.82781 25.0783L8.82615 25.0816L8.82384 25.085L8.82218 25.0879L8.81986 25.0912L8.8182 25.0942L8.81754 25.0945L8.81224 25.1038L8.76849 25.1782L8.71647 25.2659L8.71315 25.2715L8.71017 25.2771L8.70355 25.288L8.70023 25.2937L8.69692 25.299L8.69394 25.3046L8.69029 25.3102L8.68731 25.3158L8.68367 25.3211L8.68035 25.3271L8.67737 25.3321L8.67438 25.3377L8.67074 25.3436L8.66776 25.3489L8.66478 25.3545L8.6608 25.3602L8.65815 25.3655L8.65517 25.3707L8.65185 25.3767L8.64853 25.382C8.60413 25.4577 8.55973 25.5332 8.51731 25.6102L8.51367 25.6152L8.51102 25.6212L8.49743 25.6456C8.42486 25.7753 8.35296 25.905 8.28271 26.0369L8.21312 26.1686C8.00866 26.5592 7.81714 26.9585 7.63986 27.364L7.62826 27.3902C7.57822 27.5053 7.52851 27.6217 7.48046 27.7385L7.44202 27.8327C7.39928 27.9376 7.3572 28.0428 7.31677 28.1486L7.26276 28.2909C7.23061 28.3779 7.19814 28.4649 7.16666 28.5522L7.09376 28.7593L7.02152 28.9723C6.99335 29.0563 6.96618 29.1406 6.93868 29.2257L6.87738 29.4231C6.8502 29.5111 6.82402 29.5991 6.79851 29.6874L6.74946 29.8614C6.72163 29.959 6.69545 30.0566 6.6696 30.1548L6.63315 30.2954C6.60531 30.4052 6.57847 30.516 6.5523 30.6265L6.52413 30.7469C6.49762 30.8647 6.47144 30.9831 6.44659 31.1018L6.42572 31.2037C6.4002 31.332 6.37502 31.4607 6.35149 31.5901L6.33956 31.6589C6.3157 31.7928 6.29317 31.9261 6.27296 32.0608L6.26302 32.1243C6.2428 32.2586 6.22425 32.3935 6.20602 32.5291L6.19707 32.6029C6.17918 32.7441 6.16327 32.8857 6.14902 33.0273L6.14504 33.0617C6.1298 33.2086 6.11754 33.3564 6.10561 33.5043L6.1023 33.5503C6.09103 33.7018 6.0811 33.8536 6.07314 34.0054L6.07214 34.0226C6.06452 34.1791 6.05823 34.3365 6.05425 34.4936L6.05392 34.5059L6.05358 34.5224C6.04895 34.6812 6.04729 34.8393 6.04729 34.9987C6.04729 35.1592 6.04961 35.3183 6.05358 35.4774L6.05425 35.5078C6.0579 35.6573 6.06419 35.8065 6.07115 35.9553L6.0738 36.0043C6.08076 36.1383 6.08937 36.2716 6.09931 36.4045L6.10826 36.5279C6.11754 36.6404 6.12715 36.7522 6.13842 36.864L6.15963 37.0701L6.18448 37.2824C6.19707 37.3916 6.21132 37.5007 6.22623 37.6096L6.23286 37.6572L6.23982 37.7058L6.24678 37.7538C6.26301 37.8663 6.27991 37.9784 6.29847 38.0902L6.30642 38.1378C6.39092 38.6476 6.49497 39.151 6.61923 39.6458C6.68451 39.5314 6.75377 39.4189 6.82766 39.327C8.35892 37.4078 9.97004 36.0086 12.7194 35.2779C13.8958 34.966 14.8395 34.8323 14.8395 34.8323C12.8586 36.345 12.9378 37.6056 12.7499 39.9055C12.7499 39.9055 13.5856 38.2503 14.3024 37.4773C17.4524 34.0802 20.9225 33.0478 25.0616 35.4632C25.9122 35.959 26.3599 36.3734 26.3599 36.3734C26.3599 36.3734 25.5673 36.2008 24.5062 36.1793C20.9208 36.1072 18.9942 39.0273 18.2417 42.3334C18.1522 42.7264 18.0959 43.2408 18.0849 43.8256C17.911 52.8185 27.0379 54.8567 33.9973 51.9531C39.0546 49.3268 42.7895 44.5126 43.9423 38.768C45.858 27.6574 38.7491 16.6183 26.2549 15.9287L26.2389 15.9277L26.223 15.9267L26.0958 15.9207L26.0799 15.9197L26.0643 15.9191L26.0484 15.9184L25.8098 15.9092L25.7936 15.9085L25.7783 15.9082C25.7034 15.9058 25.6292 15.9042 25.5547 15.9029H25.5384L25.5229 15.9025C25.4089 15.9002 25.2955 15.8982 25.1812 15.8982C18.3381 15.8976 12.3324 19.4885 8.95042 24.8838Z" fill="#57B33E"/>
<path fill-rule="evenodd" clip-rule="evenodd" d="M26.3573 36.3699L26.3599 36.3725H26.3593L26.3576 36.3722V36.3719L26.3546 36.3715L26.3507 36.3702L26.3454 36.3695V36.3692L26.3391 36.3682L26.3235 36.3652V36.3646L26.3139 36.3629L26.3033 36.3613V36.3609L26.292 36.3593V36.3586L26.2794 36.3566L26.2658 36.354L26.2357 36.3484L26.2191 36.3454V36.3451L26.2015 36.3421L26.183 36.3388V36.3385L26.1432 36.3318L26.122 36.3279L26.0995 36.3242L26.0763 36.3203L26.0276 36.3123L26.0021 36.3084V36.308L25.9755 36.3037L25.948 36.2998L25.9199 36.2955L25.891 36.2912L25.8307 36.2826H25.8304L25.7989 36.2786L25.7337 36.27V36.2697L25.7002 36.2653L25.6657 36.261L25.6306 36.2571L25.5583 36.2485L25.5209 36.2445L25.4831 36.2402L25.4444 36.2362L25.4053 36.2319L25.3655 36.228L25.3251 36.224L25.284 36.2204L25.2426 36.2164L25.2005 36.2128H25.2001L25.1574 36.2091L25.1143 36.2058L25.0702 36.2025L25.0258 36.1995L24.9811 36.1965L24.9354 36.1936L24.8896 36.1909L24.8433 36.1886L24.7962 36.1863L24.7492 36.1843L24.7011 36.1827L24.6531 36.181L24.6043 36.1797L24.555 36.178L24.5056 36.1767C20.9198 36.1046 18.9939 39.0247 18.2411 42.3308L18.2367 42.3494L18.2328 42.3682L18.2285 42.3871L18.2245 42.4063L18.2205 42.4258L18.2169 42.445L18.2129 42.4648L18.2089 42.4843L18.2053 42.5045L18.2016 42.524V42.5247L18.1976 42.5445L18.194 42.565L18.1904 42.5855V42.5859L18.1867 42.6064L18.1834 42.6272L18.1798 42.6481L18.1764 42.6692L18.1731 42.6907L18.1698 42.7119L18.1668 42.7337L18.1638 42.7559L18.1609 42.7777V42.7781L18.1579 42.7999L18.1549 42.8224V42.8227L18.1519 42.8449L18.1489 42.8674L18.1463 42.8902L18.1436 42.9133V42.9137L18.141 42.9365L18.1383 42.9593L18.1357 42.9825L18.133 43.006L18.1307 43.0295L18.1304 43.0298L18.1281 43.0533L18.1257 43.0771H18.1254L18.1231 43.1012L18.1208 43.1254L18.1184 43.1495L18.1161 43.174L18.1141 43.1985L18.1122 43.2233L18.1105 43.2478V43.2484L18.1085 43.2732L18.1068 43.2984L18.1052 43.3238L18.1035 43.349L18.1019 43.3741V43.3748L18.1002 43.4003L18.0989 43.4257V43.4261L18.0976 43.4515L18.0959 43.4773L18.0949 43.5035L18.0936 43.5293L18.0923 43.5557L18.0909 43.5822L18.09 43.6086L18.089 43.6348V43.6354L18.088 43.6616L18.0873 43.6887L18.0863 43.7155L18.0856 43.7426L18.085 43.7701L18.0843 43.7972L18.0837 43.825C18.0807 43.9771 18.081 44.127 18.0833 44.2755C18.0843 44.3245 18.0863 44.3724 18.0876 44.421C18.0903 44.518 18.0933 44.6145 18.0982 44.7095C18.1012 44.7677 18.1055 44.8253 18.1092 44.8831C18.1148 44.9691 18.1211 45.0548 18.1287 45.1398C18.134 45.197 18.14 45.2543 18.146 45.3108C18.1546 45.3945 18.1645 45.4772 18.1751 45.5593C18.1824 45.6145 18.1897 45.6704 18.1973 45.7253C18.2092 45.8077 18.2225 45.889 18.2364 45.9701C18.2454 46.0213 18.2533 46.0726 18.2626 46.1236C18.2802 46.2182 18.2994 46.3111 18.3196 46.4037C18.3272 46.4385 18.3342 46.4738 18.3418 46.5089C18.3706 46.6349 18.4014 46.7586 18.4346 46.881C18.4429 46.9125 18.4531 46.9436 18.4621 46.975C18.4876 47.066 18.5138 47.1566 18.5419 47.2449C18.5565 47.2909 18.5724 47.3359 18.5877 47.3808C18.6119 47.453 18.6361 47.5247 18.6619 47.5952C18.6801 47.6445 18.699 47.6934 18.7176 47.7421C18.7431 47.8076 18.7689 47.8727 18.7954 47.9375C18.8153 47.9855 18.8359 48.0335 18.8564 48.0811C18.8849 48.1456 18.9141 48.2098 18.9439 48.2733C18.9644 48.3176 18.9853 48.3616 19.0068 48.4053C19.04 48.4734 19.0748 48.5402 19.1102 48.607C19.1298 48.6438 19.1487 48.6811 19.1686 48.7175C19.2083 48.7896 19.2494 48.8601 19.2905 48.9302C19.3091 48.9616 19.327 48.9941 19.3458 49.0255C19.4045 49.1217 19.4651 49.216 19.5271 49.3086C19.548 49.3401 19.5698 49.3702 19.5914 49.4009C19.6345 49.4631 19.6779 49.526 19.7226 49.5868C19.7511 49.6252 19.7809 49.6632 19.8098 49.7013C19.8495 49.7532 19.889 49.8051 19.9297 49.8557C19.9612 49.8944 19.993 49.9325 20.0248 49.9708C20.0659 50.0195 20.107 50.0674 20.1488 50.1151C20.1816 50.1521 20.2144 50.1892 20.2478 50.2256C20.2916 50.2732 20.336 50.3198 20.3807 50.3665C20.4135 50.4009 20.4467 50.4353 20.4801 50.4687C20.5245 50.5133 20.5703 50.5567 20.616 50.6003C20.6524 50.6351 20.6886 50.6705 20.726 50.7049C20.7721 50.7469 20.8194 50.7879 20.8665 50.8289C20.9334 50.8878 21.0014 50.9453 21.0706 51.0019C21.1203 51.0422 21.1694 51.0829 21.2197 51.1226C21.2612 51.155 21.3039 51.1858 21.346 51.2176C21.393 51.2526 21.4401 51.288 21.4878 51.3224C21.5322 51.3542 21.5773 51.3849 21.6223 51.416C21.6684 51.4471 21.7145 51.4789 21.7609 51.5096C21.8079 51.5404 21.856 51.5715 21.9037 51.6016C21.9501 51.6304 21.9965 51.6591 22.0435 51.6876C22.0929 51.7177 22.1426 51.7475 22.1923 51.7762C22.2374 51.8024 22.2828 51.8278 22.3288 51.8533C22.3812 51.8821 22.4335 51.9115 22.4866 51.9396C22.5313 51.9635 22.5767 51.986 22.6221 52.0094C22.6771 52.0372 22.7318 52.066 22.7878 52.0928C22.8126 52.1054 22.8381 52.1159 22.8633 52.1282C22.9952 52.1907 23.1294 52.2502 23.2649 52.3071C23.3031 52.323 23.3408 52.3399 23.3793 52.3551C23.4452 52.3819 23.5125 52.4067 23.5791 52.4328L23.6917 52.4752C23.762 52.5006 23.8326 52.5258 23.9035 52.5499L24.0066 52.5847C24.0791 52.6088 24.152 52.632 24.2253 52.6548L24.3276 52.6852C24.4029 52.7077 24.4788 52.7295 24.5546 52.7507L24.6431 52.7739C24.725 52.7957 24.8068 52.8172 24.8893 52.8367L24.9165 52.843C25.2104 52.9131 25.5093 52.972 25.8125 53.0206L25.8679 53.0296C25.9543 53.0428 26.0412 53.055 26.128 53.0666L26.2148 53.0782C26.3003 53.0888 26.3868 53.099 26.4729 53.1083L26.5564 53.1169C26.6466 53.1262 26.737 53.1341 26.8275 53.1414L26.8921 53.146C26.9899 53.1536 27.0876 53.1602 27.186 53.1655L27.1943 53.1658C27.7484 53.1953 28.311 53.191 28.8764 53.1549L28.9048 53.1536C29.0145 53.1463 29.1246 53.1381 29.2342 53.1281L29.2438 53.1275C31.9554 52.8893 34.7131 51.9211 36.9439 50.3218C38.1345 49.4681 39.3188 48.3858 40.3762 47.0451C38.3234 50.8487 33.9765 53.7659 28.9473 54.269C21.9401 54.9706 16.2578 50.7211 16.2578 44.7799C16.2578 39.3816 18.7149 34.579 26.2005 36.2386L26.2025 36.2399L26.2052 36.2422L26.2098 36.2465L26.2145 36.2505L26.2161 36.2518L26.2191 36.2541L26.2237 36.2581L26.228 36.262L26.229 36.2627L26.2327 36.2657L26.237 36.2693L26.2413 36.273L26.2416 36.2733L26.2453 36.2763L26.2493 36.2802L26.2536 36.2835L26.2575 36.2869L26.2615 36.2902L26.2648 36.2931L26.2655 36.2935L26.2691 36.2968L26.2728 36.3001L26.2754 36.3024L26.2764 36.3031L26.2797 36.306L26.2831 36.309L26.2854 36.311L26.2867 36.312L26.29 36.3146L26.2933 36.3176L26.295 36.3189L26.2963 36.3203L26.2996 36.3229L26.3026 36.3252L26.3039 36.3265L26.3056 36.3279L26.3082 36.3302L26.3112 36.3328L26.3119 36.3332L26.3139 36.3351L26.3165 36.3371L26.3188 36.3391L26.3192 36.3398L26.3212 36.3414L26.3235 36.3431L26.3258 36.3454H26.3261L26.3281 36.3474L26.3304 36.3487L26.3324 36.3504V36.3507L26.3364 36.354L26.3377 36.3557L26.3397 36.357L26.3414 36.3586L26.3424 36.3596L26.3427 36.36L26.3444 36.3613L26.3457 36.3626L26.3467 36.3633L26.347 36.3643L26.3483 36.3652L26.3507 36.3676L26.3517 36.3686L26.3526 36.3695H26.353L26.3536 36.3705L26.3543 36.3712L26.3573 36.3699Z" fill="#57B33E"/>
<path fill-rule="evenodd" clip-rule="evenodd" d="M46.6297 31.469C46.8424 32.6856 46.9541 33.937 46.9541 35.2135C46.9541 35.3954 46.9515 35.5763 46.9471 35.7569V35.7741L46.9458 35.8138C46.9418 35.968 46.9355 36.1211 46.9283 36.2743L46.9216 36.4029C46.9147 36.5293 46.9064 36.6553 46.8974 36.7814L46.8802 37.0023L46.8769 37.0413L46.8736 37.0807L46.8597 37.2372L46.8557 37.2765C46.8444 37.3913 46.8332 37.5058 46.8206 37.6202L46.8192 37.6285L46.8149 37.6675L46.8057 37.7456C44.269 43.3622 41.6264 46.5387 39.2812 48.3007C39.387 48.1853 39.4943 48.0642 39.6017 47.9385C41.3377 46.0055 42.59 43.7046 43.3528 41.235C43.5234 40.7051 43.6656 40.1705 43.7726 39.6386C43.9065 39.0264 44.0115 38.4071 44.0878 37.7833L44.1063 37.6288C44.1143 37.5577 44.1226 37.4862 44.1299 37.4148C44.2584 36.2151 44.2829 35.0213 44.2084 33.8464L44.279 33.8272C44.1802 32.2001 43.876 30.6285 43.3942 29.1367C44.056 29.3388 44.6769 29.7219 45.2449 30.0831L45.2555 30.09H45.2558L45.2641 30.095L45.2936 30.1138L45.2996 30.1175L45.3079 30.1228L45.3311 30.1377L45.3347 30.1396L45.3596 30.1555L45.3685 30.1611L45.3702 30.1618L45.405 30.1843L45.4059 30.1846L45.4112 30.1879L45.4398 30.2065L45.4427 30.2081L45.4623 30.2207L45.4739 30.2283L45.4795 30.2313L45.5087 30.2501L45.513 30.2531L45.5163 30.2551L45.5431 30.272L45.5527 30.2782L45.5637 30.2852L45.5773 30.2938L45.5892 30.3007L45.6114 30.315L45.6137 30.3169L45.6253 30.3239L45.6452 30.3361L45.6611 30.3464L45.6638 30.3477L45.6793 30.357L45.6969 30.3682L45.7128 30.3781L45.7135 30.3785L45.7327 30.3904L45.7463 30.399L45.7625 30.4086L45.7681 30.4125L45.7794 30.4192L45.8036 30.4337L45.8119 30.4383L45.8132 30.4397L45.8391 30.4552L45.846 30.4595L45.8606 30.4678L45.8738 30.476L45.8791 30.479L45.9086 30.4966L45.909 30.4969L45.912 30.4985L45.9434 30.5174L45.9441 30.5177L45.9567 30.525L45.9766 30.5366L45.9779 30.5379L46.0044 30.5528L46.0087 30.5551L46.012 30.5574L46.0409 30.574L46.0462 30.5773L46.0511 30.5802L46.0727 30.5922L46.0982 30.606L46.1045 30.61L46.1138 30.615L46.1363 30.6269L46.1452 30.6318L46.1476 30.6332L46.1678 30.6444L46.1906 30.6566L46.2301 30.6772L46.2367 30.6808L46.247 30.6864L46.2612 30.6937L46.2801 30.703L46.2824 30.7043L46.2861 30.7056L46.2894 30.7076L46.292 30.7089L46.293 30.7096L46.2963 30.7112L46.3 30.7132L46.3036 30.7149L46.3073 30.7162L46.3109 30.7182L46.3146 30.7195L46.3179 30.7215L46.3212 30.7231L46.3228 30.7238L46.3248 30.7245L46.3275 30.7264H46.3282L46.3318 30.7278L46.3354 30.7294L46.3391 30.7311L46.3427 30.7327L46.3464 30.7347L46.3497 30.736L46.3533 30.7377L46.3537 30.738L46.3567 30.7393L46.3603 30.7407L46.3636 30.7423L46.3673 30.744L46.3709 30.7453L46.3729 30.7466L46.3745 30.7473L46.3779 30.7486L46.3812 30.7503L46.3841 30.7516L46.3918 30.7552L46.3941 30.7562L46.3961 30.7569L46.3981 30.7582L46.3997 30.7592L46.4014 30.7599L46.4037 30.7608L46.4057 30.7618L46.4073 30.7628L46.4093 30.7638L46.4113 30.7648L46.4133 30.7658L46.415 30.7668L46.4173 30.7675L46.418 30.7685L46.4189 30.7688L46.4209 30.7694L46.4229 30.7708L46.4249 30.7718L46.4266 30.7724L46.4286 30.7734L46.4305 30.7744L46.4322 30.7754L46.4342 30.7764L46.4362 30.7771L46.4378 30.7784L46.4398 30.7794L46.4418 30.78L46.4435 30.781L46.4458 30.782L46.4474 30.783L46.4494 30.784L46.4511 30.7847L46.4527 30.786L46.4547 30.7866L46.4567 30.7876L46.4587 30.789L46.4607 30.7896L46.462 30.7903L46.4624 30.7906L46.4643 30.7913L46.466 30.7923L46.4683 30.7933L46.4703 30.7943L46.472 30.7952L46.4739 30.7959L46.4759 30.7972L46.4776 30.7979L46.4796 30.7989L46.4812 30.7999L46.4836 30.8009L46.4852 30.8019L46.4872 30.8025L46.4889 30.8032L46.4909 30.8042L46.4928 30.8055L46.4945 30.8062L46.4965 30.8068L46.4985 30.8075L46.4991 30.8078L46.5005 30.8088L46.5021 30.8098L46.5041 30.8105L46.5061 30.8111V30.8115L46.5081 30.8217L46.5104 30.8316L46.5124 30.8422L46.5144 30.8521L46.5164 30.8621L46.5184 30.8727L46.5207 30.8826L46.5227 30.8932L46.5247 30.9034L46.527 30.9137L46.529 30.9239L46.531 30.9345L46.5329 30.9444L46.5353 30.9547L46.5392 30.9752L46.5409 30.9854L46.5419 30.9894L46.5435 30.996V30.997L46.5449 31.005V31.0063L46.5462 31.0129L46.5472 31.0172L46.5479 31.0205L46.5492 31.0275V31.0278L46.5505 31.0354L46.5508 31.038L46.5518 31.0427L46.5528 31.0486L46.5532 31.0503L46.5545 31.0576L46.5548 31.0589L46.5561 31.0655L46.5568 31.0688L46.5578 31.0731L46.5588 31.0794V31.0804L46.5608 31.0877V31.0893L46.5618 31.0956L46.5628 31.0996L46.5631 31.1032L46.5644 31.1101V31.1105L46.5661 31.1181L46.5667 31.1201L46.5674 31.1254L46.5687 31.1307L46.5691 31.133L46.5704 31.1402V31.1409L46.5717 31.1479L46.5727 31.1512L46.573 31.1551L46.5744 31.1618V31.1631L46.5757 31.1704L46.576 31.172L46.5773 31.178L46.578 31.1819L46.5783 31.1852L46.58 31.1922V31.1928L46.5813 31.2001L46.5816 31.2028L46.5826 31.2081L46.5856 31.2229L46.586 31.2233L46.5869 31.2302L46.5896 31.2441L46.5903 31.2421L46.5916 31.2501L46.5923 31.2514L46.5929 31.2573L46.5959 31.2719V31.2722L46.5972 31.2802L46.5976 31.2825L46.5985 31.2874L46.6012 31.3023V31.3027L46.6025 31.3099L46.6038 31.3176L46.6048 31.3232L46.6052 31.3248L46.6065 31.3324L46.6068 31.3338L46.6092 31.3437L46.6098 31.3473L46.6111 31.3543V31.3553L46.6128 31.3622L46.6141 31.3698L46.6151 31.3751V31.3778L46.6164 31.385L46.6168 31.3854L46.6191 31.3999L46.6201 31.4059L46.6204 31.4078L46.6217 31.4148V31.4158L46.6231 31.4227L46.6237 31.4267L46.6244 31.4303L46.6254 31.437V31.4379L46.627 31.4456V31.4472L46.628 31.4532L46.6287 31.4575L46.6294 31.4604L46.6307 31.4681H46.6297V31.469Z" fill="#57B33E"/>
<path fill-rule="evenodd" clip-rule="evenodd" d="M20.9965 46.0544C20.9564 41.8882 24.2097 41.441 25.3099 41.9379C26.41 42.4353 24.9282 43.5021 24.342 43.866C23.7554 44.2295 23.204 44.4012 22.8246 44.5798C22.4455 44.7584 21.6078 45.4064 21.3888 45.9089C21.1698 46.4113 21.1045 46.6928 21.1045 46.6928L20.9965 46.0544ZM23.0042 40.0756C26.1221 35.4903 30.0193 37.4617 30.8448 38.8375C31.6699 40.2125 29.2403 40.2592 28.323 40.2125C27.4058 40.1669 26.6722 39.9373 26.1224 39.846C25.572 39.7544 24.1647 39.8291 23.5437 40.2125C22.9227 40.5962 22.6381 40.8546 22.6381 40.8546L23.0042 40.0756Z" fill="#57B33E"/>
<path fill-rule="evenodd" clip-rule="evenodd" d="M65.1637 31.1005V28.8225H55.6875V31.1005H59.1261V39.421H61.725V31.1005H65.1637ZM74.6716 37.1746H69.0145V35.1817H74.1646V33.0621H69.0145V31.0688H74.6243V28.8225H66.3997V39.4206H74.6713V37.1746H74.6716ZM84.2111 34.9445C83.8466 36.526 82.769 37.2854 81.4223 37.2854C79.7426 37.2854 78.3956 35.9253 78.3956 34.1215C78.3956 32.3185 79.7426 30.9742 81.4223 30.9742C82.7849 30.9742 83.8625 31.7174 84.1955 33.2516L86.7623 32.6506C86.2556 30.1353 84.0368 28.5853 81.4223 28.5853C78.269 28.5853 75.7811 31.0211 75.7811 34.1212C75.7811 37.2375 78.269 39.6581 81.4223 39.6581C84.1478 39.6581 86.2871 38.1078 86.7786 35.4503L84.2111 34.9445ZM97.9348 28.8228H95.3358V32.9512H90.867V28.8228H88.2525V39.421H90.867V35.2293H95.3358V39.421H97.9348V28.8228ZM109.93 28.8228H107.331V35.1499L101.959 28.8228H99.7888V39.421H102.403V33.2837L107.775 39.421H109.93L109.93 28.8228ZM117.077 28.5856C113.907 28.5856 111.419 31.0374 111.419 34.1378C111.419 37.2223 113.907 39.6585 117.077 39.6585C120.246 39.6585 122.734 37.2223 122.734 34.1378C122.734 31.0374 120.246 28.5856 117.077 28.5856ZM117.077 37.2699C115.35 37.2699 114.034 35.9408 114.034 34.1378C114.034 32.3185 115.35 30.9742 117.077 30.9742C118.804 30.9742 120.119 32.3185 120.119 34.1378C120.119 35.9408 118.804 37.2699 117.077 37.2699ZM132.052 37.1432H126.822V28.8225H124.208V39.4206H132.052V37.1432ZM138.485 28.5856C135.316 28.5856 132.828 31.0374 132.828 34.1378C132.828 37.2223 135.316 39.6585 138.485 39.6585C141.655 39.6585 144.143 37.2223 144.143 34.1378C144.143 31.0374 141.655 28.5856 138.485 28.5856ZM138.485 37.2699C136.758 37.2699 135.443 35.9408 135.443 34.1378C135.443 32.3185 136.758 30.9742 138.485 30.9742C140.213 30.9742 141.528 32.3185 141.528 34.1378C141.528 35.9408 140.213 37.2699 138.485 37.2699ZM150.56 33.1725V35.3871H153.809C153.412 36.5574 152.399 37.2851 151.004 37.2851C149.229 37.2851 147.882 35.9249 147.882 34.1212C147.882 32.334 149.197 30.9739 150.925 30.9739C151.955 30.9739 152.969 31.2901 153.587 32.4921L156.106 31.7644C155.362 29.6924 153.286 28.585 150.924 28.585C147.739 28.585 145.251 31.0208 145.251 34.1209C145.251 37.2372 147.755 39.6578 150.972 39.6578C154.173 39.6578 156.47 37.348 156.47 34.1371C156.47 33.8678 156.455 33.5516 156.407 33.1719H150.56V33.1725ZM163.015 36.0989V39.421H160.353V36.1307L156.249 28.8228H159.102L161.716 33.4736L164.299 28.8228H167.214L163.015 36.0989Z" fill="#57B33E"/>
<path fill-rule="evenodd" clip-rule="evenodd" d="M60.6707 44.1778C60.4105 44.1778 60.1971 44.2307 60.0305 44.3363C59.8638 44.4424 59.7803 44.6025 59.7803 44.8166C59.7803 45.0309 59.8638 45.1946 60.0305 45.3081C60.1971 45.4216 60.5517 45.5439 61.0948 45.6753C61.6376 45.8062 62.0468 45.9902 62.3219 46.2273C62.5972 46.4642 62.7348 46.8131 62.7348 47.2742C62.7348 47.7357 62.5605 48.1098 62.2122 48.3972C61.8636 48.6847 61.4066 48.8286 60.841 48.8286C60.0129 48.8286 59.2779 48.5434 58.6367 47.9742L59.1971 47.301C59.7322 47.7645 60.2879 47.9967 60.8635 47.9967C61.1515 47.9967 61.3801 47.9348 61.5491 47.8114C61.7181 47.6877 61.803 47.524 61.803 47.3199C61.803 47.1158 61.7234 46.957 61.5644 46.8432C61.4053 46.7298 61.1313 46.6266 60.7426 46.5336C60.3535 46.44 60.058 46.3547 59.8558 46.2763C59.654 46.1982 59.4748 46.0963 59.3183 45.97C59.0052 45.7328 58.8485 45.3699 58.8485 44.8811C58.8485 44.3922 59.0264 44.0151 59.3826 43.7508C59.7385 43.4862 60.1796 43.3535 60.7045 43.3535C61.0431 43.3535 61.3788 43.4088 61.7118 43.5196C62.0452 43.6304 62.3331 43.7868 62.5754 43.9886L62.0982 44.6618C61.9415 44.5205 61.7297 44.4044 61.462 44.3138C61.1946 44.2235 60.9308 44.1778 60.6707 44.1778ZM69.2405 48.768V43.4819H70.1346V47.9209H72.5512V48.768H69.2405ZM82.7044 44.7296C82.3432 44.3564 81.8998 44.1702 81.375 44.1702C80.8497 44.1702 80.4064 44.3568 80.0455 44.7296C79.6843 45.103 79.5037 45.5555 79.5037 46.0871C79.5037 46.619 79.6843 47.0715 80.0455 47.4446C80.4064 47.8177 80.8497 48.0039 81.375 48.0039C81.9002 48.0039 82.3432 47.8174 82.7044 47.4446C83.0653 47.0715 83.2459 46.619 83.2459 46.0871C83.2462 45.5555 83.0656 45.1027 82.7044 44.7296ZM83.3599 48.0383C82.8244 48.5597 82.163 48.8206 81.375 48.8206C80.587 48.8206 79.9255 48.5597 79.39 48.0383C78.8549 47.5167 78.5871 46.8661 78.5871 46.0871C78.5871 45.3081 78.8549 44.6578 79.39 44.1361C79.9255 43.6142 80.587 43.3538 81.375 43.3538C82.163 43.3538 82.8244 43.6145 83.3599 44.1361C83.8953 44.6581 84.1631 45.3084 84.1631 46.0871C84.1631 46.8661 83.895 47.5167 83.3599 48.0383ZM94.3577 46.1972H95.2514V48.0043C94.7517 48.5537 94.0369 48.8289 93.1077 48.8289C92.3247 48.8289 91.6696 48.5716 91.1414 48.0575C90.6138 47.5432 90.3501 46.8929 90.3501 46.1063C90.3501 45.32 90.6195 44.6647 91.1573 44.1404C91.6951 43.6158 92.3453 43.3538 93.1081 43.3538C93.8706 43.3538 94.5041 43.5758 95.0095 44.0191L94.532 44.7001C94.3252 44.5238 94.1168 44.4014 93.9073 44.3333C93.6976 44.2651 93.4537 44.2311 93.176 44.2311C92.6408 44.2311 92.1915 44.4041 91.828 44.7491C91.4645 45.0944 91.2822 45.5479 91.2822 46.1106C91.2822 46.6726 91.4592 47.1237 91.8127 47.4638C92.1663 47.8042 92.5944 47.9745 93.0968 47.9745C93.5992 47.9745 94.0193 47.866 94.358 47.6494L94.3577 46.1972ZM102.576 47.5653L102.045 48.7677H101.091L103.424 43.4815H104.378L106.712 48.7677H105.757L105.227 47.5653H102.576ZM104.863 46.7414L103.901 44.5635L102.939 46.7414H104.863ZM116.816 43.4819H117.71V48.768H116.74L113.74 44.9115V48.768H112.846V43.4819H113.74L116.816 47.4297V43.4819ZM126.655 48.768V43.4819H127.549V45.7732H130.177V43.4819H131.071V48.768H130.177V46.6054H127.549V48.768H126.655ZM141.66 43.4819V44.3214H138.835V45.7206H141.373V46.5148H138.835V47.9289H141.751V48.768H137.941V43.4819H141.66ZM152.522 45.1986C152.522 46.0709 152.141 46.6203 151.378 46.8469L152.764 48.7677H151.628L150.362 46.9904H149.188V48.7677H148.294V43.4815H150.264C151.072 43.4815 151.65 43.6178 151.999 43.8904C152.348 44.1626 152.522 44.5986 152.522 45.1986ZM150.302 46.1813C150.807 46.1813 151.151 46.1033 151.333 45.9468C151.515 45.7907 151.605 45.54 151.605 45.1943C151.605 44.8493 151.512 44.6121 151.325 44.4841C151.138 44.3551 150.805 44.2913 150.325 44.2913H149.189V46.1813H150.302ZM162.929 43.4819V44.3214H160.103V45.7206H162.641V46.5148H160.103V47.9289H163.02V48.768H159.209V43.4819H162.929Z" fill="#57B33E"/>
</svg>
