<svg width="44" height="50" viewBox="0 0 44 50" fill="none" xmlns="http://www.w3.org/2000/svg">
<path d="M0.986672 50H8.11021H26.4322H33.5557C34.1091 50 34.5619 49.55 34.5619 49V39.57C34.5619 34.37 30.3059 30.13 25.0638 30.13H22.1359C24.9733 27.78 26.8749 23.74 26.8749 20.18V17.69H28.9979C29.5513 17.69 30.004 17.24 30.004 16.69V13.29C30.004 12.74 29.5513 12.29 28.9979 12.29H28.0119C27.6496 8.47 25.2449 5.09 21.7536 3.45L22.1359 1.16C22.1862 0.87 22.1058 0.57 21.9146 0.35C21.7234 0.13 21.4417 0 21.1499 0H13.0102C12.7184 0 12.4367 0.13 12.2455 0.35C12.0543 0.57 11.9738 0.87 12.0241 1.16L12.4065 3.45C8.91513 5.1 6.51043 8.48 6.15828 12.29H5.17226C4.61887 12.29 4.16611 12.74 4.16611 13.29V16.69C4.16611 17.24 4.61887 17.69 5.17226 17.69H7.30529V20.18C7.30529 23.74 9.20692 27.78 12.0443 30.13H9.4987C4.26672 30.13 0.000645855 34.36 0.000645855 39.57V49C-0.0194771 49.55 0.43329 50 0.986672 50ZM9.11636 48V41.5H25.4261V48H9.11636ZM32.5496 39.57V48H27.4383V40.5C27.4383 39.95 26.9856 39.5 26.4322 39.5H24.8022V32.13H25.0638C29.1991 32.14 32.5496 35.47 32.5496 39.57ZM6.16834 14.29H7.11412C7.66751 14.29 8.12027 13.84 8.12027 13.29C8.12027 10.04 9.94141 7.05 12.7586 5.5L13.2215 8.24C13.312 8.78 13.8352 9.15 14.3785 9.06C14.9218 8.97 15.2941 8.45 15.2036 7.91L14.1974 2H19.9627L18.9666 7.91C18.876 8.45 19.2483 8.97 19.7916 9.06C19.852 9.07 19.9023 9.07 19.9627 9.07C20.4456 9.07 20.8682 8.72 20.9587 8.24L21.4216 5.5C24.2287 7.05 26.0599 10.04 26.0599 13.29C26.0599 13.84 26.5127 14.29 27.0661 14.29H28.0018V15.69H6.16834V14.29ZM9.29747 20.19V17.7H24.8525V20.19C24.8525 24.58 21.1902 30.14 17.075 30.14C12.9599 30.14 9.29747 24.57 9.29747 20.19ZM22.7899 32.14V39.51H11.7525V32.14H22.7899ZM1.99282 39.57C1.99282 35.47 5.35336 32.13 9.47858 32.13H9.74018V39.5H8.11021C7.55683 39.5 7.10406 39.95 7.10406 40.5V48H1.99282V39.57Z" fill="white"/>
<path d="M39.5427 10.5301C39.5427 10.0801 39.2307 9.68005 38.7981 9.56005C38.3554 9.44005 37.8926 9.64005 37.6612 10.03L31.3425 21.0401C31.1614 21.3501 31.1715 21.7301 31.3425 22.0401C31.5236 22.3501 31.8557 22.5401 32.2078 22.5401H35.3671L35.2464 29.7401C35.2363 30.2001 35.5482 30.6 35.9909 30.7201C36.0815 30.7401 36.172 30.76 36.2525 30.76C36.6047 30.76 36.9468 30.57 37.1279 30.25L43.8691 18.4001C44.0502 18.09 44.0401 17.71 43.859 17.4C43.6779 17.09 43.3459 16.9 42.9937 16.9H39.5326V10.5301H39.5427ZM41.2732 18.9001L37.3291 25.83L37.3996 21.55C37.3996 21.28 37.2989 21.0201 37.1078 20.8301C36.9166 20.6401 36.6651 20.5301 36.3934 20.5301H33.9485L37.5203 14.3V17.9001C37.5203 18.4501 37.9731 18.9001 38.5264 18.9001H41.2732Z" fill="white"/>
</svg>
