<svg width="104" height="24" viewBox="0 0 104 24" fill="none" xmlns="http://www.w3.org/2000/svg">
<path d="M89 6C89 6 95 10.4189 95 12C95 13.5812 89 18 89 18" stroke="white" stroke-width="1.5" stroke-linecap="round" stroke-linejoin="round"/>
<path d="M15 6C15 6 9.00001 10.4189 9 12C8.99999 13.5812 15 18 15 18" stroke="white" stroke-width="1.5" stroke-linecap="round" stroke-linejoin="round"/>
<path d="M35.4708 17V15.648H37.8948C38.7374 15.648 39.3694 15.4187 39.7908 14.96C40.2174 14.5013 40.4308 13.8453 40.4308 12.992V10.768C40.4308 9.90933 40.2174 9.25333 39.7908 8.8C39.3694 8.34133 38.7374 8.112 37.8948 8.112H35.4628V6.776H37.9508C39.3054 6.776 40.3268 7.12 41.0148 7.808C41.7028 8.49067 42.0468 9.47467 42.0468 10.76V13C42.0468 14.2853 41.7028 15.2747 41.0148 15.968C40.3268 16.656 39.3054 17 37.9508 17H35.4708ZM34.3748 17V6.776H35.9588V17H34.3748ZM50.1533 17L49.8813 14.928C49.8333 14.5493 49.7479 14.2267 49.6253 13.96C49.5079 13.688 49.3239 13.4773 49.0733 13.328C48.8226 13.1787 48.4733 13.104 48.0253 13.104L45.3613 13.096V11.832L48.1933 11.824C48.8493 11.824 49.3186 11.6667 49.6013 11.352C49.8839 11.0373 50.0253 10.6 50.0253 10.04V9.816C50.0253 9.26667 49.8813 8.84267 49.5933 8.544C49.3053 8.24533 48.8279 8.096 48.1613 8.096H45.3293V6.776H48.3853C49.5213 6.776 50.3479 7.01867 50.8653 7.504C51.3879 7.98933 51.6493 8.66667 51.6493 9.536V9.792C51.6493 10.4373 51.4999 10.9653 51.2013 11.376C50.9079 11.7867 50.4146 12.0453 49.7213 12.152V12.36L49.0493 12.128C49.6413 12.1707 50.0973 12.2987 50.4173 12.512C50.7426 12.7253 50.9799 13.0187 51.1293 13.392C51.2786 13.7653 51.3933 14.2187 51.4733 14.752L51.8173 17H50.1533ZM44.2573 17V6.776H45.8333V12.272L45.8413 12.872V17H44.2573ZM53.0741 17L56.2101 6.776H58.6981L61.8341 17H60.2101L57.5541 7.848H57.3541L54.6981 17H53.0741ZM55.1221 14.144V12.816H59.7701V14.144H55.1221ZM66.5187 17.208C65.7401 17.208 65.0867 17.0507 64.5587 16.736C64.0361 16.416 63.6414 15.9547 63.3747 15.352C63.1134 14.744 62.9827 14.0107 62.9827 13.152V10.84C62.9827 9.46933 63.3401 8.416 64.0547 7.68C64.7747 6.944 65.8307 6.576 67.2227 6.576C67.7027 6.576 68.1401 6.61333 68.5347 6.688C68.9294 6.76267 69.2814 6.85867 69.5907 6.976C69.9054 7.09333 70.1748 7.21867 70.3988 7.352L70.5428 8.784C70.1694 8.56533 69.7321 8.37333 69.2308 8.208C68.7294 8.03733 68.1561 7.952 67.5107 7.952C66.5294 7.952 65.8014 8.20267 65.3267 8.704C64.8521 9.2 64.6147 9.92267 64.6147 10.872V13.144C64.6147 14.0027 64.8147 14.6667 65.2147 15.136C65.6147 15.6 66.2227 15.832 67.0387 15.832C67.4387 15.832 67.7827 15.7653 68.0707 15.632C68.3641 15.4987 68.6041 15.32 68.7908 15.096C68.9774 14.872 69.1134 14.6267 69.1988 14.36V11.976L69.4387 12.536H67.1747V11.208H70.7668V15.4L69.1747 15.392C69.0894 15.7173 68.9454 16.0187 68.7427 16.296C68.5454 16.5733 68.2654 16.7947 67.9028 16.96C67.5454 17.1253 67.0841 17.208 66.5187 17.208ZM69.2708 14.888H70.7668V17H69.1988L69.2708 14.888Z" fill="white"/>
</svg>
