<svg width="40" height="40" viewBox="0 0 40 40" fill="none" xmlns="http://www.w3.org/2000/svg">
<g clip-path="url(#clip0_1019_1552)">
<path d="M20 25.9375C20.4312 25.9375 20.7812 25.5875 20.7812 25.1562C20.7812 24.725 20.4312 24.375 20 24.375C19.5688 24.375 19.2188 24.725 19.2188 25.1562C19.2188 25.5875 19.5688 25.9375 20 25.9375Z" fill="#FFFA84"/>
<path d="M30.051 21.8243C29.9134 21.5863 29.6604 21.4383 29.3854 21.4343C29.3818 21.4343 29.3784 21.4343 29.3747 21.4343C29.1037 21.4343 28.852 21.575 28.7094 21.806L25.7056 26.6873L20.7813 18.6853V9.375H32.5C32.8003 9.375 33.0741 9.20288 33.2041 8.93219C33.3344 8.6615 33.2978 8.34015 33.1101 8.10577L30.3754 4.6875L33.1101 1.26923C33.2978 1.03485 33.3344 0.713501 33.2041 0.44281C33.0741 0.172119 32.8003 0 32.5 0H20C19.5685 0 19.2188 0.349731 19.2188 0.78125V18.6853L14.2945 26.6876L11.2903 21.806C11.1463 21.572 10.8905 21.4307 10.6147 21.4343C10.3394 21.438 10.0867 21.5863 9.94877 21.8243L0.105019 38.8272C-0.0347516 39.0692 -0.0350568 39.3671 0.104409 39.6091C0.243874 39.8511 0.502053 40 0.781288 40H39.2188C39.498 40 39.7562 39.8511 39.8957 39.6091C40.0351 39.3671 40.0348 39.0689 39.8948 38.8272L30.051 21.8243ZM14.9695 28.5715C14.9704 28.5699 14.9714 28.5687 14.9723 28.5672L20 20.397L31.1017 38.4375H8.89805L14.9695 28.5715ZM28.765 4.19952C28.5367 4.48486 28.5367 4.89014 28.765 5.17548L30.8744 7.8125H20.7813V1.5625H30.8744L28.765 4.19952ZM10.6455 23.7393L13.3771 28.1781L7.06333 38.4375H2.13627L10.6455 23.7393ZM32.9364 38.4375L26.623 28.1778L29.3546 23.7393L37.8638 38.4375H32.9364Z" fill="#FFFA84"/>
<path d="M26.2423 36.5032C26.4685 36.8709 26.9497 36.985 27.3172 36.7589C27.6846 36.5328 27.7993 36.0518 27.5729 35.6844L22.4292 27.3256C22.2033 26.9582 21.7221 26.8434 21.3543 27.0696C20.9869 27.296 20.8724 27.777 21.0986 28.1444L26.2423 36.5032Z" fill="#FFFA84"/>
</g>
<defs>
<clipPath id="clip0_1019_1552">
<rect width="40" height="40" fill="white"/>
</clipPath>
</defs>
</svg>
