<svg width="40" height="40" viewBox="0 0 40 40" fill="none" xmlns="http://www.w3.org/2000/svg">
<g clip-path="url(#clip0_1019_1524)">
<path d="M20.0668 13.9552C20.6174 13.9552 21.0632 13.509 21.0632 12.9588C21.0632 12.4086 20.6174 11.9624 20.0668 11.9624C15.6647 11.9624 12.0959 15.5311 12.0959 19.9336C12.0959 24.3357 15.6647 27.9045 20.0668 27.9045C24.4693 27.9045 28.038 24.3357 28.038 19.9336C28.038 19.383 27.5918 18.9372 27.0416 18.9372C26.4914 18.9372 26.0452 19.383 26.0452 19.9336C26.0452 23.2353 23.3688 25.912 20.0668 25.912C16.7651 25.912 14.0884 23.2353 14.0884 19.9336C14.0884 16.6316 16.7651 13.9552 20.0668 13.9552Z" fill="#FFFA84"/>
<path d="M39.078 14.0152C38.905 13.4924 38.341 13.2089 37.8179 13.382C37.3071 13.551 37.0226 14.0948 37.1749 14.6109C40.1547 24.0997 34.8782 34.2074 25.3894 37.1872C15.9008 40.1669 5.79313 34.8904 2.8134 25.4016C-0.166636 15.9128 5.11015 5.80506 14.5987 2.82533C18.1112 1.72243 21.8771 1.72243 25.3894 2.82533C25.9167 2.98433 26.473 2.68586 26.632 2.15852C26.7886 1.63911 26.5014 1.0901 25.9854 0.922256C15.4492 -2.3834 4.22789 3.4781 0.92223 14.0146C-2.38343 24.5508 3.47838 35.7721 14.0146 39.0777C24.551 42.3834 35.772 36.5219 39.0777 25.9854C40.3002 22.0889 40.3002 17.9117 39.078 14.0152Z" fill="#FFFA84"/>
<path d="M21.9644 7.11853C21.9696 6.55121 21.5338 6.07697 20.968 6.03455C20.6705 6.00922 20.3726 5.98389 20.0671 5.98389C12.363 5.98389 6.11755 12.2293 6.11755 19.9335C6.11755 27.6373 12.363 33.8827 20.0671 33.8827C27.771 33.8827 34.0164 27.6373 34.0164 19.9335C34.0164 19.573 33.9944 19.2129 33.9502 18.8553C33.8705 18.3084 33.3627 17.9297 32.8158 18.0093C32.2689 18.0887 31.8902 18.5968 31.9696 19.1437C31.9726 19.1644 31.9763 19.1849 31.9806 19.2056C32.0022 19.447 32.0236 19.6863 32.0236 19.9328C32.0239 26.5365 26.6708 31.8896 20.0674 31.8902C13.4637 31.8905 8.11065 26.5371 8.11035 19.9338C8.11004 13.3304 13.4628 7.97699 20.0665 7.97668H20.0668C20.314 7.97668 20.5536 7.99804 20.7944 8.01941L20.9811 8.03497C21.5017 8.05725 21.9418 7.6532 21.9638 7.13257C21.9641 7.12768 21.9641 7.12311 21.9644 7.11853Z" fill="#FFFA84"/>
<path d="M26.0453 8.97301V12.546L19.3625 19.2287C18.9667 19.6111 18.9557 20.2419 19.3381 20.6377C19.7205 21.0335 20.3513 21.0445 20.7471 20.6621C20.7554 20.6542 20.7636 20.646 20.7715 20.6377L27.4543 13.955H31.0273C31.2915 13.955 31.5448 13.85 31.7319 13.6629L37.71 7.68456C38.0991 7.29546 38.0991 6.66467 37.71 6.27557C37.5232 6.0888 37.2699 5.98382 37.0056 5.98382H34.0164V2.99463C34.0164 2.4444 33.5703 1.99823 33.0197 1.99854C32.7558 1.99854 32.5025 2.10352 32.3157 2.29028L26.3373 8.26867C26.1502 8.45544 26.0453 8.70873 26.0453 8.97301ZM28.0381 9.38561L32.0236 5.40002V6.98022C32.0236 7.53045 32.4698 7.97662 33.02 7.97662H34.6002L30.6147 11.9622H28.0381V9.38561Z" fill="#FFFA84"/>
</g>
<defs>
<clipPath id="clip0_1019_1524">
<rect width="40" height="40" fill="white"/>
</clipPath>
</defs>
</svg>
