<svg width="40" height="40" viewBox="0 0 40 40" fill="none" xmlns="http://www.w3.org/2000/svg">
<path d="M36.7786 2.67435C29.3472 1.74006 22.1071 4.45842 16.5992 9.69635C8.69944 8.61274 3.79074 14.9065 3.07204 20.0469C2.99922 20.4432 3.36593 20.8234 3.76407 20.7652C3.76406 20.7652 9.69122 20.0451 9.69122 20.0451C10.1119 20.4663 10.6368 20.9887 11.2925 21.6418L10.2789 23.6857C9.92189 24.4071 10.0641 25.2744 10.6336 25.8439L14.1559 29.3662C14.7274 29.9383 15.5988 30.0762 16.3141 29.7202L18.3551 28.7087C19.1378 29.4915 19.7823 30.136 20.1697 30.5235C20.3663 30.7204 20.6684 30.7619 20.91 30.6309C22.8646 29.5686 26.0773 27.5775 29.1579 24.5876C29.4961 30.641 24.7719 34.6209 20.5809 35.5221C20.5811 35.5223 20.8569 33.2566 20.8569 33.2566C20.9412 32.4353 19.7266 32.2918 19.6167 33.1053C19.6167 33.1053 19.2352 36.2364 19.2352 36.2364C19.2114 36.4317 19.2804 36.6264 19.422 36.7625C19.5635 36.8993 19.7629 36.9603 19.9555 36.9291C24.7957 36.2518 31.3957 31.557 30.3077 23.4135C35.0084 18.686 38.4271 10.6286 37.3252 3.22116C37.2913 2.93437 37.0655 2.70853 36.7786 2.67435ZM15.7587 28.6003C15.52 28.7199 15.2295 28.6723 15.0397 28.4825L11.5174 24.9601C11.3275 24.7703 11.2799 24.481 11.399 24.2411L12.2254 22.5736C13.8424 24.1938 15.8046 26.1574 17.4226 27.776L15.7587 28.6003ZM35.8954 10.0968C33.9905 20.7102 24.9543 26.9316 20.7209 29.307C18.6581 27.2455 13.5358 22.1118 10.6928 19.2783C11.6127 17.6129 13.1374 15.3577 14.4623 13.787C14.9814 13.1557 14.0228 12.3621 13.4992 12.9899C12.1148 14.6231 10.4532 17.097 9.52648 18.8055C9.52647 18.8054 4.47573 19.4193 4.47573 19.4193C4.90847 17.6634 6.23538 13.9958 9.9988 12.0213C12.6807 10.6132 15.3406 10.7603 16.6876 10.9715C16.8779 10.9951 17.0766 10.9516 17.2235 10.817C22.3732 5.84117 29.1288 3.12428 36.1377 3.86214C36.3446 5.97085 36.2635 8.06558 35.8954 10.0968Z" fill="#FFFA84"/>
<path d="M10.6982 29.3232C6.383 25.4802 2.5606 33.0655 2.50126 36.8354C2.46948 37.1997 2.80091 37.5308 3.16463 37.4989C6.92525 37.4401 14.4926 33.633 10.6982 29.3232ZM9.52021 33.5591C8.5528 34.4221 7.45234 35.0953 6.25055 35.5592C5.46747 35.8607 4.65327 36.0682 3.82074 36.1793C4.10126 34.0613 5.01627 32.0719 6.44708 30.4725C8.67573 27.8662 12.1543 31.2923 9.52021 33.5591Z" fill="#FFFA84"/>
<path d="M22.0935 10.804C18.9363 13.8986 21.224 19.4223 25.6446 19.3775C30.0689 19.4146 32.3471 13.9146 29.1961 10.8039C27.2381 8.84595 24.0515 8.84595 22.0935 10.804ZM28.3124 17.0228C24.6786 20.4421 19.5586 15.3195 22.9773 11.6877C26.6329 8.28308 31.7164 13.3677 28.3124 17.0228Z" fill="#FFFA84"/>
</svg>
