<svg width="40" height="40" viewBox="0 0 40 40" fill="none" xmlns="http://www.w3.org/2000/svg">
<g clip-path="url(#clip0_1101_247)">
<path d="M37.4519 21.9075L31.875 19.5832V17.9144C32.6427 17.4738 33.3074 16.8744 33.8248 16.1562C34.3421 15.4381 34.7002 14.6177 34.875 13.75H35C35.4973 13.7568 35.9769 13.5658 36.3333 13.219C36.6898 12.8722 36.8938 12.3979 36.9006 11.9007C36.9074 11.4034 36.7164 10.9238 36.3696 10.5673C36.0227 10.2109 35.5485 10.0068 35.0513 10L35.6637 8.58003C36.1871 7.36663 36.2139 5.99639 35.7383 4.76348C35.2627 3.53057 34.3227 2.53326 33.12 1.98566L31.375 1.19191C30.3425 0.733478 29.207 0.556306 28.0839 0.678365C26.9608 0.800424 25.89 1.21737 24.98 1.88691L24.0075 2.62066C23.0145 2.87639 22.1617 3.51177 21.6325 4.39003C21.3402 4.87519 21.1579 5.41851 21.0983 5.98175C21.0387 6.54499 21.1033 7.11445 21.2875 7.65003C20.3439 7.4613 19.3702 7.48499 18.4369 7.71941C18.704 6.58542 18.5692 5.39386 18.0555 4.34823C17.5417 3.30259 16.6809 2.46775 15.62 1.98628L13.875 1.19191C12.8425 0.733478 11.707 0.556306 10.5839 0.678365C9.46081 0.800424 8.38996 1.21737 7.48 1.88691L6.5075 2.62066C5.94424 2.76459 5.42036 3.03282 4.9743 3.40566C4.52825 3.7785 4.17134 4.2465 3.92978 4.7753C3.68822 5.30409 3.56814 5.88027 3.57834 6.46154C3.58855 7.04281 3.72878 7.61442 3.98875 8.13441L4.9225 10C4.42522 10.0103 3.95239 10.2177 3.60803 10.5766C3.26366 10.9355 3.07598 11.4165 3.08625 11.9138C3.09653 12.4111 3.30393 12.8839 3.66283 13.2283C4.02173 13.5726 4.50272 13.7603 5 13.75H5.125C5.30052 14.6173 5.65888 15.4372 6.17618 16.155C6.69348 16.8729 7.35785 17.4722 8.125 17.9132V19.5832L2.54813 21.9075C1.97803 22.1439 1.49093 22.5442 1.14856 23.0577C0.8062 23.5712 0.623983 24.1747 0.625004 24.7919V33.125C0.625004 33.2908 0.690852 33.4498 0.808062 33.567C0.925273 33.6842 1.08424 33.75 1.25 33.75H5.625V38.75C5.625 38.9158 5.69085 39.0748 5.80806 39.192C5.92527 39.3092 6.08424 39.375 6.25 39.375H33.75C33.9158 39.375 34.0747 39.3092 34.1919 39.192C34.3092 39.0748 34.375 38.9158 34.375 38.75V33.75H38.75C38.9158 33.75 39.0747 33.6842 39.1919 33.567C39.3092 33.4498 39.375 33.2908 39.375 33.125V24.7919C39.376 24.1747 39.1938 23.5712 38.8514 23.0577C38.5091 22.5442 38.022 22.1439 37.4519 21.9075ZM22.1081 9.20441L23.8525 10C24.7573 10.4122 25.4644 11.1627 25.8221 12.0904C26.1798 13.0181 26.1595 14.049 25.7656 14.9619L25.5781 15.39L24.9375 14.0957C24.8967 14.0132 24.8381 13.9408 24.7661 13.8836C24.694 13.8264 24.6102 13.7859 24.5207 13.7648C24.4311 13.7437 24.338 13.7427 24.248 13.7617C24.158 13.7808 24.0733 13.8195 24 13.875L23 14.625C22.1345 15.2741 21.0819 15.625 20 15.625C18.9182 15.625 17.8655 15.2741 17 14.625L16 13.875C15.927 13.8198 15.8427 13.7814 15.7531 13.7627C15.6635 13.744 15.5709 13.7454 15.4819 13.7669C15.3926 13.7878 15.3091 13.8281 15.2371 13.8849C15.1652 13.9417 15.1067 14.0137 15.0656 14.0957L14.375 15.4819L13.8588 14.45C13.6574 14.0472 13.5623 13.5996 13.5825 13.1496C13.6027 12.6997 13.7375 12.2624 13.9742 11.8792C14.2108 11.496 14.5415 11.1797 14.9348 10.9602C15.328 10.7407 15.7709 10.6253 16.2213 10.625C16.7027 10.6246 17.1768 10.7432 17.6013 10.9703C18.0259 11.1975 18.3876 11.5261 18.6544 11.9269L18.8506 12.2219L19.8906 11.5282L19.6944 11.2338C19.1389 10.4015 18.3022 9.79709 17.3375 9.53128C18.0465 9.09375 18.8513 8.83536 19.6824 8.77841C20.5136 8.72146 21.3461 8.86767 22.1081 9.20441ZM26.25 18.125H26.875C27.0408 18.125 27.1997 18.1909 27.3169 18.3081C27.4342 18.4253 27.5 18.5843 27.5 18.75C27.5 18.9158 27.4342 19.0748 27.3169 19.192C27.1997 19.3092 27.0408 19.375 26.875 19.375H26.25V18.125ZM18.125 25.3369C19.3455 25.7211 20.6545 25.7211 21.875 25.3369V26.6163L20 28.4913L18.125 26.6163V25.3369ZM20 24.375C18.6744 24.3735 17.4035 23.8463 16.4661 22.9089C15.5288 21.9716 15.0015 20.7007 15 19.375V17.0225L15.8488 15.3244L16.25 15.625C17.3319 16.4364 18.6477 16.875 20 16.875C21.3523 16.875 22.6682 16.4364 23.75 15.625L24.1513 15.3244L25 17.0225V19.375C24.9985 20.7007 24.4713 21.9716 23.5339 22.9089C22.5965 23.8463 21.3256 24.3735 20 24.375ZM13.75 19.375H13.125C12.9592 19.375 12.8003 19.3092 12.6831 19.192C12.5659 19.0748 12.5 18.9158 12.5 18.75C12.5 18.5843 12.5659 18.4253 12.6831 18.3081C12.8003 18.1909 12.9592 18.125 13.125 18.125H13.75V19.375ZM5.625 31.9V32.5H1.875V24.7919C1.87478 24.4219 1.98426 24.0601 2.18963 23.7523C2.39499 23.4444 2.687 23.2044 3.02875 23.0625L8.99063 20.5788C9.10477 20.5312 9.20222 20.4508 9.27064 20.3477C9.33906 20.2447 9.37538 20.1237 9.375 20V17.54C9.3717 17.4216 9.33629 17.3063 9.27255 17.2065C9.20881 17.1066 9.11914 17.026 9.01313 16.9732C8.26597 16.6015 7.62418 16.048 7.14672 15.3636C6.66926 14.6792 6.37144 13.8858 6.28063 13.0563C6.2637 12.9034 6.19096 12.762 6.07633 12.6594C5.9617 12.5568 5.81324 12.5 5.65938 12.5H5C4.83424 12.5 4.67527 12.4342 4.55806 12.317C4.44085 12.1998 4.375 12.0408 4.375 11.875C4.375 11.7093 4.44085 11.5503 4.55806 11.4331C4.67527 11.3159 4.83424 11.25 5 11.25H5.625C5.70745 11.25 5.78908 11.2337 5.8652 11.202C5.94131 11.1704 6.01041 11.1239 6.0685 11.0654C6.12659 11.0069 6.17254 10.9375 6.20369 10.8612C6.23484 10.7848 6.25058 10.7031 6.25 10.6207L6.24563 9.99566C6.24505 9.90018 6.2226 9.80611 6.18 9.72066L5.10688 7.57503C4.92712 7.2148 4.83204 6.81826 4.82891 6.41569C4.82578 6.01311 4.91468 5.61514 5.08881 5.25216C5.26295 4.88917 5.51772 4.57078 5.83367 4.32128C6.14963 4.07178 6.51841 3.89777 6.91188 3.81253C7.00033 3.79294 7.08362 3.75481 7.15625 3.70066L8.23125 2.88816C8.96071 2.35201 9.81891 2.01819 10.7189 1.9205C11.6189 1.82282 12.5288 1.96475 13.3563 2.33191L15.1025 3.12503C16.0073 3.53721 16.7144 4.28769 17.0721 5.21538C17.4298 6.14306 17.4095 7.17401 17.0156 8.08691L16.9144 8.32128C16.6771 8.45269 16.4488 8.5999 16.2313 8.76191L15.2456 9.50003C14.6835 9.64445 14.1608 9.91287 13.716 10.2856C13.2711 10.6583 12.9154 11.1259 12.6748 11.6541C12.4342 12.1823 12.3149 12.7576 12.3256 13.3379C12.3364 13.9181 12.4769 14.4886 12.7369 15.0075L13.6719 16.875H13.125C12.6277 16.875 12.1508 17.0726 11.7992 17.4242C11.4475 17.7758 11.25 18.2528 11.25 18.75C11.25 19.2473 11.4475 19.7242 11.7992 20.0759C12.1508 20.4275 12.6277 20.625 13.125 20.625H13.875C14.054 21.4898 14.4138 22.307 14.9308 23.023C15.4479 23.7389 16.1104 24.3375 16.875 24.7794V26.4L7.91375 28.8894C7.25642 29.0735 6.67716 29.4671 6.26404 30.0106C5.85092 30.554 5.62654 31.2174 5.625 31.9ZM33.125 38.125H29.375V33.125H28.125V38.125H11.875V33.125H10.625V38.125H6.875V31.9C6.87592 31.4902 7.01076 31.0919 7.25898 30.7659C7.50721 30.4398 7.85522 30.2038 8.25 30.0938L17.3181 27.575L19.56 29.8169C19.6772 29.9341 19.8361 29.9999 20.0019 29.9999C20.1676 29.9999 20.3265 29.9341 20.4438 29.8169L22.6856 27.575L31.75 30.0938C32.1448 30.2038 32.4928 30.4398 32.741 30.7659C32.9893 31.0919 33.1241 31.4902 33.125 31.9V38.125ZM38.125 32.5H34.375V31.9C34.3735 31.2174 34.1491 30.554 33.736 30.0106C33.3228 29.4671 32.7436 29.0735 32.0863 28.8894L23.125 26.4V24.7794C23.8896 24.3375 24.5522 23.7389 25.0692 23.023C25.5862 22.307 25.946 21.4898 26.125 20.625H26.875C27.3723 20.625 27.8492 20.4275 28.2008 20.0759C28.5525 19.7242 28.75 19.2473 28.75 18.75C28.75 18.2528 28.5525 17.7758 28.2008 17.4242C27.8492 17.0726 27.3723 16.875 26.875 16.875H26.3013L26.9138 15.4557C27.4371 14.2423 27.4639 12.872 26.9883 11.6391C26.5127 10.4062 25.5727 9.40889 24.37 8.86128L22.92 8.20066L22.6075 7.57566C22.4276 7.21545 22.3324 6.81889 22.3292 6.41627C22.326 6.01366 22.4148 5.61562 22.5889 5.25257C22.7629 4.88952 23.0177 4.57104 23.3336 4.32147C23.6496 4.0719 24.0184 3.89782 24.4119 3.81253C24.5003 3.79294 24.5836 3.75481 24.6563 3.70066L25.7313 2.88816C26.4607 2.35201 27.3189 2.01819 28.2189 1.9205C29.1189 1.82282 30.0288 1.96475 30.8563 2.33191L32.6025 3.12503C33.5073 3.53721 34.2144 4.28769 34.5721 5.21538C34.9298 6.14306 34.9095 7.17401 34.5156 8.08691L33.7969 9.75003C33.7628 9.82895 33.7453 9.91406 33.7456 10L33.75 10.625C33.75 10.7908 33.8158 10.9498 33.9331 11.067C34.0503 11.1842 34.2092 11.25 34.375 11.25H35C35.1658 11.25 35.3247 11.3159 35.4419 11.4331C35.5592 11.5503 35.625 11.7093 35.625 11.875C35.625 12.0408 35.5592 12.1998 35.4419 12.317C35.3247 12.4342 35.1658 12.5 35 12.5H34.3406C34.1868 12.5 34.0383 12.5568 33.9237 12.6594C33.809 12.762 33.7363 12.9034 33.7194 13.0563C33.6282 13.889 33.3284 14.6852 32.8477 15.3712C32.367 16.0572 31.7209 16.6108 30.9694 16.9807C30.8652 17.0324 30.7776 17.1122 30.7163 17.211C30.6551 17.3098 30.6226 17.4238 30.6225 17.54V20C30.6225 20.1234 30.659 20.244 30.7274 20.3466C30.7958 20.4493 30.893 20.5294 31.0069 20.5769L36.9713 23.0625C37.313 23.2044 37.605 23.4444 37.8104 23.7523C38.0157 24.0601 38.1252 24.4219 38.125 24.7919V32.5Z" fill="#010F1C"/>
</g>
<defs>
<clipPath id="clip0_1101_247">
<rect width="40" height="40" fill="white"/>
</clipPath>
</defs>
</svg>
