<svg width="46" height="46" viewBox="0 0 46 46" fill="none" xmlns="http://www.w3.org/2000/svg">
<path d="M39.4167 29.7818C41.0058 28.5305 42.0469 26.6124 42.0469 24.4375C42.0469 20.6725 38.9838 17.6094 35.2188 17.6094C33.8632 17.6094 32.6059 18.0177 31.5427 18.7015C30.4363 17.1942 28.9232 16.0622 27.2065 15.3996C28.7905 14.1481 29.8281 12.2333 29.8281 10.0625C29.8281 6.29749 26.765 3.23438 23 3.23438C19.235 3.23438 16.1719 6.29749 16.1719 10.0625C16.1719 12.2333 17.2095 14.1481 18.7935 15.3996C17.0768 16.0622 15.5637 17.1942 14.4573 18.7015C13.3941 18.0177 12.1368 17.6094 10.7812 17.6094C7.01624 17.6094 3.95312 20.6725 3.95312 24.4375C3.95312 26.6124 4.99422 28.5305 6.58334 29.7818C2.95238 31.1863 0.359375 34.6921 0.359375 38.8125V41.6875C0.359375 42.2827 0.842285 42.7656 1.4375 42.7656C2.03271 42.7656 2.51562 42.2827 2.51562 41.6875V38.8125C2.51562 34.6516 5.90161 31.2656 10.0625 31.2656H11.5C15.6609 31.2656 19.0469 34.6516 19.0469 38.8125V41.6875C19.0469 42.2827 19.5298 42.7656 20.125 42.7656C20.7202 42.7656 21.2031 42.2827 21.2031 41.6875V38.8125C21.2031 34.6921 18.6101 31.1863 14.9792 29.7818C16.5683 28.5305 17.6094 26.6124 17.6094 24.4375C17.6094 22.8335 17.0303 21.3763 16.101 20.2098C17.4995 18.1714 19.7777 16.8906 22.2812 16.8906H23.7188C26.2223 16.8906 28.5005 18.1714 29.899 20.2098C28.9697 21.3763 28.3906 22.8335 28.3906 24.4375C28.3906 26.6124 29.4317 28.5305 31.0208 29.7818C27.3899 31.1863 24.7969 34.6921 24.7969 38.8125V41.6875C24.7969 42.2827 25.2798 42.7656 25.875 42.7656C26.4702 42.7656 26.9531 42.2827 26.9531 41.6875V38.8125C26.9531 34.6516 30.3391 31.2656 34.5 31.2656H35.9375C40.0984 31.2656 43.4844 34.6516 43.4844 38.8125V41.6875C43.4844 42.2827 43.9673 42.7656 44.5625 42.7656C45.1577 42.7656 45.6406 42.2827 45.6406 41.6875V38.8125C45.6406 34.6921 43.0476 31.1863 39.4167 29.7818ZM10.7812 29.1094C8.20526 29.1094 6.10938 27.0135 6.10938 24.4375C6.10938 21.8615 8.20526 19.7656 10.7812 19.7656C13.3572 19.7656 15.4531 21.8615 15.4531 24.4375C15.4531 27.0135 13.3572 29.1094 10.7812 29.1094ZM23 5.39062C25.576 5.39062 27.6719 7.48651 27.6719 10.0625C27.6719 12.6385 25.576 14.7344 23 14.7344C20.424 14.7344 18.3281 12.6385 18.3281 10.0625C18.3281 7.48651 20.424 5.39062 23 5.39062ZM35.2188 19.7656C37.7947 19.7656 39.8906 21.8615 39.8906 24.4375C39.8906 27.0135 37.7947 29.1094 35.2188 29.1094C32.6428 29.1094 30.5469 27.0135 30.5469 24.4375C30.5469 21.8615 32.6428 19.7656 35.2188 19.7656Z" fill="#010F1C"/>
</svg>
