<svg width="46" height="46" viewBox="0 0 46 46" fill="none" xmlns="http://www.w3.org/2000/svg">
<g clip-path="url(#clip0_1056_125)">
<path d="M5.39045 23.7545H40.6093C41.087 23.7546 41.5374 23.5319 41.8273 23.1524C42.1173 22.7729 42.2138 22.2797 42.0882 21.8189L37.2822 4.1949C37.0988 3.52901 36.494 3.06716 35.8034 3.06543H10.1964C9.50575 3.06716 8.90094 3.52901 8.71753 4.1949L3.91151 21.8189C3.78589 22.2797 3.8823 22.7728 4.17233 23.1524C4.46237 23.532 4.91281 23.7546 5.39045 23.7545ZM15.7419 9.96178H22.2336V15.3256H15.0982L15.7419 9.96178ZM13.5542 15.3256H7.27081L8.7336 9.96178H14.1978L13.5542 15.3256ZM38.729 15.3256H32.4456L31.8019 9.96178H37.2662L38.729 15.3256ZM30.9016 15.3256H23.7662V9.96178H30.2579L30.9016 15.3256ZM31.0855 16.8581L31.7291 22.222H23.7661V16.8581H31.0855ZM23.7662 8.42925V4.59796H29.6143L30.074 8.42925H23.7662ZM22.2336 8.42925H15.9257L16.3855 4.59796H22.2336V8.42925ZM22.2336 16.8581V22.222H14.2706L14.9142 16.8581H22.2336ZM33.2731 22.222L32.6295 16.8581H39.1465L40.6093 22.222H33.2731ZM36.8485 8.42925H31.618L31.1582 4.59796H35.8033L36.8485 8.42925ZM10.1964 4.59796H14.8415L14.3817 8.42925H9.15117L10.1964 4.59796ZM5.39045 22.222L6.85251 16.8581H13.3704L12.7267 22.222H5.39045Z" fill="#010F1C"/>
<path d="M39.8447 1.68965C39.5688 0.692639 38.6622 0.00173456 37.6278 0H8.37201C7.33693 0.00182586 6.43003 0.69346 6.15441 1.69111L0.0948509 23.9073C0.0385232 24.1093 0.0106789 24.3182 0.0121396 24.528V27.5931C0.016339 28.8597 1.0443 29.8842 2.31089 29.8842H3.84343V31.4167C2.99705 31.4167 2.31089 32.1029 2.31089 32.9492V34.4818C2.31089 35.3281 2.99705 36.0143 3.84343 36.0143H9.20725C10.0536 36.0143 10.7398 35.3281 10.7398 34.4818V32.9492C10.7398 32.1029 10.0536 31.4167 9.20725 31.4167V29.8842H13.7236C11.1052 34.392 12.1066 40.1297 16.0972 43.4841C20.0878 46.8386 25.9122 46.8385 29.9028 43.4841C33.8934 40.1298 34.8948 34.392 32.2764 29.8842H36.7927V31.4167C35.9464 31.4167 35.2602 32.1029 35.2602 32.9492V34.4818C35.2602 35.3281 35.9464 36.0143 36.7927 36.0143H42.1566C43.0029 36.0143 43.6891 35.3281 43.6891 34.4818V32.9492C43.6891 32.1029 43.0029 31.4167 42.1566 31.4167V29.8842H43.6891C44.9557 29.8842 45.9837 28.8597 45.9879 27.5931V24.528C45.9906 24.3211 45.9648 24.1148 45.9113 23.915L39.8447 1.68965ZM1.57142 24.3158L7.63181 2.09417C7.72392 1.76168 8.02692 1.53171 8.37201 1.53253H37.6279C37.9727 1.53208 38.2752 1.76195 38.3674 2.09417L44.4308 24.3226C44.448 24.3897 44.4562 24.4587 44.4553 24.5279C44.4511 24.9481 44.1093 25.2866 43.6891 25.2866H26.9584C24.4183 24.2649 21.5815 24.2649 19.0414 25.2866H2.31089C1.89067 25.2866 1.54887 24.9481 1.54467 24.5279C1.54367 24.4563 1.55271 24.385 1.57142 24.3158ZM9.20725 34.4818H3.84334V32.9492H9.20715L9.20725 34.4818ZM7.67471 31.4167H5.37596V29.8842H7.67471V31.4167ZM8.44093 28.3516H2.31089C1.89067 28.3516 1.54887 28.0132 1.54467 27.593V26.6781C1.79007 26.7688 2.04934 26.8165 2.31089 26.819H16.3856C15.8043 27.2741 15.2713 27.7876 14.7948 28.3515H8.44093V28.3516ZM23 44.4432C17.9216 44.4432 13.8048 40.3264 13.8048 35.2481C13.8048 30.1697 17.9216 26.053 23 26.053C28.0783 26.053 32.1951 30.1697 32.1951 35.2481C32.1896 40.324 28.0759 44.4377 23 44.4432ZM42.1565 34.4818H36.7927V32.9492H42.1565V34.4818ZM40.6239 31.4167H38.3252V29.8842H40.6239V31.4167ZM43.6889 28.3516H31.2051C30.7286 27.7877 30.1957 27.2742 29.6143 26.8191H43.689C43.9507 26.8165 44.2098 26.7689 44.4552 26.6781V27.5931C44.451 28.0133 44.1091 28.3517 43.6889 28.3516Z" fill="#010F1C"/>
<path d="M26.4682 34.4817H25.2989L25.8185 29.6198C25.8731 29.133 25.6114 28.6654 25.1679 28.4574C24.7345 28.2516 24.2177 28.3491 23.889 28.6988L18.7229 34.0741C18.4017 34.4068 18.311 34.8995 18.493 35.3246C18.6691 35.7416 19.0772 36.0131 19.5297 36.0142H20.7014L20.1818 40.8777C20.1281 41.3639 20.3896 41.8305 20.8324 42.0386C20.9812 42.1089 21.1437 42.1455 21.3082 42.1458C21.6124 42.1447 21.9028 42.0187 22.1112 41.7972L27.2774 36.4219C27.5985 36.0892 27.6892 35.5965 27.5072 35.1713C27.3309 34.7536 26.9217 34.482 26.4682 34.4817ZM21.8293 39.8785L22.3143 35.3292C22.3373 35.1131 22.2676 34.8974 22.1223 34.7358C21.9771 34.5742 21.77 34.4818 21.5527 34.4817H20.4577L24.171 30.6175L23.6898 35.1668C23.6668 35.3822 23.7362 35.5973 23.8805 35.7588C24.025 35.9203 24.231 36.0131 24.4476 36.0142H25.5426L21.8293 39.8785Z" fill="#010F1C"/>
</g>
<defs>
<clipPath id="clip0_1056_125">
<rect width="46" height="46" fill="white"/>
</clipPath>
</defs>
</svg>
