<svg width="80" height="80" viewBox="0 0 80 80" fill="none" xmlns="http://www.w3.org/2000/svg">
<g clip-path="url(#clip0_939_79)">
<path d="M78.4345 73.7505H50.468C49.605 73.7505 48.9056 74.45 48.9056 75.3128C48.9056 76.1756 49.6052 76.8752 50.468 76.8752H78.4345C79.2975 76.8752 79.9969 76.1756 79.9969 75.3128C79.9969 74.45 79.2974 73.7505 78.4345 73.7505Z" fill="#57B33E"/>
<path d="M29.3758 73.7505H1.56546C0.702488 73.7505 0.00311279 74.45 0.00311279 75.3128C0.00311279 76.1756 0.702644 76.8752 1.56546 76.8752H29.3758C30.2387 76.8752 30.9381 76.1756 30.9381 75.3128C30.9381 74.45 30.2386 73.7505 29.3758 73.7505Z" fill="#57B33E"/>
<path d="M40.6177 31.9617H28.5095C27.6466 31.9617 26.9472 32.6612 26.9472 33.524C26.9472 34.387 27.6467 35.0864 28.5095 35.0864H40.6177C41.4806 35.0864 42.18 34.3868 42.18 33.524C42.18 32.6612 41.4805 31.9617 40.6177 31.9617Z" fill="#57B33E"/>
<path d="M52.7786 32.4192C52.4879 32.1286 52.0848 31.9614 51.674 31.9614C51.2615 31.9614 50.8584 32.1286 50.5695 32.4192C50.2773 32.7099 50.1117 33.113 50.1117 33.5238C50.1117 33.9347 50.2773 34.3378 50.5695 34.6283C50.8601 34.9189 51.2617 35.0861 51.674 35.0861C52.085 35.0861 52.4881 34.9189 52.7786 34.6283C53.069 34.3377 53.2364 33.9346 53.2364 33.5238C53.2364 33.113 53.0692 32.7099 52.7786 32.4192Z" fill="#57B33E"/>
<path d="M47.3211 32.4192C47.0289 32.1286 46.6273 31.9614 46.215 31.9614C45.8041 31.9614 45.4009 32.1286 45.1105 32.4192C44.8198 32.7099 44.6526 33.113 44.6526 33.5238C44.6526 33.9363 44.8198 34.3378 45.1105 34.6283C45.4026 34.9189 45.8042 35.0861 46.215 35.0861C46.6258 35.0861 47.0291 34.9189 47.3211 34.6283C47.6117 34.3377 47.7773 33.9346 47.7773 33.5238C47.7773 33.113 47.6117 32.7099 47.3211 32.4192Z" fill="#57B33E"/>
<path d="M40.6177 44.4608H28.5095C27.6466 44.4608 26.9472 45.1603 26.9472 46.0232C26.9472 46.886 27.6467 47.5855 28.5095 47.5855H40.6177C41.4806 47.5855 42.18 46.886 42.18 46.0232C42.18 45.1603 41.4805 44.4608 40.6177 44.4608Z" fill="#57B33E"/>
<path d="M52.7786 44.9183C52.4879 44.6276 52.0848 44.4604 51.674 44.4604C51.2615 44.4604 50.86 44.6276 50.5695 44.9183C50.2773 45.2089 50.1117 45.612 50.1117 46.0228C50.1117 46.4353 50.2773 46.8369 50.5695 47.1273C50.8601 47.4179 51.2617 47.5851 51.674 47.5851C52.085 47.5851 52.4881 47.4179 52.7786 47.1273C53.069 46.8367 53.2364 46.4336 53.2364 46.0228C53.2364 45.612 53.0692 45.2089 52.7786 44.9183Z" fill="#57B33E"/>
<path d="M47.3211 44.9183C47.0289 44.6276 46.6273 44.4604 46.215 44.4604C45.8041 44.4604 45.4009 44.6276 45.1105 44.9183C44.8198 45.2089 44.6526 45.612 44.6526 46.0228C44.6526 46.4336 44.8198 46.8369 45.1105 47.1273C45.4011 47.4179 45.8042 47.5851 46.215 47.5851C46.6275 47.5851 47.0291 47.4179 47.3211 47.1273C47.6117 46.8367 47.7773 46.4336 47.7773 46.0228C47.7773 45.612 47.6117 45.2089 47.3211 44.9183Z" fill="#57B33E"/>
<path d="M40.6177 56.9598H28.5095C27.6466 56.9598 26.9472 57.6594 26.9472 58.5222C26.9472 59.385 27.6467 60.0845 28.5095 60.0845H40.6177C41.4806 60.0845 42.18 59.385 42.18 58.5222C42.18 57.6594 41.4805 56.9598 40.6177 56.9598Z" fill="#57B33E"/>
<path d="M52.7786 57.4173C52.4864 57.1267 52.0848 56.9595 51.674 56.9595C51.2615 56.9595 50.86 57.1267 50.5679 57.4173C50.2773 57.7079 50.1117 58.111 50.1117 58.5218C50.1117 58.9326 50.2773 59.3359 50.5679 59.6264C50.8601 59.917 51.2617 60.0842 51.674 60.0842C52.085 60.0842 52.4881 59.917 52.7786 59.6264C53.069 59.3357 53.2364 58.9326 53.2364 58.5218C53.2364 58.111 53.0692 57.7079 52.7786 57.4173Z" fill="#57B33E"/>
<path d="M47.3195 57.4173C47.0289 57.1267 46.6273 56.9595 46.215 56.9595C45.8041 56.9595 45.4009 57.1267 45.1105 57.4173C44.82 57.7079 44.6526 58.111 44.6526 58.5218C44.6526 58.9326 44.8198 59.3359 45.1105 59.6264C45.4011 59.917 45.8042 60.0842 46.215 60.0842C46.6275 60.0842 47.0291 59.917 47.3195 59.6264C47.6117 59.3357 47.7773 58.9326 47.7773 58.5218C47.7773 58.111 47.6117 57.7079 47.3195 57.4173Z" fill="#57B33E"/>
<path d="M60.3308 46.2464C60.3308 43.6935 59.1 41.4232 57.2006 39.9968C59.0999 38.5704 60.3308 36.3001 60.3308 33.7473C60.3308 29.4398 56.8264 25.9354 52.5189 25.9354H27.5208C23.2133 25.9354 19.7089 29.4398 19.7089 33.7473C19.7089 36.3001 20.9397 38.5704 22.8391 39.9968C20.9399 41.4232 19.7089 43.6935 19.7089 46.2464C19.7089 48.7992 20.9397 51.0695 22.8391 52.4959C20.9399 53.9223 19.7089 56.1926 19.7089 58.7454C19.7089 63.0529 23.2133 66.5573 27.5208 66.5573H38.4377V70.8943C36.6192 71.5393 35.313 73.2759 35.313 75.3128C35.3128 77.8973 37.4155 80 40 80C42.5845 80 44.6872 77.8973 44.6872 75.3128C44.6872 73.2761 43.381 71.5393 41.5625 70.8943V66.5573H52.5191C56.8266 66.5573 60.331 63.0529 60.331 58.7454C60.331 56.1926 59.1002 53.9223 57.2008 52.4959C59.0999 51.0695 60.3308 48.7992 60.3308 46.2464ZM22.8335 33.7475C22.8335 31.1629 24.9361 29.0603 27.5206 29.0603H52.5188C55.1033 29.0603 57.206 31.1629 57.206 33.7475C57.206 36.332 55.1033 38.4346 52.5188 38.4346H27.5206C24.9361 38.4345 22.8335 36.3318 22.8335 33.7475ZM40 76.8753C39.1385 76.8753 38.4377 76.1743 38.4377 75.3129C38.4377 74.4514 39.1386 73.7506 40 73.7506C40.8614 73.7506 41.5624 74.4515 41.5624 75.3129C41.5624 76.1743 40.8616 76.8753 40 76.8753ZM57.206 58.7454C57.206 61.33 55.1033 63.4326 52.5188 63.4326H27.5206C24.9361 63.4326 22.8335 61.33 22.8335 58.7454C22.8335 56.1609 24.9361 54.0582 27.5206 54.0582H52.5188C55.1033 54.0584 57.206 56.1611 57.206 58.7454ZM52.5188 50.9336H27.5206C24.9361 50.9336 22.8335 48.8309 22.8335 46.2464C22.8335 43.6618 24.9361 41.5592 27.5206 41.5592H52.5188C55.1033 41.5592 57.206 43.6618 57.206 46.2464C57.206 48.8309 55.1033 50.9336 52.5188 50.9336Z" fill="#57B33E"/>
<path d="M76.6427 24.193C74.6364 21.2809 71.8966 19.0052 68.6881 17.5769C64.7558 7.03453 54.6656 0 43.3592 0C36.7803 0 30.4405 2.39172 25.508 6.73438C20.998 10.7048 17.9496 16.0403 16.8211 21.8867C16.5786 21.8758 16.3366 21.8703 16.0955 21.8703C7.22205 21.8703 0.00299072 29.0894 0.00299072 37.9628C0.00299072 41.8242 1.39143 45.5584 3.91252 48.4773C6.40705 51.3653 9.84705 53.2778 13.5991 53.8627C13.6806 53.8753 13.7616 53.8816 13.8416 53.8816C14.5983 53.8816 15.2631 53.3306 15.3835 52.5597C15.5164 51.707 14.9328 50.9083 14.0803 50.7753C7.73393 49.7861 3.12768 44.3978 3.12768 37.963C3.12768 30.8125 8.94487 24.9952 16.0955 24.9952C16.6975 24.9952 17.308 25.0378 17.9102 25.1222C18.3221 25.1797 18.7392 25.0709 19.0702 24.82C19.4014 24.5691 19.6189 24.1966 19.6747 23.785C21.2722 12.0067 31.4544 3.12484 43.3591 3.12484C53.5675 3.12484 62.6544 9.60766 65.9706 19.2564C66.1181 19.6858 66.4452 20.0295 66.8664 20.1986C72.9445 22.6375 76.872 28.4452 76.872 34.9942C76.872 42.5322 71.5213 49.0981 64.1491 50.6067C63.3036 50.7797 62.7588 51.6053 62.9317 52.4506C63.1047 53.2961 63.93 53.8408 64.7756 53.668C73.5955 51.8633 79.9969 44.0098 79.9969 34.9942C79.9969 31.113 78.8371 27.378 76.6427 24.193Z" fill="#57B33E"/>
</g>
<defs>
<clipPath id="clip0_939_79">
<rect width="80" height="80" fill="white"/>
</clipPath>
</defs>
</svg>
