<svg width="40" height="40" viewBox="0 0 40 40" fill="none" xmlns="http://www.w3.org/2000/svg">
<g clip-path="url(#clip0_1100_203)">
<path d="M4.68746 20.6561H35.3126C35.7279 20.6562 36.1196 20.4626 36.3717 20.1326C36.6238 19.8026 36.7077 19.3737 36.5985 18.973L32.4194 3.6478C32.26 3.06877 31.734 2.66716 31.1335 2.66565H8.86653C8.26598 2.66716 7.74005 3.06877 7.58057 3.6478L3.40142 18.973C3.29219 19.3737 3.37602 19.8025 3.62822 20.1326C3.88043 20.4627 4.27212 20.6562 4.68746 20.6561ZM13.6887 8.66248H19.3337V13.3267H13.129L13.6887 8.66248ZM11.7864 13.3267H6.32255L7.59454 8.66248H12.3461L11.7864 13.3267ZM33.6775 13.3267H28.2137L27.654 8.66248H32.4055L33.6775 13.3267ZM26.8711 13.3267H20.6663V8.66248H26.3113L26.8711 13.3267ZM27.0309 14.6593L27.5906 19.3235H20.6662V14.6593H27.0309ZM20.6663 7.32984V3.99829H25.7517L26.1514 7.32984H20.6663ZM19.3337 7.32984H13.8486L14.2484 3.99829H19.3337V7.32984ZM19.3337 14.6593V19.3235H12.4093L12.969 14.6593H19.3337ZM28.9333 19.3235L28.3736 14.6593H34.0406L35.3126 19.3235H28.9333ZM32.0423 7.32984H27.494L27.0942 3.99829H31.1334L32.0423 7.32984ZM8.86653 3.99829H12.9057L12.5059 7.32984H7.95765L8.86653 3.99829ZM4.68746 19.3235L5.95881 14.6593H11.6265L11.0668 19.3235H4.68746Z" fill="#010F1C"/>
<path d="M34.6478 1.46926C34.4079 0.602295 33.6196 0.00150832 32.7201 0H7.28024C6.38017 0.0015877 5.59156 0.603009 5.3519 1.47053L0.0827126 20.789C0.033732 20.9646 0.00951952 21.1463 0.0107897 21.3287V23.994C0.0144414 25.0954 0.908317 25.9862 2.00971 25.9862H3.34234V27.3189C2.60636 27.3189 2.00971 27.9155 2.00971 28.6515V29.9841C2.00971 30.7201 2.60636 31.3168 3.34234 31.3168H8.00653C8.74251 31.3168 9.33917 30.7201 9.33917 29.9841V28.6515C9.33917 27.9155 8.74251 27.3189 8.00653 27.3189V25.9862H11.9338C9.65695 29.9061 10.5277 34.8954 13.9978 37.8123C17.4679 40.7292 22.5326 40.7291 26.0027 37.8123C29.4727 34.8955 30.3435 29.9061 28.0667 25.9862H31.9939V27.3189C31.2579 27.3189 30.6613 27.9155 30.6613 28.6515V29.9841C30.6613 30.7201 31.2579 31.3168 31.9939 31.3168H36.6581C37.3941 31.3168 37.9908 30.7201 37.9908 29.9841V28.6515C37.9908 27.9155 37.3941 27.3189 36.6581 27.3189V25.9862H37.9908C39.0921 25.9862 39.986 25.0954 39.9897 23.994V21.3287C39.9921 21.1488 39.9696 20.9694 39.9231 20.7956L34.6478 1.46926ZM1.36669 21.1441L6.63659 1.82101C6.71669 1.53189 6.98017 1.33192 7.28024 1.33264H32.7201C33.02 1.33224 33.2831 1.53213 33.3632 1.82101L38.6357 21.1501C38.6507 21.2084 38.6578 21.2685 38.657 21.3286C38.6534 21.694 38.3562 21.9883 37.9908 21.9883H23.4423C21.2335 21.0999 18.7668 21.0999 16.558 21.9883H2.00971C1.6443 21.9883 1.34708 21.694 1.34343 21.3286C1.34255 21.2664 1.35041 21.2043 1.36669 21.1441ZM8.00653 29.9841H3.34226V28.6515H8.00645L8.00653 29.9841ZM6.6739 27.3189H4.67498V25.9862H6.6739V27.3189ZM7.34018 24.6536H2.00971C1.6443 24.6536 1.34708 24.3593 1.34343 23.9939V23.1983C1.55681 23.2772 1.78227 23.3187 2.00971 23.3209H14.2486C13.7431 23.7166 13.2796 24.1632 12.8653 24.6535H7.34018V24.6536ZM20.0002 38.6462C15.5842 38.6462 12.0044 35.0665 12.0044 30.6505C12.0044 26.2345 15.5842 22.6548 20.0002 22.6548C24.4161 22.6548 27.9959 26.2345 27.9959 30.6505C27.9912 35.0644 24.4141 38.6415 20.0002 38.6462ZM36.658 29.9841H31.9938V28.6515H36.658V29.9841ZM35.3254 27.3189H33.3265V25.9862H35.3254V27.3189ZM37.9906 24.6536H27.1351C26.7208 24.1632 26.2573 23.7167 25.7518 23.321H37.9907C38.2182 23.3187 38.4436 23.2773 38.657 23.1984V23.994C38.6533 24.3594 38.356 24.6537 37.9906 24.6536Z" fill="#010F1C"/>
<path d="M23.0161 29.9841H21.9993L22.4511 25.7564C22.4986 25.333 22.2711 24.9265 21.8854 24.7456C21.5085 24.5666 21.0591 24.6514 20.7733 24.9555L16.281 29.6297C16.0017 29.9189 15.9229 30.3474 16.0811 30.7171C16.2342 31.0796 16.5891 31.3157 16.9826 31.3168H18.0014L17.5496 35.5458C17.503 35.9686 17.7303 36.3744 18.1153 36.5553C18.2447 36.6164 18.386 36.6483 18.5291 36.6486C18.7936 36.6476 19.0461 36.538 19.2274 36.3454L23.7197 31.6712C23.999 31.3819 24.0778 30.9535 23.9196 30.5838C23.7663 30.2205 23.4104 29.9844 23.0161 29.9841ZM18.9822 34.677L19.404 30.7211C19.424 30.5332 19.3634 30.3456 19.2371 30.2051C19.1108 30.0645 18.9307 29.9842 18.7417 29.9841H17.7896L21.0185 26.6239L20.6001 30.5798C20.5801 30.7672 20.6404 30.9542 20.7659 31.0946C20.8915 31.2351 21.0707 31.3158 21.2591 31.3168H22.2112L18.9822 34.677Z" fill="#010F1C"/>
</g>
<defs>
<clipPath id="clip0_1100_203">
<rect width="40" height="40" fill="white"/>
</clipPath>
</defs>
</svg>
