<svg width="80" height="80" viewBox="0 0 80 80" fill="none" xmlns="http://www.w3.org/2000/svg">
<g clip-path="url(#clip0_939_40)">
<path d="M79.9855 51.9171C79.9778 51.7994 79.9545 51.6832 79.9161 51.5717C79.9015 51.5291 79.8908 51.4891 79.8721 51.4477C79.8073 51.3027 79.717 51.1704 79.6055 51.0571L58.2725 29.7241C58.0239 29.4753 57.6869 29.335 57.3352 29.3335H28.5758C29.0709 28.2917 29.3304 27.1537 29.3357 26.0002C29.3306 22.082 26.4926 18.742 22.6265 18.1044C22.6545 17.8484 22.6687 17.5912 22.6692 17.3337C22.6692 12.9155 19.0876 9.33386 14.6693 9.33386C10.2511 9.33386 6.6695 12.9155 6.6695 17.3337C6.67 17.5912 6.68416 17.8484 6.71216 18.1044C2.37058 18.7949 -0.589033 22.8743 0.101454 27.2157C0.27845 28.3287 0.689776 29.3913 1.30826 30.3335C-0.503368 33.0833 -0.423203 36.6674 1.50959 39.3333C-0.702698 42.3876 -0.456203 46.5778 2.09892 49.3518L0.393615 51.0571C0.143619 51.3071 0.00295542 51.6461 0.00295542 51.9997V78.6659C0.00295542 79.4022 0.599944 79.9992 1.33626 79.9992H78.6681C79.4045 79.9992 80.0015 79.4022 80.0015 78.6659V51.9997C80.0015 51.9717 79.9868 51.9464 79.9855 51.9171ZM75.4455 50.6664H67.2457L62.2458 45.3332H70.1123L75.4455 50.6664ZM45.3288 38.6666H52.342L56.0912 42.6666H49.0794L45.3288 38.6666ZM45.4248 42.6666H36.5543L32.5543 38.6666H41.6755L45.4248 42.6666ZM58.5912 45.3332L63.5911 50.6664H56.5792L51.5793 45.3332H58.5912ZM67.4497 42.6666H59.7458L56.0019 38.6666H63.4564L67.4497 42.6666ZM56.7832 32.0001L60.7831 36H53.4953L49.746 32.0001H56.7832ZM46.0914 32.0001L49.842 36H42.8288L39.0796 32.0001H46.0914ZM35.425 32.0001L39.1756 36H29.8877L25.8878 32.0001H35.425ZM3.98421 29.4668C3.14106 28.5083 2.67391 27.2767 2.66957 26.0002C2.66957 23.0548 5.05736 20.667 8.0028 20.667H8.01614C8.1028 20.679 8.1908 20.6896 8.2828 20.6937C9.01812 20.7323 9.64561 20.1675 9.68427 19.4322C9.69261 19.2725 9.67227 19.1127 9.62411 18.9603C9.44345 18.4365 9.34628 17.8877 9.33611 17.3337C9.33611 14.3883 11.7239 12.0005 14.6693 12.0005C17.6148 12.0005 20.0026 14.3883 20.0026 17.3337C19.9932 17.887 19.8969 18.4355 19.7173 18.959C19.4953 19.6612 19.8846 20.4102 20.5867 20.6322C20.7391 20.6803 20.8989 20.7006 21.0586 20.6923C21.1514 20.6898 21.2441 20.6813 21.3359 20.667C24.2813 20.667 26.6691 23.0548 26.6691 26.0002C26.6668 27.2167 26.2428 28.3947 25.4691 29.3335H22.6692C22.5137 29.3362 22.3599 29.3658 22.2145 29.4215C22.1985 29.4282 22.1799 29.4215 22.1625 29.4348C22.1452 29.4482 22.1159 29.4682 22.0892 29.4815C21.9825 29.5338 21.8835 29.6001 21.7945 29.6788C21.7745 29.6961 21.7465 29.7041 21.7265 29.7241L16.0027 35.448V21.3336C16.0027 20.5973 15.4057 20.0003 14.6693 20.0003C13.933 20.0003 13.336 20.5973 13.336 21.3336V28.7815L10.2788 25.7242C9.74911 25.2127 8.90495 25.2274 8.39347 25.7571C7.89447 26.2737 7.89447 27.0929 8.39347 27.6095L13.336 32.5521V38.1133L12.0027 39.4466L10.2788 37.724C9.74911 37.2125 8.90495 37.2272 8.39347 37.7568C7.89447 38.2735 7.89447 39.0926 8.39347 39.6093L10.1174 41.3333L3.97755 47.4665C3.1344 46.5085 2.66941 45.276 2.66957 43.9999C2.66807 42.6022 3.21873 41.2604 4.20154 40.2666C4.7097 39.7481 4.7097 38.9185 4.20154 38.4C2.24391 36.4319 2.14891 33.2827 3.98421 31.2001C4.41087 30.7013 4.41087 29.9658 3.98421 29.4668ZM28.0024 77.3326H17.336V61.3329H28.0024V77.3326ZM42.6688 77.3326H30.669V59.9996C30.669 59.2633 30.0721 58.6663 29.3357 58.6663H16.0027C15.2663 58.6663 14.6693 59.2633 14.6693 59.9996V77.3326H2.66957V52.5517L4.96286 50.2584L15.6107 39.6106L22.6692 32.5521L42.6688 52.5517V77.3326ZM39.2209 45.3332H47.9247L52.9246 50.6664H44.5541L39.2209 45.3332ZM77.3348 77.3326H45.3354V53.333H77.3348V77.3326Z" fill="#57B33E"/>
<path d="M65.3336 5.33386C60.179 5.33386 56.0005 9.51245 56.0005 14.667C56.0005 19.8216 60.179 24.0002 65.3336 24.0002C70.4854 23.9935 74.6601 19.8188 74.6668 14.667C74.6668 9.51245 70.4882 5.33386 65.3336 5.33386ZM65.3336 21.3336C61.6519 21.3336 58.6671 18.3488 58.6671 14.667C58.6671 10.9853 61.6519 8.00048 65.3336 8.00048C69.0154 8.00048 72.0002 10.9853 72.0002 14.667C71.9957 18.3471 69.0135 21.3292 65.3336 21.3336Z" fill="#57B33E"/>
<path d="M66.6669 0.000610352H64.0003V2.66723H66.6669V0.000610352Z" fill="#57B33E"/>
<path d="M66.6669 26.6669H64.0003V29.3335H66.6669V26.6669Z" fill="#57B33E"/>
<path d="M53.3339 13.3337H50.6672V16.0004H53.3339V13.3337Z" fill="#57B33E"/>
<path d="M80 13.3337H77.3334V16.0004H80V13.3337Z" fill="#57B33E"/>
<path d="M55.9053 3.35382L54.0197 5.23938L55.9053 7.12494L57.7909 5.23938L55.9053 3.35382Z" fill="#57B33E"/>
<path d="M74.7589 22.2098L72.8733 24.0953L74.7589 25.9809L76.6445 24.0953L74.7589 22.2098Z" fill="#57B33E"/>
<path d="M55.9043 22.2084L54.0187 24.094L55.9043 25.9796L57.7898 24.094L55.9043 22.2084Z" fill="#57B33E"/>
<path d="M74.7599 3.35504L72.8744 5.2406L74.7599 7.12617L76.6455 5.2406L74.7599 3.35504Z" fill="#57B33E"/>
</g>
<defs>
<clipPath id="clip0_939_40">
<rect width="80" height="80" fill="white"/>
</clipPath>
</defs>
</svg>
