<svg width="46" height="46" viewBox="0 0 46 46" fill="none" xmlns="http://www.w3.org/2000/svg">
<path d="M40.5278 6.37085C40.7577 6.37085 40.9877 6.28307 41.1631 6.1077L42.737 4.53372C43.0879 4.18288 43.0879 3.61399 42.737 3.26306C42.3862 2.91231 41.8173 2.91231 41.4664 3.26306L39.8924 4.83704C39.5416 5.18787 39.5416 5.75677 39.8924 6.1077C40.068 6.28307 40.2979 6.37085 40.5278 6.37085Z" fill="#010F1C"/>
<path d="M28.5557 6.10761C28.7312 6.28298 28.9611 6.37076 29.191 6.37076C29.4209 6.37076 29.6509 6.28298 29.8263 6.10761C30.1771 5.75677 30.1771 5.18788 29.8263 4.83695L28.2524 3.26306C27.9016 2.91231 27.3327 2.91231 26.9818 3.26306C26.6309 3.6139 26.6309 4.18279 26.9818 4.53372L28.5557 6.10761Z" fill="#010F1C"/>
<path d="M34.8594 16.4614C37.7935 16.4614 40.1804 14.0744 40.1804 11.1404C40.1804 8.20639 37.7935 5.81934 34.8594 5.81934C31.9254 5.81934 29.5385 8.2063 29.5385 11.1404C29.5384 14.0744 31.9254 16.4614 34.8594 16.4614ZM34.8594 7.6163C36.8027 7.6163 38.3836 9.19728 38.3836 11.1405C38.3836 13.0837 36.8027 14.6646 34.8594 14.6646C32.9162 14.6646 31.3353 13.0837 31.3353 11.1405C31.3353 9.19728 32.9162 7.6163 34.8594 7.6163Z" fill="#010F1C"/>
<path d="M41.1631 16.1732C40.8122 15.8225 40.2433 15.8225 39.8924 16.1732C39.5416 16.5241 39.5416 17.0929 39.8924 17.4439L41.4664 19.0179C41.6418 19.1932 41.8717 19.281 42.1017 19.281C42.3316 19.281 42.5616 19.1932 42.7369 19.0179C43.0878 18.667 43.0878 18.0981 42.7369 17.7472L41.1631 16.1732Z" fill="#010F1C"/>
<path d="M28.5557 16.1732L26.9818 17.7472C26.6309 18.098 26.6309 18.6669 26.9818 19.0179C27.1572 19.1932 27.3871 19.281 27.617 19.281C27.847 19.281 28.077 19.1932 28.2523 19.0179L29.8263 17.4439C30.1771 17.093 30.1771 16.5241 29.8263 16.1732C29.4755 15.8225 28.9066 15.8225 28.5557 16.1732Z" fill="#010F1C"/>
<path d="M41.9773 11.1406C41.9773 11.6367 42.3795 12.0391 42.8757 12.0391H45.1016C45.5978 12.0391 46 11.6367 46 11.1406C46 10.6445 45.5978 10.2422 45.1016 10.2422H42.8757C42.3795 10.2422 41.9773 10.6445 41.9773 11.1406Z" fill="#010F1C"/>
<path d="M34.8594 4.02275C35.3556 4.02275 35.7578 3.62043 35.7578 3.12432V0.898438C35.7578 0.40232 35.3556 0 34.8594 0C34.3632 0 33.9609 0.40232 33.9609 0.898438V3.12423C33.9609 3.62043 34.3632 4.02275 34.8594 4.02275Z" fill="#010F1C"/>
<path d="M33.9609 19.1572V21.3831C33.9609 21.8792 34.3632 22.2815 34.8594 22.2815C35.3556 22.2815 35.7578 21.8792 35.7578 21.3831V19.1572C35.7578 18.6611 35.3556 18.2588 34.8594 18.2588C34.3632 18.2588 33.9609 18.661 33.9609 19.1572Z" fill="#010F1C"/>
<path d="M24.6173 12.0391H26.8432C27.3394 12.0391 27.7416 11.6367 27.7416 11.1406C27.7416 10.6445 27.3394 10.2422 26.8432 10.2422H24.6173C24.1211 10.2422 23.7189 10.6445 23.7189 11.1406C23.7189 11.6368 24.1211 12.0391 24.6173 12.0391Z" fill="#010F1C"/>
<path d="M45.1016 44.2028H32.7268V41.6872H43.1505C43.8277 41.6872 44.4519 41.3787 44.8633 40.8409C45.2747 40.303 45.4088 39.6197 45.2315 38.9662L41.8179 26.3882C41.5636 25.4511 40.7079 24.7967 39.7369 24.7967H18.9114C17.9405 24.7967 17.0847 25.4511 16.8305 26.3882L15.1378 32.6253V18.9804L18.6818 21.0265C19.794 21.6686 21.063 21.9996 22.3364 21.9995C22.9793 21.9995 23.6234 21.9152 24.2488 21.7438C24.7253 21.6134 25.0058 21.1178 24.8782 20.6406C24.3754 18.7586 23.1694 17.1856 21.4824 16.2116L15.2276 12.6004V5.42166C15.2276 3.47359 14.4684 1.64267 13.0868 0.263131C12.7373 -0.0864485 12.1711 -0.0877961 11.8198 0.259628C10.4456 1.61878 9.65741 3.50674 9.65741 5.43945V12.615L3.42786 16.2117C1.74079 17.1856 0.53473 18.7585 0.0307991 20.645C-0.0970478 21.1223 0.1847 21.6134 0.661409 21.7438C1.2869 21.9152 1.9308 21.9995 2.5739 21.9995C3.84707 21.9995 5.11628 21.6685 6.22845 21.0265L9.74734 18.9949V27.2673C9.74734 27.7634 10.1496 28.1657 10.6458 28.1657C11.142 28.1657 11.5442 27.7634 11.5442 27.2673V17.9576L12.4552 17.4316L13.3411 17.9431V44.2029H11.5442V35.3534C11.5442 34.8573 11.142 34.4549 10.6458 34.4549C10.1496 34.4549 9.74734 34.8573 9.74734 35.3534V44.2029H0.898685C0.402481 44.2029 0.000252367 44.6053 0.000252367 45.1014C0.000252367 45.5975 0.402481 45.9998 0.898685 45.9998H45.1016C45.5978 45.9998 46 45.5975 46 45.1014C46 44.6053 45.5978 44.2028 45.1016 44.2028ZM13.7373 14.223C13.7373 14.9369 13.1564 15.5177 12.4425 15.5177C11.7285 15.5177 11.1476 14.9369 11.1476 14.223C11.1476 13.509 11.7285 12.9281 12.4425 12.9281C13.1564 12.9281 13.7373 13.509 13.7373 14.223ZM22.8065 20.1833C21.6916 20.2789 20.5559 20.0338 19.5802 19.4704L14.4934 16.5336C14.9897 16.0927 15.3433 15.495 15.4759 14.8187L20.5839 17.7677C21.5675 18.3356 22.3339 19.1735 22.8065 20.1833ZM12.4505 2.28865C13.0876 3.20136 13.4307 4.28505 13.4307 5.42166V11.2942C13.1201 11.1891 12.7881 11.1313 12.4425 11.1313C12.0968 11.1313 11.7648 11.1891 11.4542 11.2942V5.43945C11.4543 4.31263 11.8099 3.20604 12.4505 2.28865ZM5.32993 19.4704C4.35414 20.0338 3.21799 20.2797 2.10312 20.1832C2.57489 19.1749 3.34188 18.336 4.3262 17.7677L9.41133 14.8318C9.54681 15.5073 9.90331 16.1034 10.4016 16.5424L5.32993 19.4704ZM22.6028 39.8904L23.0417 36.656H28.4178V39.8904H22.6028ZM15.4978 39.8904C15.3433 39.8904 15.2527 39.8021 15.2124 39.7493C15.1721 39.6967 15.1105 39.5861 15.1511 39.4368L15.9057 36.656H21.2283L20.7894 39.8904H15.4978ZM17.2712 31.6248H21.911L21.4722 34.8591H16.3934L17.2712 31.6248ZM28.4178 26.5936V29.8279H23.9682L24.4071 26.5936H28.4178ZM34.2253 26.5936L34.6642 29.8279H30.2146V26.5936H34.2253ZM42.255 34.8591H37.1603L36.7214 31.6248H41.3773L42.255 34.8591ZM35.3469 34.8591H30.2146V31.6248H34.908L35.3469 34.8591ZM28.4178 31.6248V34.8591H23.2855L23.7244 31.6248H28.4178ZM30.2146 36.656H35.5907L36.0296 39.8904H30.2146V36.656ZM43.436 39.7493C43.3958 39.8021 43.305 39.8904 43.1506 39.8904H37.843L37.4041 36.656H42.7427L43.4974 39.4368C43.5378 39.5861 43.4763 39.6967 43.436 39.7493ZM40.0837 26.8588L40.8895 29.8279H36.4775L36.0386 26.5936H39.7369C39.8987 26.5936 40.0414 26.7026 40.0837 26.8588ZM18.9114 26.5936H22.5938L22.1549 29.8279H17.7588L18.5646 26.8588C18.6071 26.7026 18.7496 26.5936 18.9114 26.5936ZM15.1378 41.6573C15.2555 41.6769 15.3758 41.6872 15.4978 41.6872H25.8987V44.2028H15.1378V41.6573ZM27.6956 44.2028V41.6872H30.9299V44.2028H27.6956Z" fill="#010F1C"/>
<path d="M10.6456 32.209C10.8819 32.209 11.1137 32.1137 11.2808 31.9457C11.4479 31.7786 11.5441 31.5468 11.5441 31.3105C11.5441 31.0743 11.4479 30.8425 11.2808 30.6754C11.1137 30.5082 10.8819 30.4121 10.6456 30.4121C10.4093 30.4121 10.1775 30.5082 10.0104 30.6754C9.84333 30.8426 9.74719 31.0743 9.74719 31.3105C9.74719 31.5468 9.84333 31.7786 10.0104 31.9457C10.1775 32.1137 10.4093 32.209 10.6456 32.209Z" fill="#010F1C"/>
</svg>
