<svg width="40" height="40" viewBox="0 0 40 40" fill="none" xmlns="http://www.w3.org/2000/svg">
<path d="M35.2413 5.53981C35.4412 5.53981 35.6412 5.46349 35.7937 5.31099L37.1624 3.94231C37.4674 3.63724 37.4674 3.14255 37.1624 2.83739C36.8573 2.53239 36.3626 2.53239 36.0574 2.83739L34.6888 4.20606C34.3837 4.51114 34.3837 5.00583 34.6888 5.31099C34.8414 5.46349 35.0413 5.53981 35.2413 5.53981Z" fill="#010F1C"/>
<path d="M24.8309 5.31103C24.9835 5.46353 25.1834 5.53986 25.3833 5.53986C25.5832 5.53986 25.7832 5.46353 25.9357 5.31103C26.2408 5.00595 26.2408 4.51126 25.9357 4.20611L24.5671 2.83751C24.262 2.53251 23.7674 2.53251 23.4622 2.83751C23.1571 3.14259 23.1571 3.63728 23.4622 3.94244L24.8309 5.31103Z" fill="#010F1C"/>
<path d="M30.3125 14.3145C32.8638 14.3145 34.9394 12.2389 34.9394 9.68758C34.9394 7.13625 32.8638 5.06055 30.3125 5.06055C27.7612 5.06055 25.6855 7.13617 25.6855 9.68758C25.6855 12.2389 27.7612 14.3145 30.3125 14.3145ZM30.3125 6.62312C32.0023 6.62312 33.3769 7.99789 33.3769 9.68765C33.3769 11.3774 32.0023 12.7521 30.3125 12.7521C28.6227 12.7521 27.248 11.3774 27.248 9.68765C27.248 7.99789 28.6227 6.62312 30.3125 6.62312Z" fill="#010F1C"/>
<path d="M35.7942 14.0638C35.4891 13.7588 34.9944 13.7588 34.6893 14.0638C34.3842 14.3689 34.3842 14.8636 34.6893 15.1688L36.0579 16.5374C36.2105 16.6899 36.4104 16.7663 36.6104 16.7663C36.8103 16.7663 37.0103 16.6899 37.1628 16.5374C37.4679 16.2323 37.4679 15.7377 37.1628 15.4325L35.7942 14.0638Z" fill="#010F1C"/>
<path d="M24.8309 14.0638L23.4622 15.4325C23.1571 15.7376 23.1571 16.2323 23.4622 16.5374C23.6148 16.6899 23.8147 16.7663 24.0146 16.7663C24.2145 16.7663 24.4146 16.6899 24.5671 16.5374L25.9357 15.1688C26.2408 14.8637 26.2408 14.369 25.9357 14.0638C25.6306 13.7588 25.136 13.7588 24.8309 14.0638Z" fill="#010F1C"/>
<path d="M36.502 9.6875C36.502 10.1189 36.8517 10.4688 37.2832 10.4688H39.2187C39.6502 10.4688 40 10.1189 40 9.6875C40 9.25609 39.6502 8.90625 39.2187 8.90625H37.2832C36.8517 8.90625 36.502 9.25609 36.502 9.6875Z" fill="#010F1C"/>
<path d="M30.3125 3.49817C30.744 3.49817 31.0938 3.14833 31.0938 2.71692V0.781372C31.0938 0.349966 30.744 0.00012207 30.3125 0.00012207C29.881 0.00012207 29.5312 0.349966 29.5312 0.781372V2.71684C29.5312 3.14833 29.881 3.49817 30.3125 3.49817Z" fill="#010F1C"/>
<path d="M29.5312 16.6586V18.5941C29.5312 19.0255 29.881 19.3754 30.3125 19.3754C30.744 19.3754 31.0938 19.0255 31.0938 18.5941V16.6586C31.0938 16.2272 30.744 15.8773 30.3125 15.8773C29.881 15.8773 29.5312 16.2271 29.5312 16.6586Z" fill="#010F1C"/>
<path d="M21.4062 10.4688H23.3418C23.7733 10.4688 24.123 10.1189 24.123 9.6875C24.123 9.25609 23.7733 8.90625 23.3418 8.90625H21.4062C20.9748 8.90625 20.625 9.25609 20.625 9.6875C20.625 10.119 20.9748 10.4688 21.4062 10.4688Z" fill="#010F1C"/>
<path d="M39.2187 38.4376H28.4581V36.2501H37.5222C38.111 36.2501 38.6538 35.9819 39.0116 35.5142C39.3693 35.0465 39.4859 34.4523 39.3317 33.8841L36.3634 22.9466C36.1423 22.1318 35.3981 21.5627 34.5538 21.5627H16.4447C15.6004 21.5627 14.8563 22.1318 14.6352 22.9466L13.1633 28.3702V16.5051L16.245 18.2843C17.2121 18.8427 18.3157 19.1305 19.4229 19.1304C19.982 19.1304 20.5421 19.057 21.086 18.908C21.5002 18.7946 21.7442 18.3637 21.6332 17.9487C21.196 16.3122 20.1473 14.9444 18.6803 14.0974L13.2414 10.9572V4.71485C13.2414 3.02088 12.5812 1.42878 11.3798 0.229176C11.0759 -0.0748064 10.5836 -0.0759782 10.278 0.226129C9.08313 1.408 8.39775 3.04971 8.39775 4.73032V10.9699L2.98075 14.0975C1.51373 14.9444 0.464982 16.3121 0.0267818 17.9525C-0.0843894 18.3676 0.160609 18.7946 0.575138 18.908C1.11904 19.057 1.67896 19.1304 2.23817 19.1304C3.34528 19.1304 4.44894 18.8426 5.41605 18.2843L8.47595 16.5177V23.7111C8.47595 24.1425 8.82571 24.4923 9.2572 24.4923C9.68868 24.4923 10.0384 24.1425 10.0384 23.7111V15.6156L10.8306 15.1583L11.6009 15.6031V38.4377H10.0384V30.7424C10.0384 30.311 9.68868 29.9612 9.2572 29.9612C8.82571 29.9612 8.47595 30.311 8.47595 30.7424V38.4377H0.781465C0.349983 38.4377 0.000219449 38.7875 0.000219449 39.2189C0.000219449 39.6503 0.349983 40.0002 0.781465 40.0002H39.2187C39.6502 40.0002 40 39.6503 40 39.2189C40 38.7875 39.6502 38.4376 39.2187 38.4376ZM11.9455 12.3682C11.9455 12.9889 11.4404 13.494 10.8195 13.494C10.1987 13.494 9.6936 12.9889 9.6936 12.3682C9.6936 11.7473 10.1987 11.2422 10.8195 11.2422C11.4404 11.2422 11.9455 11.7473 11.9455 12.3682ZM19.8317 17.551C18.8622 17.6342 17.8747 17.421 17.0263 16.9312L12.603 14.3775C13.0345 13.994 13.342 13.4743 13.4573 12.8862L17.899 15.4506C18.7543 15.9444 19.4208 16.673 19.8317 17.551ZM10.8265 1.99049C11.3805 2.78416 11.6789 3.7265 11.6789 4.71485V9.82139C11.4088 9.73006 11.1201 9.67975 10.8195 9.67975C10.519 9.67975 10.2302 9.73006 9.96016 9.82139V4.73032C9.96024 3.75048 10.2695 2.78822 10.8265 1.99049ZM4.63472 16.9312C3.78621 17.4211 2.79825 17.6349 1.8288 17.5509C2.23903 16.6742 2.90598 15.9447 3.76192 15.4506L8.18376 12.8976C8.30158 13.485 8.61158 14.0033 9.04485 14.385L4.63472 16.9312ZM19.6546 34.6876L20.0363 31.8752H24.7112V34.6876H19.6546ZM13.4764 34.6876C13.342 34.6876 13.2632 34.6108 13.2282 34.565C13.1931 34.5192 13.1396 34.423 13.1748 34.2933L13.8311 31.8752H18.4594L18.0778 34.6876H13.4764ZM15.0184 27.5002H19.0531L18.6714 30.3127H14.2551L15.0184 27.5002ZM24.7111 23.1252V25.9377H20.8419L21.2235 23.1252H24.7111ZM29.7611 23.1252L30.1428 25.9377H26.2736V23.1252H29.7611ZM36.7435 30.3127H32.3133L31.9317 27.5002H35.9802L36.7435 30.3127ZM30.7364 30.3127H26.2736V27.5002H30.3548L30.7364 30.3127ZM24.7111 27.5002V30.3127H20.2483L20.6299 27.5002H24.7111ZM26.2736 31.8752H30.9485L31.3301 34.6876H26.2736V31.8752ZM37.7705 34.565C37.7355 34.6108 37.6566 34.6876 37.5223 34.6876H32.907L32.5253 31.8752H37.1676L37.8238 34.2933C37.859 34.423 37.8055 34.5192 37.7705 34.565ZM34.8554 23.3558L35.5561 25.9377H31.7196L31.3379 23.1252H34.5538C34.6945 23.1252 34.8186 23.2201 34.8554 23.3558ZM16.4447 23.1252H19.6467L19.2651 25.9377H15.4425L16.1432 23.3558C16.18 23.2201 16.304 23.1252 16.4447 23.1252ZM13.1633 36.2241C13.2656 36.2411 13.3702 36.2501 13.4764 36.2501H22.5206V38.4376H13.1633V36.2241ZM24.0831 38.4376V36.2501H26.8956V38.4376H24.0831Z" fill="#010F1C"/>
<path d="M9.25684 28.0079C9.4623 28.0079 9.66387 27.925 9.80918 27.779C9.95449 27.6337 10.0381 27.4322 10.0381 27.2267C10.0381 27.0212 9.95449 26.8197 9.80918 26.6743C9.66387 26.529 9.4623 26.4454 9.25684 26.4454C9.05137 26.4454 8.8498 26.5289 8.70449 26.6743C8.55918 26.8197 8.47559 27.0212 8.47559 27.2267C8.47559 27.4322 8.55918 27.6337 8.70449 27.779C8.8498 27.9251 9.05137 28.0079 9.25684 28.0079Z" fill="#010F1C"/>
</svg>
