<svg width="130" height="130" viewBox="0 0 130 130" fill="none" xmlns="http://www.w3.org/2000/svg">
<g clip-path="url(#clip0_1149_151)">
<path d="M83.4326 37.6543C84.0831 35.7127 84.4408 33.637 84.4408 31.4765C84.4408 20.7396 75.7369 12.0356 65 12.0356C54.2631 12.0356 45.5591 20.7396 45.5591 31.4765C45.5591 33.637 45.9169 35.7127 46.5674 37.6543H83.4326Z" fill="#FFFA84"/>
<path d="M65 12.0354C63.6319 12.0354 62.2976 12.1783 61.0096 12.447C69.8321 14.2878 76.46 22.1074 76.46 31.4762C76.46 33.6367 76.1023 35.7124 75.4518 37.654H83.4328C84.0833 35.7124 84.4411 33.6367 84.4411 31.4762C84.4408 20.7396 75.7369 12.0354 65 12.0354Z" fill="#FFB30F"/>
<path d="M65 6.54672C63.9483 6.54672 63.0957 5.6941 63.0957 4.64242V1.9043C63.0957 0.852617 63.9483 0 65 0C66.0517 0 66.9043 0.852617 66.9043 1.9043V4.64242C66.9043 5.6941 66.0517 6.54672 65 6.54672Z" fill="#FFFA84"/>
<path d="M38.1659 33.3809H35.4278C34.3761 33.3809 33.5235 32.5282 33.5235 31.4766C33.5235 30.4249 34.3761 29.5723 35.4278 29.5723H38.1659C39.2176 29.5723 40.0702 30.4249 40.0702 31.4766C40.0702 32.5282 39.2179 33.3809 38.1659 33.3809Z" fill="#FFFA84"/>
<path d="M94.5722 33.3809H91.8341C90.7824 33.3809 89.9298 32.5282 89.9298 31.4766C89.9298 30.4249 90.7824 29.5723 91.8341 29.5723H94.5722C95.6239 29.5723 96.4765 30.4249 96.4765 31.4766C96.4765 32.5282 95.6239 33.3809 94.5722 33.3809Z" fill="#FFFA84"/>
<path d="M51.5848 10.1423C50.9267 10.1423 50.2866 9.80075 49.9339 9.18985L48.5649 6.81862C48.039 5.90786 48.3511 4.74319 49.2619 4.21735C50.1726 3.69151 51.3373 4.00356 51.8631 4.91433L53.2322 7.28556C53.758 8.19632 53.446 9.36099 52.5352 9.88683C52.2354 10.06 51.9078 10.1423 51.5848 10.1423Z" fill="#FFFA84"/>
<path d="M88.2406 19.9642C87.5824 19.9642 86.9423 19.6227 86.5897 19.0118C86.0638 18.101 86.3759 16.9363 87.2866 16.4105L89.6579 15.0414C90.5684 14.5153 91.733 14.8277 92.2591 15.7384C92.785 16.6492 92.4729 17.8138 91.5622 18.3397L89.1909 19.7087C88.8911 19.8819 88.5638 19.9642 88.2406 19.9642Z" fill="#FFFA84"/>
<path d="M41.7594 19.9642C41.4365 19.9642 41.1089 19.8819 40.8091 19.7087L38.4378 18.3397C37.5271 17.8138 37.215 16.6492 37.7409 15.7384C38.2667 14.8277 39.4314 14.5153 40.3421 15.0414L42.7134 16.4105C43.6241 16.9363 43.9362 18.101 43.4103 19.0118C43.0576 19.6224 42.4176 19.9642 41.7594 19.9642Z" fill="#FFFA84"/>
<path d="M78.4151 10.1424C78.0921 10.1424 77.7646 10.0601 77.4647 9.88694C76.554 9.3611 76.2419 8.19643 76.7678 7.28567L78.1368 4.91444C78.6627 4.00368 79.8273 3.69137 80.7381 4.21747C81.6489 4.74331 81.9609 5.90797 81.4351 6.81874L80.066 9.18997C79.7133 9.80061 79.0732 10.1424 78.4151 10.1424Z" fill="#FFFA84"/>
<path d="M60.1304 102.866H69.87V117.123H60.1304V102.866Z" fill="#CEE0C9"/>
<path d="M65.2539 102.866H69.8697V117.123H65.2539V102.866Z" fill="#57B33E"/>
<path d="M120.387 93.957H9.6129L8.19458 94.2109V100.581C8.19458 101.983 9.33132 103.12 10.7336 103.12H119.267C120.669 103.12 121.806 101.983 121.806 100.581V94.2109L120.387 93.957Z" fill="#57B33E"/>
<path d="M120.387 93.957H112.193L113.611 94.2109V100.581C113.611 101.983 112.474 103.12 111.072 103.12H119.266C120.669 103.12 121.805 101.983 121.805 100.581V94.2109L120.387 93.957Z" fill="#25870A"/>
<path d="M121.806 94.2109H8.19434L22.4849 39.2999C22.7762 38.1812 23.7862 37.4004 24.9422 37.4004H105.058C106.214 37.4004 107.224 38.1812 107.515 39.2999L121.806 94.2109Z" fill="#E9F5ED"/>
<path d="M121.806 94.2109H8.19434L22.4849 39.2999C22.7762 38.1812 23.7862 37.4004 24.9422 37.4004H105.058C106.214 37.4004 107.224 38.1812 107.515 39.2999L121.806 94.2109Z" fill="#E9F5ED"/>
<path d="M49.4965 61.5583L52.0353 37.4004H45.4492L37.8704 94.2109H46.0647L48.5684 70.3869C48.753 70.4102 48.9399 70.4262 49.1306 70.4262C51.5846 70.4262 53.574 68.4369 53.574 65.9829C53.5742 63.6525 51.7791 61.7447 49.4965 61.5583Z" fill="#CEE0C9"/>
<path d="M81.4313 70.3871C81.2467 70.4105 81.0598 70.4265 80.8691 70.4265C78.4151 70.4265 76.4258 68.4371 76.4258 65.9831C76.4258 63.6525 78.2209 61.7447 80.5035 61.5583L77.9645 37.4004H71.3477L75.9563 94.2109H83.9351L81.4313 70.3871Z" fill="#CEE0C9"/>
<path d="M107.515 39.2999C107.224 38.1812 106.214 37.4004 105.058 37.4004H96.8632C98.0193 37.4004 99.0293 38.1812 99.3205 39.2999L113.611 94.2109H121.805L107.515 39.2999Z" fill="#CEE0C9"/>
<path d="M80.8691 61.7937C81.4386 61.7937 81.9815 61.9089 82.4769 62.1156L79.8794 37.4004H76.05L78.6794 62.4185C79.3173 62.025 80.0658 61.7937 80.8691 61.7937Z" fill="#57B33E"/>
<path d="M77.0565 67.71C76.8166 67.1826 76.6797 66.5991 76.6797 65.9831C76.6797 65.2252 76.8851 64.5156 77.2386 63.9014H52.7612C53.1147 64.5156 53.3201 65.225 53.3201 65.9831C53.3201 66.5991 53.183 67.1826 52.9433 67.71H77.0565Z" fill="#57B33E"/>
<path d="M85.0586 65.9831C85.0586 66.5991 84.9215 67.1826 84.6818 67.71H114.909L113.918 63.9014H84.4998C84.8532 64.5156 85.0586 65.2252 85.0586 65.9831Z" fill="#57B33E"/>
<path d="M44.9414 65.9831C44.9414 65.2252 45.1468 64.5156 45.5003 63.9014H16.0824L15.0912 67.71H45.3182C45.0785 67.1829 44.9414 66.5991 44.9414 65.9831Z" fill="#57B33E"/>
<path d="M49.1309 61.7937C49.9342 61.7937 50.6827 62.025 51.3208 62.4185L53.9503 37.4004H50.1208L47.5234 62.1156C48.0185 61.9089 48.5613 61.7937 49.1309 61.7937Z" fill="#57B33E"/>
<path d="M80.8692 70.1726C80.3774 70.1726 79.9071 70.083 79.4684 69.9266L82.0206 94.2109H85.8501L83.2455 69.4294C82.5696 69.8971 81.7515 70.1726 80.8692 70.1726Z" fill="#57B33E"/>
<path d="M49.1308 70.1726C48.2485 70.1726 47.4304 69.8971 46.7545 69.4294L44.15 94.2109H47.9794L50.5316 69.9266C50.0929 70.083 49.6227 70.1726 49.1308 70.1726Z" fill="#57B33E"/>
<path d="M90.7388 126.445V126.343C90.7388 121.111 86.4972 116.869 81.265 116.869H48.735C43.5028 116.869 39.2613 121.111 39.2613 126.343V126.445H90.7388Z" fill="#57B33E"/>
<path d="M80.1689 126.343V126.445H90.7387V126.343C90.7387 121.111 86.4972 116.869 81.265 116.869H70.6951C75.9274 116.869 80.1689 121.111 80.1689 126.343Z" fill="#25870A"/>
<path d="M121.806 130H8.19434C7.14266 130 6.29004 129.147 6.29004 128.096C6.29004 127.044 7.14266 126.191 8.19434 126.191H121.805C122.857 126.191 123.71 127.044 123.71 128.096C123.71 129.147 122.857 130 121.806 130Z" fill="#CEE0C9"/>
<path d="M49.1309 70.4265C51.5849 70.4265 53.5742 68.4372 53.5742 65.9832C53.5742 63.5292 51.5849 61.5398 49.1309 61.5398C46.6769 61.5398 44.6875 63.5292 44.6875 65.9832C44.6875 68.4372 46.6769 70.4265 49.1309 70.4265Z" fill="white"/>
<path d="M80.8691 70.4265C83.3231 70.4265 85.3125 68.4372 85.3125 65.9832C85.3125 63.5292 83.3231 61.5398 80.8691 61.5398C78.4151 61.5398 76.4258 63.5292 76.4258 65.9832C76.4258 68.4372 78.4151 70.4265 80.8691 70.4265Z" fill="white"/>
<path d="M80.8691 61.5398C80.1866 61.5398 79.5427 61.6982 78.9648 61.9732C80.4647 62.6869 81.5039 64.2117 81.5039 65.9832C81.5039 67.7547 80.4647 69.2794 78.9648 69.9931C79.5427 70.2681 80.1866 70.4265 80.8691 70.4265C83.3231 70.4265 85.3125 68.4372 85.3125 65.9832C85.3125 63.5292 83.3231 61.5398 80.8691 61.5398Z" fill="#F2FBFF"/>
<path d="M49.1309 61.5398C48.4484 61.5398 47.8045 61.6982 47.2266 61.9732C48.7264 62.6869 49.7656 64.2117 49.7656 65.9832C49.7656 67.7547 48.7264 69.2794 47.2266 69.9931C47.8045 70.2681 48.4484 70.4265 49.1309 70.4265C51.5849 70.4265 53.5742 68.4372 53.5742 65.9832C53.5742 63.5292 51.5849 61.5398 49.1309 61.5398Z" fill="#F2FBFF"/>
</g>
<defs>
<clipPath id="clip0_1149_151">
<rect width="130" height="130" fill="white"/>
</clipPath>
</defs>
</svg>
