<svg width="130" height="130" viewBox="0 0 130 130" fill="none" xmlns="http://www.w3.org/2000/svg">
<path d="M33.997 125.076L31.4955 84.3425C30.9439 84.6577 30.3136 84.8547 29.6242 84.8547C28.9348 84.8547 28.3045 84.6577 27.753 84.3425L25.2515 125.076H33.997Z" fill="white"/>
<g opacity="0.4">
<path d="M31.4955 84.3425C30.9439 84.6577 30.3136 84.8547 29.6242 84.8547L29.6636 112.785C29.6636 115.227 31.3182 117.276 33.5439 117.906L31.4955 84.3425Z" fill="white"/>
</g>
<path d="M29.6242 84.8349C31.7455 84.8349 33.4651 83.1153 33.4651 80.994C33.4651 78.8727 31.7455 77.1531 29.6242 77.1531C27.503 77.1531 25.7833 78.8727 25.7833 80.994C25.7833 83.1153 27.503 84.8349 29.6242 84.8349Z" fill="white"/>
<g opacity="0.15">
<path d="M29.6242 77.1531C29.3288 77.1531 29.053 77.1925 28.7773 77.2516C28.7182 77.5273 28.6788 77.8031 28.6788 78.0985C28.6788 80.2258 30.3924 81.9394 32.5197 81.9394C32.8152 81.9394 33.0909 81.9 33.3667 81.841C33.4258 81.5652 33.4651 81.2894 33.4651 80.994C33.4651 78.8667 31.7515 77.1531 29.6242 77.1531Z" fill="white"/>
</g>
<path d="M25.7833 80.9941C25.7833 80.7971 25.803 80.6001 25.8424 80.4229H21.3515L5.98788 92.7728C5.2 93.4031 5.92879 94.6244 6.85454 94.2501L25.0939 86.785L26.8273 83.6335C26.1773 82.9244 25.7833 82.0183 25.7833 80.9941Z" fill="#57B33E"/>
<path d="M53.2606 92.7728L37.9167 80.4229H33.4258C33.4455 80.6198 33.4848 80.7971 33.4848 80.9941C33.4848 82.0183 33.0909 82.9244 32.4409 83.6138L34.1742 86.7653L52.4136 94.2304C53.3197 94.6244 54.0485 93.3835 53.2606 92.7728Z" fill="#57B33E"/>
<path d="M29.6242 77.1532C30.1561 77.1532 30.6682 77.2714 31.1409 77.4684L33.3273 73.785L30.4909 54.285C30.353 53.3002 28.9151 53.3002 28.7773 54.285L25.9409 73.785L28.1273 77.4684C28.5803 77.2714 29.0924 77.1532 29.6242 77.1532Z" fill="#57B33E"/>
<g opacity="0.2">
<path d="M26.0394 82.3335L5.73182 93.7971C5.57424 93.4622 5.61363 93.0683 5.96818 92.7728L21.3318 80.4229H25.8227C25.803 80.6198 25.7636 80.7971 25.7636 80.9941C25.7636 81.4668 25.8621 81.9198 26.0394 82.3335Z" fill="white"/>
</g>
<g opacity="0.2">
<path d="M53.3788 93.9941L33.2485 82.2547C33.3864 81.8607 33.4652 81.4471 33.4652 80.9941C33.4652 80.7971 33.4258 80.6198 33.4061 80.4229H37.897L53.2606 92.7728C53.6939 93.1274 53.6545 93.6395 53.3788 93.9941Z" fill="white"/>
</g>
<g opacity="0.2">
<path d="M33.3076 73.7849L31.1212 77.4683C30.6682 77.2713 30.1561 77.1531 29.6045 77.1531V53.5562C29.9985 53.5562 30.3924 53.7925 30.4712 54.2849L33.3076 73.7849Z" fill="white"/>
</g>
<path d="M36.4394 26.3348C36.4394 31.6333 32.1258 35.9469 26.8273 35.9469C21.5091 35.9469 17.2152 31.6333 17.2152 26.3348C17.2152 21.0166 21.5091 16.7227 26.8273 16.7227C32.1258 16.7227 36.4394 21.0166 36.4394 26.3348Z" fill="#FFB30F"/>
<path d="M87.4152 115.877L91.2955 89.1289C91.4333 88.1835 92.2409 87.4744 93.2061 87.4744H120.25C121.215 87.4744 122.023 88.1835 122.161 89.1289L126.041 115.877C126.218 117.04 125.312 118.083 124.13 118.083H89.3258C88.1439 118.103 87.2379 117.04 87.4152 115.877Z" fill="#7CB5E8"/>
<path d="M102.621 118.103H110.815V125.076H102.621V118.103Z" fill="white"/>
<g opacity="0.15">
<path d="M105.595 120.211C105.595 121.255 106.442 122.102 107.486 122.102H110.815V118.103H105.595V120.211Z" fill="white"/>
</g>
<g opacity="0.2">
<path d="M26.8273 16.7227C26.0197 16.7227 25.2515 16.8408 24.503 17.0378C24.3258 17.7863 24.1879 18.5545 24.1879 19.3621C24.1879 24.6605 28.4818 28.9742 33.8 28.9742C34.6076 28.9742 35.3758 28.856 36.1045 28.659C36.2818 27.9105 36.4197 27.1424 36.4197 26.3545C36.4394 21.0166 32.1258 16.7227 26.8273 16.7227Z" fill="white"/>
</g>
<g opacity="0.2">
<path d="M122.161 89.1289C122.023 88.1835 121.215 87.4744 120.25 87.4744H102.089V101.223C102.089 106.896 106.698 111.505 112.371 111.505H125.411L122.161 89.1289Z" fill="white"/>
</g>
<g opacity="0.2">
<path d="M122.161 89.1289C122.023 88.1835 121.215 87.4744 120.25 87.4744H106.029V101.223C106.029 104.729 108.865 107.565 112.371 107.565H124.839L122.161 89.1289Z" fill="white"/>
</g>
<g opacity="0.2">
<path d="M122.161 89.1289C122.023 88.1835 121.215 87.4744 120.25 87.4744H108.589C108.589 89.7592 110.441 91.6304 112.745 91.6304H116.114C117.079 91.6304 117.886 92.3395 118.024 93.285L119.048 100.376C119.344 102.424 121.097 103.921 123.145 103.921H124.308L122.161 89.1289Z" fill="white"/>
</g>
<path d="M82.0576 125.076L78.197 53.0439C77.3303 53.5167 76.3455 53.8318 75.2818 53.8318C74.2182 53.8318 73.2333 53.5167 72.3667 53.0439L68.5061 125.076H82.0576Z" fill="white"/>
<g opacity="0.4">
<path d="M78.197 53.0439C77.3303 53.5167 76.3455 53.8318 75.2818 53.8318C74.9864 53.8318 74.7106 53.8121 74.4348 53.753L74.4939 96.9288C74.4939 100.592 77.3303 103.567 80.9152 103.862L78.197 53.0439Z" fill="white"/>
</g>
<path d="M75.2818 53.832C78.5671 53.832 81.2303 51.1688 81.2303 47.8835C81.2303 44.5983 78.5671 41.9351 75.2818 41.9351C71.9966 41.9351 69.3333 44.5983 69.3333 47.8835C69.3333 51.1688 71.9966 53.832 75.2818 53.832Z" fill="white"/>
<path d="M69.3333 47.8834C69.3333 47.5879 69.3727 47.2924 69.4318 46.997L62.4788 46.9773L38.7242 66.0834C37.5227 67.0485 38.6455 68.9591 40.0833 68.3682L68.3091 56.8061L70.9879 51.9212C69.9439 50.8773 69.3333 49.4591 69.3333 47.8834Z" fill="#57B33E"/>
<path d="M111.859 66.0834L88.1046 46.9773L81.1515 46.997C81.1909 47.2924 81.25 47.5879 81.25 47.8834C81.25 49.4591 80.6197 50.8773 79.6349 51.9409L82.3136 56.8258L110.539 68.3879C111.958 68.9591 113.08 67.0682 111.859 66.0834Z" fill="#57B33E"/>
<path d="M75.2818 41.9152C76.1091 41.9152 76.897 42.0925 77.6258 42.388L80.9939 36.6955L76.6015 6.53948C76.3848 5.00312 74.1591 5.00312 73.9424 6.53948L69.55 36.7152L72.9182 42.4077C73.647 42.0925 74.4545 41.9152 75.2818 41.9152Z" fill="#57B33E"/>
<g opacity="0.15">
<path d="M75.2818 41.9153C74.75 41.9153 74.2379 42.0138 73.7455 42.1319C73.6076 42.6244 73.5288 43.1365 73.5288 43.6683C73.5288 46.9577 76.1879 49.6168 79.4773 49.6168C80.0091 49.6168 80.5212 49.5183 81.0136 49.4001C81.1515 48.9077 81.2303 48.3956 81.2303 47.8638C81.2303 44.5941 78.5712 41.9153 75.2818 41.9153Z" fill="white"/>
</g>
<g opacity="0.2">
<path d="M76.6015 6.5394C76.4833 5.77121 75.8727 5.39697 75.2621 5.39697V41.9349C76.0894 41.9349 76.8773 42.1121 77.6061 42.4076L80.9742 36.7152L76.6015 6.5394Z" fill="white"/>
</g>
<g opacity="0.2">
<path d="M111.859 66.0834L88.1045 46.9773L81.1515 46.997C81.1909 47.2924 81.25 47.5879 81.25 47.8834C81.25 48.5334 81.1121 49.144 80.9348 49.7349L112.076 67.9743C112.47 67.4424 112.529 66.6152 111.859 66.0834Z" fill="white"/>
</g>
<g opacity="0.2">
<path d="M69.3334 47.8834C69.3334 47.5879 69.3728 47.2924 69.4319 46.997L62.4789 46.9773L38.7243 66.0834C38.0546 66.6152 38.1137 67.4227 38.5273 67.9546L69.6683 49.6561C69.4516 49.1046 69.3334 48.5137 69.3334 47.8834Z" fill="white"/>
</g>
<path d="M88.1045 126.553H62.4788C61.6712 126.553 61.0015 125.883 61.0015 125.076C61.0015 124.268 61.6712 123.599 62.4788 123.599H88.1045C88.9121 123.599 89.5818 124.268 89.5818 125.076C89.5818 125.883 88.9318 126.553 88.1045 126.553Z" fill="white"/>
<path d="M37.9167 126.553H21.3515C20.5439 126.553 19.8742 125.883 19.8742 125.076C19.8742 124.268 20.5439 123.599 21.3515 123.599H37.9167C38.7242 123.599 39.3939 124.268 39.3939 125.076C39.3939 125.883 38.7242 126.553 37.9167 126.553Z" fill="white"/>
<path d="M26.8667 12.6652C26.0591 12.6652 25.4091 12.0152 25.4091 11.2076V4.9046C25.4091 4.09702 26.0591 3.44702 26.8667 3.44702C27.6742 3.44702 28.3242 4.09702 28.3242 4.9046V11.2076C28.3242 12.0152 27.6742 12.6652 26.8667 12.6652Z" fill="white"/>
<path d="M21.0561 13.8075C20.4848 13.8075 19.9333 13.4727 19.7167 12.9015L18.3379 9.57267C18.0227 8.84388 18.3773 7.97722 19.1258 7.68176C19.8742 7.36661 20.7212 7.72116 21.0364 8.46964L22.4152 11.7984C22.7303 12.5469 22.3758 13.3939 21.6273 13.709C21.45 13.7681 21.253 13.8075 21.0561 13.8075Z" fill="white"/>
<path d="M12.8621 21.9818C12.6848 21.9818 12.4879 21.9424 12.3106 21.8636L8.98182 20.4848C8.23333 20.1894 7.87879 19.3424 8.19394 18.5939C8.50909 17.8454 9.35606 17.4909 10.1045 17.806L13.4333 19.1848C14.1818 19.5 14.5364 20.3469 14.2212 21.0954C13.9848 21.6469 13.4333 21.9818 12.8621 21.9818Z" fill="white"/>
<path d="M9.51364 34.9622C8.94242 34.9622 8.39091 34.6273 8.17424 34.0561C7.85909 33.3076 8.21364 32.4607 8.96212 32.1455L12.2909 30.7667C13.0394 30.4516 13.8864 30.8061 14.2015 31.5546C14.5167 32.3031 14.1621 33.1501 13.4136 33.4652L10.0848 34.844C9.88788 34.9228 9.7106 34.9622 9.51364 34.9622Z" fill="white"/>
<path d="M19.6576 45.106C19.4803 45.106 19.2833 45.0666 19.1061 44.9878C18.3576 44.6727 18.003 43.8257 18.3182 43.0772L19.697 39.7484C20.0121 39 20.8591 38.6454 21.6076 38.9606C22.3561 39.2757 22.7106 40.1227 22.3955 40.8712L21.0167 44.2C20.7606 44.7712 20.2288 45.106 19.6576 45.106Z" fill="white"/>
<path d="M33.997 45.1258C33.4258 45.1258 32.8742 44.791 32.6576 44.2197L31.2788 40.891C30.9636 40.1425 31.3182 39.2955 32.0667 38.9803C32.8152 38.6652 33.6621 39.0197 33.9773 39.7682L35.3561 43.097C35.6712 43.8455 35.3167 44.6925 34.5682 45.0076C34.3712 45.0864 34.1742 45.1258 33.997 45.1258Z" fill="white"/>
<path d="M44.1409 34.982C43.9636 34.982 43.7667 34.9426 43.5894 34.8638L40.2606 33.485C39.5121 33.1698 39.1576 32.3229 39.4727 31.5744C39.7879 30.8259 40.6348 30.4713 41.3833 30.7865L44.7121 32.1653C45.4606 32.4804 45.8152 33.3274 45.5 34.0759C45.2636 34.6471 44.7121 34.982 44.1409 34.982Z" fill="white"/>
<path d="M40.8318 22.0213C40.2606 22.0213 39.7091 21.6864 39.4924 21.1152C39.1773 20.3667 39.5318 19.5197 40.2803 19.2046L43.6091 17.8258C44.3576 17.5107 45.2045 17.8652 45.5197 18.6137C45.8349 19.3622 45.4803 20.2091 44.7318 20.5243L41.403 21.9031C41.2061 22.0016 41.0091 22.0213 40.8318 22.0213Z" fill="white"/>
<path d="M32.6576 13.8272C32.4803 13.8272 32.2833 13.7878 32.1061 13.709C31.3576 13.3939 31.003 12.5469 31.3182 11.7984L32.697 8.46964C33.0121 7.72116 33.8591 7.36661 34.6076 7.68176C35.3561 7.99691 35.7106 8.84388 35.3955 9.59237L34.0167 12.9212C33.7606 13.4924 33.2288 13.8272 32.6576 13.8272Z" fill="white"/>
<path d="M16.1515 17.0773C15.7773 17.0773 15.403 16.9394 15.1273 16.644L10.6758 12.2122C10.1045 11.641 10.1045 10.7152 10.6758 10.144C11.247 9.57277 12.1727 9.57277 12.7439 10.144L17.1955 14.5955C17.7667 15.1667 17.7667 16.0925 17.1955 16.6637C16.9 16.9394 16.5258 17.0773 16.1515 17.0773Z" fill="white"/>
<path d="M11.7 27.7728H5.39697C4.60909 27.7728 3.93939 27.1228 3.93939 26.3152C3.93939 25.5077 4.58939 24.8577 5.39697 24.8577H11.7C12.5076 24.8577 13.1576 25.5077 13.1576 26.3152C13.1576 27.1228 12.5076 27.7728 11.7 27.7728Z" fill="white"/>
<path d="M11.6606 42.9395C11.2864 42.9395 10.9121 42.8017 10.6364 42.5062C10.0651 41.935 10.0651 41.0092 10.6364 40.438L15.0879 35.9865C15.6591 35.4153 16.5848 35.4153 17.1561 35.9865C17.7273 36.5577 17.7273 37.4835 17.1561 38.0547L12.7045 42.5062C12.4091 42.8017 12.0348 42.9395 11.6606 42.9395Z" fill="white"/>
<path d="M26.8273 49.2426C26.0197 49.2426 25.3697 48.5926 25.3697 47.785V41.482C25.3697 40.6744 26.0197 40.0244 26.8273 40.0244C27.6348 40.0244 28.2848 40.6744 28.2848 41.482V47.785C28.2848 48.5729 27.6151 49.2426 26.8273 49.2426Z" fill="white"/>
<path d="M41.9742 42.9788C41.6 42.9788 41.2258 42.841 40.95 42.5455L36.4985 38.094C35.9273 37.5228 35.9273 36.597 36.4985 36.0258C37.0697 35.4546 37.9955 35.4546 38.5667 36.0258L43.0182 40.4773C43.5894 41.0485 43.5894 41.9743 43.0182 42.5455C42.7227 42.8213 42.3485 42.9788 41.9742 42.9788Z" fill="white"/>
<path d="M48.2773 27.8121H41.9742C41.1667 27.8121 40.5167 27.1621 40.5167 26.3545C40.5167 25.547 41.1667 24.897 41.9742 24.897H48.2773C49.0848 24.897 49.7348 25.547 49.7348 26.3545C49.7348 27.1621 49.0848 27.8121 48.2773 27.8121Z" fill="white"/>
<path d="M37.5621 17.1168C37.1879 17.1168 36.8136 16.9789 36.5379 16.6835C35.9667 16.1122 35.9667 15.1865 36.5379 14.6153L40.9894 10.1638C41.5606 9.59255 42.4864 9.59255 43.0576 10.1638C43.6288 10.735 43.6288 11.6607 43.0576 12.2319L38.6061 16.6835C38.3106 16.9789 37.9364 17.1168 37.5621 17.1168Z" fill="white"/>
<path d="M125.489 112.095L125.076 109.18H117.158V104.256H124.17C124.229 104.256 124.288 104.236 124.347 104.217L123.933 101.302H117.158V96.3773H123.027C123.086 96.3773 123.145 96.3576 123.205 96.3379L122.791 93.4228H117.158V87.4546H114.203V93.4228H108.215V87.4546H105.261V93.4228H99.2924V87.4546H96.3379V93.4228H90.6652L90.2515 96.3379C90.3303 96.3576 90.3894 96.3773 90.4682 96.3773H96.3576V101.302H89.5424L89.1288 104.217C89.2076 104.236 89.2667 104.256 89.3455 104.256H96.3773V109.18H88.4197L88.0061 112.095C88.0849 112.115 88.1439 112.135 88.2424 112.135H96.397V118.103H99.3515V112.135H105.32V118.103H108.274V112.135H114.262V118.103H117.217V112.135H125.352C125.352 112.135 125.411 112.095 125.489 112.095ZM105.261 109.18H99.2924V104.256H105.261V109.18ZM105.261 101.302H99.2924V96.3773H105.261V101.302ZM114.183 109.18H108.195V104.256H114.183V109.18ZM114.183 101.302H108.195V96.3773H114.183V101.302Z" fill="white"/>
<path d="M116.961 126.553H96.4955C95.6879 126.553 95.0182 125.883 95.0182 125.076C95.0182 124.268 95.6879 123.599 96.4955 123.599H116.961C117.768 123.599 118.438 124.268 118.438 125.076C118.438 125.883 117.788 126.553 116.961 126.553Z" fill="white"/>
<path d="M120.605 16.7622H97.5197C93.9742 16.7622 91.0788 13.8864 91.0788 10.3213C91.0788 6.77583 93.9545 3.88037 97.5197 3.88037C98.3273 3.88037 98.997 4.55007 98.997 5.35764C98.997 6.16522 98.3273 6.83492 97.5197 6.83492C95.6091 6.83492 94.0333 8.39098 94.0333 10.3213C94.0333 12.2319 95.5894 13.8076 97.5197 13.8076H120.624C121.432 13.8076 122.102 14.4773 122.102 15.2849C122.082 16.1122 121.432 16.7622 120.605 16.7622Z" fill="white"/>
<path d="M104.886 33.9971C101.341 33.9971 98.4652 31.1213 98.4652 27.5561C98.4652 24.0107 101.341 21.1152 104.886 21.1152H124.052C124.859 21.1152 125.529 21.7849 125.529 22.5925C125.529 23.4001 124.859 24.0698 124.052 24.0698H104.886C102.976 24.0698 101.42 25.6258 101.42 27.5561C101.42 29.4667 102.976 31.0425 104.886 31.0425C105.694 31.0425 106.364 31.7122 106.364 32.5198C106.364 33.3274 105.714 33.9971 104.886 33.9971Z" fill="white"/>
</svg>
