<svg width="60" height="60" viewBox="0 0 60 60" fill="none" xmlns="http://www.w3.org/2000/svg">
<g clip-path="url(#clip0_932_70)">
<path d="M47.716 17.7159C47.716 7.94729 39.7687 0 30.0001 0C20.2314 0 12.284 7.94729 12.284 17.7159C12.284 27.4845 20.2313 35.4318 29.9999 35.4318C39.7686 35.4318 47.716 27.4845 47.716 17.7159ZM23.1273 21.9581H26.6427C26.6427 23.1761 27.6336 24.1669 28.8516 24.1669H31.1091C32.3664 24.1669 33.3894 23.1439 33.3894 21.8866C33.3894 20.6293 32.3665 19.6063 31.1091 19.6063H28.8911C25.6953 19.6063 23.0953 17.0063 23.0953 13.8105C23.0953 10.8341 25.3509 8.3757 28.2424 8.05205V5.12676H31.7578V8.05861C34.626 8.40535 36.8564 10.8529 36.8564 13.8131H33.341C33.341 12.5544 32.317 11.5303 31.0583 11.5303H28.8912C27.6338 11.5303 26.6109 12.5532 26.6109 13.8105C26.6109 15.0679 27.6338 16.0909 28.8912 16.0909H31.1092C34.3049 16.0909 36.9049 18.6909 36.9049 21.8865C36.9049 24.8629 34.6493 27.3213 31.7579 27.645V30.5704H28.2425V27.6494C25.3714 27.3444 23.1273 24.9086 23.1273 21.9581Z" fill="#57B33E"/>
<path d="M41.6842 35.4338C38.3304 37.6529 34.3138 38.9474 30 38.9474C25.6863 38.9474 21.6696 37.653 18.3159 35.4338V43.1283H12.3364V45.6699L30 60L47.6636 45.6699V43.1283H41.6841L41.6842 35.4338Z" fill="#57B33E"/>
</g>
<defs>
<clipPath id="clip0_932_70">
<rect width="60" height="60" fill="white"/>
</clipPath>
</defs>
</svg>
