<svg width="60" height="60" viewBox="0 0 60 60" fill="none" xmlns="http://www.w3.org/2000/svg">
<path d="M29.3438 0.211377C29.1446 0.340333 28.9219 0.609968 28.8399 0.820986C28.6407 1.40715 28.6641 6.21368 28.8751 6.7295C29.0508 7.13982 29.5665 7.49152 30.0001 7.49152C30.4336 7.49152 30.9493 7.13982 31.1251 6.7295C31.254 6.4247 31.2891 5.70958 31.2891 3.74008C31.2891 0.867879 31.2188 0.492735 30.5977 0.176208C30.129 -0.0699806 29.7891 -0.0582576 29.3438 0.211377Z" fill="#57B33E"/>
<path d="M8.836 8.82789C8.37897 9.28509 8.30866 9.82436 8.62507 10.305C8.94147 10.7857 12.2227 14.0565 12.5626 14.244C13.7227 14.8536 14.8594 13.7165 14.2501 12.5559C14.0508 12.1807 10.5938 8.74582 10.2305 8.55825C9.73835 8.31206 9.25788 8.40585 8.836 8.82789Z" fill="#57B33E"/>
<path d="M49.6877 8.61687C49.2072 8.93339 45.9377 12.2159 45.7502 12.5559C45.1408 13.7165 46.2775 14.8536 47.4377 14.244C47.7775 14.0565 51.0588 10.7857 51.3752 10.305C51.6916 9.82436 51.6213 9.28509 51.1642 8.82788C50.7072 8.37068 50.1681 8.30034 49.6877 8.61687Z" fill="#57B33E"/>
<path d="M33.2227 10.141C32.9766 10.2583 30.4922 13.4939 25.3125 20.4106C21.1524 25.9557 17.6836 30.6567 17.6016 30.8443C17.4141 31.2898 17.5899 31.8877 18.0117 32.2277C18.3047 32.4504 18.4805 32.4621 22.8281 32.4621H27.3399L27.2696 32.8959C27.2344 33.1421 26.7422 36.8349 26.1797 41.1139C25.4414 46.7293 25.1836 48.9685 25.2656 49.1912C25.5117 49.8711 26.4727 50.1877 27.0938 49.7891C27.4219 49.5663 42.3633 26.9287 42.4805 26.4598C42.5977 26.0143 42.2461 25.3696 41.7774 25.1468C41.4492 24.9827 40.7578 24.9592 37.0664 24.9592H32.7305L33.8906 18.0308C35.0039 11.372 35.0391 11.0906 34.8516 10.7155C34.6758 10.3403 34.0899 9.95348 33.7266 9.95348C33.6446 9.95348 33.4219 10.0355 33.2227 10.141ZM30.8086 21.3016C30.0586 25.8033 29.9766 26.3895 30.1172 26.7177C30.4336 27.468 30.4571 27.468 34.8633 27.5384L38.8594 27.597L33.75 35.3578C30.9492 39.6367 28.5938 43.1772 28.5235 43.2475C28.4649 43.3061 28.7696 40.6567 29.2031 37.3507C29.6485 34.0565 29.9766 31.1843 29.9414 30.985C29.9063 30.7857 29.7422 30.4926 29.5781 30.3402L29.2735 30.0589L25.3008 30.0237C23.1094 30.012 21.3281 29.9533 21.3516 29.8947C21.4102 29.7306 31.5821 16.1902 31.6172 16.2254C31.6289 16.2371 31.2656 18.5232 30.8086 21.3016Z" fill="#57B33E"/>
<path d="M0.738281 28.8858C0.351562 29.05 0 29.5777 0 29.9998C0 30.4337 0.351562 30.9497 0.761719 31.1256C1.06641 31.2546 1.78125 31.2897 3.75 31.2897C5.71875 31.2897 6.43359 31.2546 6.73828 31.1256C7.14844 30.9497 7.5 30.4337 7.5 29.9998C7.5 29.5659 7.14844 29.05 6.73828 28.8741C6.17578 28.6395 1.28906 28.6395 0.738281 28.8858Z" fill="#57B33E"/>
<path d="M53.2383 28.8858C52.8516 29.05 52.5 29.5777 52.5 29.9998C52.5 30.4337 52.8516 30.9497 53.2617 31.1256C53.5664 31.2546 54.2812 31.2897 56.25 31.2897C58.2188 31.2897 58.9336 31.2546 59.2383 31.1256C59.6484 30.9497 60 30.4337 60 29.9998C60 29.5659 59.6484 29.05 59.2383 28.8741C58.6758 28.6395 53.7891 28.6395 53.2383 28.8858Z" fill="#57B33E"/>
<path d="M12.5976 45.7212C12.2694 45.9088 9.1874 48.9568 8.77724 49.5078C8.29678 50.1526 8.32021 50.6567 8.83584 51.1725C9.29287 51.6297 9.83193 51.7001 10.3124 51.3835C10.7929 51.067 14.0624 47.7845 14.2499 47.4445C14.7069 46.5887 14.1796 45.5922 13.2772 45.5922C13.0312 45.5922 12.7265 45.6626 12.5976 45.7212Z" fill="#57B33E"/>
<path d="M45.9258 45.9322C45.5391 46.3191 45.4688 46.9052 45.75 47.4445C45.9375 47.7845 49.2071 51.067 49.6875 51.3835C50.168 51.7001 50.7071 51.6297 51.1641 51.1725C51.6797 50.6567 51.7032 50.1526 51.2227 49.5078C50.8243 48.9803 47.8946 46.0729 47.461 45.7798C46.9922 45.475 46.3243 45.5336 45.9258 45.9322Z" fill="#57B33E"/>
<path d="M29.3438 52.7316C28.7812 53.0716 28.7109 53.4467 28.7109 56.2837C28.7109 59.1325 28.7812 59.5076 29.4023 59.8242C29.8477 60.0586 30.1523 60.0586 30.5977 59.8242C31.2188 59.5076 31.2891 59.1325 31.2891 56.2603C31.2891 53.3881 31.2188 53.0129 30.5977 52.6964C30.1289 52.4502 29.7891 52.4619 29.3438 52.7316Z" fill="#57B33E"/>
</svg>
