<svg width="60" height="60" viewBox="0 0 60 60" fill="none" xmlns="http://www.w3.org/2000/svg">
<path d="M20.033 0.223392C19.8102 0.34058 19.4702 0.633545 19.2708 0.867916C18.9425 1.27807 18.919 1.39525 18.8839 2.41477L18.837 3.51632H18.2624C17.7934 3.51632 17.6175 3.57491 17.3947 3.80928C17.2305 3.96163 17.1015 4.23116 17.1015 4.39522C17.1015 4.55928 17.2305 4.8288 17.3947 4.98115C17.6761 5.27411 17.7113 5.27411 19.7398 5.27411C21.7684 5.27411 21.8036 5.27411 22.085 4.98115C22.2492 4.8288 22.3782 4.55928 22.3782 4.39522C22.3782 4.23116 22.2492 3.96163 22.085 3.80928C21.8622 3.57491 21.6863 3.51632 21.2056 3.51632H20.6076L20.6427 2.66086L20.6779 1.81712L23.5859 1.78197C25.1807 1.77025 26.4822 1.79369 26.4822 1.85228C26.4822 1.91087 25.8608 3.28195 25.1103 4.89912L23.7267 7.8522L20.8538 9.25844C19.1653 10.0905 17.8872 10.7819 17.7582 10.9459C17.4064 11.4029 17.6995 12.0943 18.3093 12.2467C18.4969 12.2936 19.3294 11.9537 21.0062 11.1451C22.3547 10.4889 23.4687 9.96156 23.5039 9.96156C23.5273 9.96156 23.5508 11.942 23.5508 14.356V18.7505H16.3862H9.22173L9.26864 18.1177C9.37417 16.9107 9.55006 16.7466 12.6926 15.1998C15.7648 13.6881 15.8938 13.5709 15.5303 12.8092C15.155 12.0357 14.9674 12.0826 10.8634 14.1451C8.76442 15.1998 8.36574 15.5279 7.81463 16.6294C7.56838 17.1333 7.54493 17.3326 7.50975 19.6997L7.47458 22.2427L6.81793 22.2895C6.31371 22.3364 6.10265 22.4067 5.93849 22.6176C5.65706 22.9575 5.66879 23.3325 5.97366 23.7192L6.20818 24.0239H8.36574H10.5233L10.7578 23.7192C11.0627 23.3325 11.0744 22.9575 10.793 22.6176C10.6288 22.4067 10.4178 22.3364 9.91356 22.2895L9.24518 22.2427V21.3755V20.5083H16.398H23.5625L23.5273 21.5864L23.4921 22.6528L16.4801 26.0746C12.6222 27.9613 9.26864 29.6488 9.01067 29.8246C8.7527 30.0004 8.3892 30.3871 8.18985 30.68C7.58011 31.6058 7.4863 32.1332 7.4863 34.7112V37.0315H6.86483C6.36062 37.0315 6.18473 37.0901 5.98539 37.3011C5.35219 37.9807 5.95021 38.7893 7.08762 38.7893H7.4863V39.6682V40.5471H6.86483C6.36062 40.5471 6.18473 40.6057 5.98539 40.8166C5.52808 41.2971 5.71569 41.9416 6.36062 42.1877C6.78275 42.3401 9.93701 42.3401 10.406 42.176C11.0275 41.9533 11.2034 41.2737 10.7695 40.8049C10.5702 40.6057 10.3943 40.5471 9.89011 40.5471H9.24518V39.6682V38.7893H9.64386C10.5116 38.7893 11.0041 38.4378 11.0041 37.8284C11.0041 37.3128 10.6054 37.0315 9.89011 37.0315H9.24518V36.1526V35.2855L12.5988 35.2503L15.9524 35.2151L16.2455 34.8753C16.5621 34.512 16.5387 34.1019 16.1986 33.7152C16.0227 33.5394 15.6944 33.516 12.6222 33.516H9.24518V32.9886C9.24518 32.3324 9.46798 31.7933 9.90183 31.3832C10.0894 31.2074 11.2151 30.598 12.4112 30.0238C13.6072 29.4379 16.5856 27.9965 19.0363 26.7895L23.4921 24.6215L23.5273 28.9223C23.539 31.2894 23.5273 33.2933 23.4921 33.3636C23.457 33.4808 22.9293 33.516 21.3815 33.516C19.4819 33.516 19.306 33.5394 19.0949 33.7503C18.837 34.0081 18.7901 34.4534 18.9777 34.805C19.177 35.1683 19.7633 35.2737 21.6863 35.2737H23.5508V36.469L23.539 37.6761L19.3998 46.1135L15.2723 54.5508L8.28366 54.6094L1.29504 54.668L0.849452 55.0196C0.098996 55.6407 -0.0299887 56.004 0.00518892 57.4453C0.0403666 58.6289 0.0520925 58.711 0.392143 59.1328C0.591483 59.3672 0.931534 59.6602 1.15433 59.7773C1.55301 59.9883 2.52626 60 30 60C57.4737 60 58.447 59.9883 58.8457 59.7773C59.0685 59.6602 59.4085 59.3672 59.6078 59.1328C59.9479 58.711 59.9596 58.6289 59.9948 57.4453C60.03 56.004 59.901 55.6407 59.1505 55.0196L58.705 54.668L51.7163 54.6094L44.7277 54.5508L40.6002 46.1135L36.461 37.6761L36.4492 36.469V35.2737H43.602H50.7548V36.1526V37.0315H50.1099C49.3946 37.0315 48.9959 37.3128 48.9959 37.8284C48.9959 38.4378 49.4884 38.7893 50.3561 38.7893H50.7548V39.6682V40.5471H50.1099C49.3946 40.5471 48.9959 40.8284 48.9959 41.344C48.9959 42.1408 49.4532 42.3049 51.646 42.3049C53.7684 42.3049 54.2608 42.1291 54.2726 41.3557C54.2726 40.8635 53.827 40.5471 53.1234 40.5471H52.5137V39.6682V38.7893H52.9124C53.7332 38.7893 54.2608 38.4143 54.2726 37.8401C54.2726 37.3479 53.827 37.0315 53.1234 37.0315H52.5137V34.7112C52.5137 32.1214 52.4199 31.6058 51.7984 30.6566C51.5873 30.3519 51.2121 29.9535 50.9541 29.7894C50.6962 29.6137 47.3426 27.9379 43.4965 26.0629L36.5079 22.6528L36.4727 21.5864L36.4375 20.5083H39.2048H41.9721L42.2535 20.2153C42.5819 19.8989 42.6053 19.7232 42.4177 19.3013C42.1949 18.7974 41.8783 18.7505 39.0876 18.7505H36.4492V14.356C36.4492 11.942 36.4727 9.96156 36.5079 9.96156C36.6368 9.96156 49.6526 16.3365 49.9574 16.5474C50.3679 16.8287 50.7548 17.6607 50.7548 18.2583V18.7505H48.1165H45.4664L45.185 19.0435C44.8098 19.4067 44.7981 19.9106 45.1616 20.2505C45.4313 20.4966 45.5251 20.5083 48.093 20.5083H50.7548V21.3755V22.2427L50.0864 22.2895C49.5822 22.3364 49.3712 22.4067 49.207 22.6176C48.9256 22.9575 48.9373 23.3325 49.2422 23.7192L49.4767 24.0239H51.6343H53.7918L54.0263 23.7192C54.3312 23.3325 54.3429 22.9575 54.0615 22.6176C53.8973 22.4067 53.6863 22.3364 53.1821 22.2895L52.5371 22.2427L52.4902 19.6997C52.4551 17.2974 52.4316 17.1333 52.1619 16.5826C51.5404 15.3052 51.4584 15.2584 43.5317 11.3795L36.2382 7.82877L34.878 4.87568C34.1275 3.25851 33.5178 1.89915 33.5178 1.84056C33.5178 1.79369 34.8193 1.77025 36.4258 1.78197L39.3221 1.81712L39.3573 2.66086L39.3924 3.51632H38.7944C38.3136 3.51632 38.1378 3.57491 37.915 3.80928C37.5397 4.17256 37.5397 4.61787 37.915 4.98115C38.1964 5.27411 38.2316 5.27411 40.2601 5.27411C42.2887 5.27411 42.3239 5.27411 42.6053 4.98115C42.7695 4.8288 42.8985 4.55928 42.8985 4.39522C42.8985 4.23116 42.7695 3.96163 42.6053 3.80928C42.3825 3.57491 42.2066 3.51632 41.7376 3.51632H41.163L41.1161 2.41477C41.081 1.39525 41.0575 1.27807 40.7292 0.867916C39.967 -0.0578537 40.7292 0.000740051 30 0.000740051C20.9124 0.000740051 20.42 0.0124588 20.033 0.223392ZM32.8611 4.68818L34.1861 7.55924L32.0872 7.59439C30.9381 7.60611 29.0619 7.60611 27.9128 7.59439L25.8139 7.55924L26.7871 5.44989C27.3265 4.28975 27.9245 2.97726 28.1356 2.54368L28.4991 1.74681L30.0117 1.78197L31.5361 1.81712L32.8611 4.68818ZM31.7237 11.0983L30 12.8326L28.2763 11.0983L26.5409 9.37562H30H33.4591L31.7237 11.0983ZM27.0333 15.7857L25.3096 17.5201V14.0631V10.6061L27.0333 12.3404L28.7688 14.0631L27.0333 15.7857ZM34.6904 14.0865V17.5201L32.9666 15.7974L31.2312 14.0631L32.9315 12.3639C33.8695 11.4264 34.6434 10.6647 34.6552 10.6647C34.6786 10.6647 34.6904 12.2115 34.6904 14.0865ZM31.7589 17.0513L33.4591 18.7505H30H26.5409L28.2411 17.0513C29.1792 16.1138 29.9648 15.3521 30 15.3521C30.0352 15.3521 30.8208 16.1138 31.7589 17.0513ZM34.6904 21.3872V22.2661H30H25.3096V21.3872V20.5083H30H34.6904V21.3872ZM31.7237 25.7465L30 27.4809L28.2763 25.7465L26.5409 24.0239H30H33.4591L31.7237 25.7465ZM43.1447 27.8441C46.7797 29.6254 49.9105 31.2191 50.0982 31.3832C50.532 31.7933 50.7548 32.3324 50.7548 32.9886V33.516L43.6372 33.4925L36.5079 33.4574L36.4727 29.0277C36.461 26.602 36.461 24.6098 36.4844 24.6098C36.5079 24.6098 39.498 26.0629 43.1447 27.8441ZM27.0451 27.1059L28.7102 28.7699L27.0099 30.4691L25.3096 32.1683V28.7934C25.3096 26.9418 25.3214 25.4301 25.3448 25.4301C25.3565 25.4301 26.1187 26.1801 27.0451 27.1059ZM34.6904 28.7934V32.1683L32.9901 30.4691L31.2898 28.7699L32.9549 27.1059C33.8813 26.1801 34.6434 25.4301 34.6552 25.4301C34.6786 25.4301 34.6904 26.9418 34.6904 28.7934ZM31.7589 31.8168L33.4591 33.516H30H26.5409L28.2411 31.8168C29.1792 30.8793 29.9648 30.1176 30 30.1176C30.0352 30.1176 30.8208 30.8793 31.7589 31.8168ZM34.6904 36.1526V37.0315H30H25.3096V36.1526V35.2737H30H34.6904V36.1526ZM33.0956 39.2815C31.114 41.508 30.0586 42.6565 30 42.6565C29.9414 42.6565 28.886 41.508 26.9044 39.2815L26.4588 38.7893H30H33.5412L33.0956 39.2815ZM27.4203 42.4924L28.8157 44.0275L24.524 48.7619C22.1671 51.3634 20.0095 53.754 19.7164 54.0587L19.1887 54.6212L18.2038 54.586L17.2188 54.5508L19.5171 49.8634C20.7835 47.2853 22.4485 43.8869 23.2224 42.3049L24.6295 39.4338L25.3331 40.1956C25.7201 40.6174 26.6581 41.6487 27.4203 42.4924ZM39.1345 47.1095L42.7812 54.5508L41.7962 54.586L40.8113 54.6212L40.2367 54.0001C39.9201 53.6602 39.0641 52.7345 38.3371 51.9493C37.2231 50.7306 36.9652 50.5079 36.672 50.5079C36.2851 50.5079 35.7457 50.9532 35.7457 51.2696C35.7457 51.5978 35.9919 51.9376 37.1762 53.2618L38.3371 54.5508L34.1744 54.586C31.8761 54.5977 28.1239 54.5977 25.8256 54.586L21.6512 54.5508L25.8021 49.9572C28.077 47.4377 29.9648 45.3635 30 45.3635C30.0352 45.3635 30.7974 46.1838 31.6885 47.1916C32.5914 48.1876 33.4474 49.0665 33.5881 49.1251C34.1744 49.3947 34.9483 48.6798 34.7255 48.0822C34.6786 47.9533 33.8813 47.0041 32.9549 45.9845C32.0403 44.9533 31.2664 44.0861 31.2547 44.051C31.2078 43.9104 35.3118 39.4807 35.4056 39.5745C35.4525 39.6213 37.1293 43.0197 39.1345 47.1095ZM58.2007 57.3047V58.1836H30H1.79925L1.76407 57.4336C1.74062 57.0235 1.75235 56.6133 1.78752 56.5313C1.84615 56.3907 6.38407 56.3672 30.0235 56.3907L58.2007 56.4258V57.3047Z" fill="#52C306"/>
</svg>
