<svg width="60" height="60" viewBox="0 0 60 60" fill="none" xmlns="http://www.w3.org/2000/svg">
<path d="M23.4136 0.139336C18.2253 0.877159 13.8503 4.68724 12.4207 9.69479C11.9894 11.2188 11.8785 13.9403 12.1742 15.5248C12.9137 19.3833 15.4401 22.8063 18.9277 24.6811L19.5563 25.0198L19.014 25.1528C12.6302 26.7495 6.93659 30.8982 3.49822 36.4621C2.03168 38.8571 0.811612 41.9535 0.281684 44.6387C-0.088033 46.5861 -0.100357 47.2513 0.281684 47.5537C0.565134 47.7835 1.00879 47.7835 17.9049 47.7835L35.2323 47.7956L35.6636 48.4246C36.021 48.9447 36.2675 49.1382 37.1055 49.5616L38.1037 50.0575L36.6988 53.0209C35.8854 54.7385 35.2939 56.1415 35.2939 56.3472C35.2939 56.5649 35.4294 56.8673 35.6143 57.085C35.9963 57.5446 36.3661 57.5567 38.2023 57.2301L39.4594 57.0124L40.2234 58.3308C41.0122 59.6855 41.3572 60 41.9981 60C42.602 60 42.984 59.4194 44.352 56.5165C45.2146 54.6901 45.7692 53.6499 45.9417 53.5531C46.2745 53.3717 47.6055 53.3717 47.9259 53.5531C48.0861 53.6378 48.6776 54.7264 49.5157 56.5165C50.8836 59.4315 51.278 60 51.8819 60C52.5104 60 52.8431 59.6855 53.6318 58.3308L54.4083 57.0124L55.6037 57.2301C57.366 57.5567 57.785 57.5325 58.2287 57.1092C58.4628 56.8673 58.5861 56.6254 58.5861 56.3834C58.5861 56.1657 57.9945 54.7747 57.1688 53.033C56.3924 51.388 55.7639 50.0333 55.7885 50.0212C55.8009 50.0091 56.1706 49.8398 56.6142 49.6342C57.5878 49.1987 58.1547 48.6544 58.5614 47.7956C58.8572 47.1667 58.8695 47.082 58.7709 45.7394C58.623 43.6227 58.6107 43.659 59.3378 42.1954C59.9417 40.9617 60.0033 40.756 60.0033 40.0424C59.991 38.8087 59.8061 38.4579 58.4012 37.0185L57.1442 35.7364L56.8607 34.5994C56.1952 31.7691 55.3572 31.0434 52.535 30.8498C50.9452 30.741 50.9452 30.741 49.6882 29.7975C48.653 29.0234 47.815 28.6726 46.9893 28.6726C46.0034 28.6726 45.4118 28.9145 44.0808 29.8822C43.44 30.3418 42.7868 30.7289 42.6266 30.7289C42.4787 30.7289 41.9365 30.3902 41.3819 29.9548C38.6706 27.8018 35.0104 25.9753 31.7446 25.1649L31.2147 25.0319L32.3485 24.3303C36.5509 21.7419 39.0034 17.1698 38.7076 12.4647C38.2146 4.71144 31.1777 -0.973454 23.4136 0.139336ZM28.1707 2.29234C32.1883 3.32045 35.3185 6.39271 36.4154 10.4084C36.8097 11.8478 36.8097 14.4846 36.4154 15.9119C35.3309 19.855 32.3238 22.8426 28.3062 23.9796C27.4682 24.2215 27.0738 24.2578 25.2499 24.2578C23.2904 24.2457 23.0932 24.2215 22.1073 23.907C18.7675 22.8184 16.4506 20.8468 15.0334 17.8955C14.1707 16.1054 14.0475 15.5006 14.0352 13.1904C14.0352 11.6543 14.0845 11.0132 14.2447 10.4326C15.4771 6.07823 18.9031 2.95759 23.3767 2.1109C24.5967 1.88109 26.9383 1.97785 28.1707 2.29234ZM27.69 26.4471C28.2816 26.4833 28.7622 26.5559 28.7622 26.6043C28.7622 26.6769 27.801 27.4389 25.4717 29.1806C25.3731 29.2532 24.7816 28.8662 23.6232 27.9953C22.6865 27.2817 21.8978 26.689 21.8732 26.6648C21.7253 26.5438 22.0703 26.4833 23.4753 26.3866C24.9665 26.2777 25.4841 26.2898 27.69 26.4471ZM21.5034 28.8299C22.7482 29.7733 23.771 30.62 23.771 30.6926C23.771 30.7773 23.1179 31.6118 22.3045 32.5432L20.8503 34.2608L20.6408 33.91C20.2218 33.2326 17.301 28.1041 17.227 27.9106C17.1778 27.7655 17.3626 27.6566 18.1267 27.4147C18.6566 27.2454 19.1249 27.1123 19.1619 27.1002C19.1989 27.1002 20.2587 27.8743 21.5034 28.8299ZM32.5457 27.4268L33.5685 27.7413L33.0263 28.721C31.5474 31.3699 29.9207 34.1277 29.8344 34.1277C29.6742 34.1277 26.7657 30.7047 26.852 30.62C27.0122 30.4628 31.4119 27.1123 31.4735 27.1123C31.5104 27.1002 31.9911 27.2454 32.5457 27.4268ZM17.5598 32.5069C18.8045 34.6841 19.9137 36.5589 20.0369 36.6799C20.345 36.9823 21.0228 36.9581 21.3063 36.6557C21.4295 36.5226 21.5527 36.438 21.5774 36.4621C21.602 36.4863 21.3432 37.8531 20.9982 39.4981C20.6531 41.1431 20.3943 42.6188 20.4313 42.7639C20.4682 42.909 21.0844 43.659 21.7992 44.4331L23.1055 45.8483H12.5809H2.044L2.22886 44.9411C3.35034 39.0627 7.02286 33.6681 12.2235 30.2209C13.0985 29.6403 15.0457 28.5638 15.2306 28.5517C15.2675 28.5517 16.3151 30.3297 17.5598 32.5069ZM36.3784 29.0234C36.9083 29.2895 37.8573 29.8338 38.4858 30.2571L39.6442 31.0071L39.0896 31.2853C38.4611 31.5997 37.7217 32.3618 37.4629 32.9544C37.3643 33.1722 37.1671 33.8979 37.0069 34.5511L36.7358 35.7485L35.565 36.8976C34.1601 38.2765 33.889 38.7845 33.8766 39.9819C33.8766 40.7681 33.9259 40.9375 34.5421 42.1833L35.2076 43.538L35.146 44.6387C35.109 45.2435 35.0474 45.7636 35.0228 45.7999C34.9858 45.8241 33.3221 45.8362 31.3133 45.8241L27.6531 45.7878L28.9471 44.3605C30.1055 43.0905 30.2411 42.897 30.2411 42.4857C30.2411 42.2438 29.97 40.7802 29.6372 39.232L29.0457 36.4259L29.3538 36.6557C29.7235 36.946 30.3274 36.9702 30.6231 36.7041C30.7464 36.5952 31.8555 34.7204 33.1002 32.5311C34.3449 30.3539 35.3678 28.5638 35.3925 28.5517C35.4048 28.5517 35.8485 28.7694 36.3784 29.0234ZM48.5298 31.3699C49.0474 31.757 49.6759 32.1682 49.9347 32.3013C50.4769 32.5795 51.5614 32.7851 52.498 32.7851C54.1125 32.7851 54.4945 33.1117 54.8889 34.8051C55.2956 36.5347 55.5174 36.9339 56.8114 38.1676C58.3149 39.607 58.3396 39.7037 57.4892 41.4576C56.6635 43.1872 56.6019 43.5259 56.7621 45.2435C56.9716 47.336 56.8977 47.4449 54.8273 48.3278C53.484 48.9084 52.991 49.3318 52.1283 50.6139C51.7586 51.1582 51.3519 51.6904 51.2164 51.8113C50.785 52.1863 50.1195 52.1984 48.9611 51.8355C47.3343 51.3275 46.7798 51.3154 45.1407 51.7751C43.6495 52.1863 43.0949 52.1984 42.6513 51.8113C42.5157 51.6904 42.0967 51.134 41.7023 50.5534C40.778 49.2108 40.396 48.9084 38.9171 48.2795C38.2516 47.9892 37.5615 47.6263 37.3889 47.4691C37.0808 47.1788 37.0808 47.1546 37.0808 45.0258V42.8849L36.4154 41.5302C35.528 39.7279 35.5527 39.6191 37.0192 38.216C38.2763 37.0185 38.4981 36.6436 38.9294 34.9623C39.4347 33.0149 39.5456 32.9182 41.616 32.773C43.3784 32.64 43.822 32.4706 45.3995 31.3336C46.3977 30.62 46.4717 30.5837 47.0262 30.6442C47.4945 30.6805 47.778 30.8256 48.5298 31.3699ZM26.3467 33.2689C26.3837 33.3657 26.8274 35.434 27.3326 37.8531L28.2569 42.2438L26.815 43.8162L25.3731 45.3765L24.4735 44.4331C23.9682 43.913 23.3151 43.1993 23.007 42.8486L22.4401 42.2075L23.2658 38.2523C23.7217 36.0751 24.1531 34.0551 24.2147 33.7527C24.2886 33.3899 24.5105 33.0028 24.8432 32.6158L25.3485 32.0352L25.8168 32.5674C26.0756 32.8456 26.3098 33.1722 26.3467 33.2689ZM55.2216 53.4926C55.653 54.424 55.9857 55.2102 55.9487 55.2465C55.9118 55.2828 55.5297 55.2465 55.0984 55.1739C53.7058 54.932 53.4593 54.9804 53.0649 55.5005C52.8801 55.7666 52.5843 56.2262 52.4241 56.5286C52.2516 56.8431 52.079 57.0971 52.0421 57.0971C51.9928 57.0971 50.8343 54.7747 50.6002 54.1942C50.5755 54.1458 50.7973 54.049 51.0931 53.9764C52.0297 53.7345 52.7322 53.2023 53.4347 52.15C54.1987 51.0251 53.9769 50.8558 55.2216 53.4926ZM40.2358 51.9202C41.0615 53.1781 41.6407 53.6499 42.8361 54.0006L43.2921 54.1337L42.602 55.6093C42.2076 56.4318 41.8625 57.0971 41.8256 57.0971C41.7886 57.0971 41.6037 56.8068 41.4065 56.456C41.2094 56.1173 40.9136 55.6456 40.7534 55.4279C40.4206 54.9804 40.1125 54.9441 38.7815 55.1739C38.3502 55.2465 37.9558 55.2828 37.9189 55.2465C37.8449 55.1618 39.6319 51.3033 39.7428 51.2912C39.7921 51.2912 40.0139 51.5815 40.2358 51.9202Z" fill="#52C306"/>
<path d="M45.3994 34.3091C42.9347 34.8171 40.8519 36.6193 39.9523 39.0263C39.7181 39.619 39.6811 39.994 39.6688 41.3124C39.6688 42.6429 39.7058 43.0057 39.9523 43.6952C40.8026 46.0901 42.947 47.9286 45.5227 48.4608C49.0103 49.1865 52.6829 47.1061 53.9153 43.7073C54.285 42.7155 54.3712 40.7318 54.1001 39.6795C53.1265 35.8694 49.2691 33.4866 45.3994 34.3091ZM48.0121 36.1839C49.6635 36.5226 51.0684 37.6111 51.7955 39.1231C52.5843 40.7318 52.4364 42.7396 51.4381 44.2516C50.6248 45.4853 49.2938 46.332 47.7533 46.5981C45.4734 46.9852 43.0702 45.7151 42.035 43.5863C41.6653 42.8122 41.6406 42.6913 41.6406 41.3729C41.6406 40.0665 41.6653 39.9335 42.035 39.1715C43.1318 36.9096 45.572 35.688 48.0121 36.1839Z" fill="#52C306"/>
</svg>
