<svg width="60" height="60" viewBox="0 0 60 60" fill="none" xmlns="http://www.w3.org/2000/svg">
<path d="M36.3928 0.250259C34.8036 1.0895 14.9286 13.1246 14.6428 13.446C14.2857 13.8031 14.2857 14.1245 14.2857 29.3202V44.8372L14.7321 45.2658L15.1607 45.7122H22.1428H29.125L29.5536 45.2658L30 44.8372V34.552V24.2847H37.1428H44.2857V34.552V44.8372L44.7321 45.2658L45.1607 45.7122H52.1428H59.125L59.5536 45.2658L60 44.8372V29.3202C60 14.7852 59.9821 13.7674 59.6964 13.4281C59.25 12.9282 37.6071 0.000274658 37.1964 0.000274658C37.0178 0.000274658 36.6607 0.10741 36.3928 0.250259ZM47.25 9.14265L57.1428 15.0888V28.963V42.8552H52.1428H47.1428V32.5878V22.3027L46.6964 21.8741L46.2678 21.4277H37.1428H28.0178L27.5893 21.8741L27.1428 22.3027V32.5878V42.8552H22.1428H17.1428V28.963V15.0888L27.0178 9.16051C32.4286 5.91068 36.9821 3.23225 37.1071 3.23225C37.25 3.21439 41.8036 5.89282 47.25 9.14265Z" fill="#52C306"/>
<path d="M1.875 13.3031C1.46429 13.696 1.42857 13.8745 1.42857 15.4459C1.42857 16.8565 1.375 17.1422 1.16071 17.1422C1 17.1422 0.678571 17.3386 0.446429 17.5886C0.0178571 17.9993 0 18.1243 0 20.0528C0 22.2848 0.267857 23.4633 0.982143 24.5347C1.39286 25.1418 1.42857 25.3561 1.42857 27.1595C1.42857 28.4095 1.51786 29.3201 1.67857 29.6951C1.98214 30.4629 2.89286 31.2129 3.66071 31.3557L4.28571 31.4629V43.8729C4.28571 53.1046 4.33929 56.4794 4.5 57.033C4.78571 58.0151 6.26786 59.4971 7.25 59.7828C8.92857 60.2828 10.2679 59.9257 11.5179 58.6579C12.6607 57.5329 12.8571 56.8723 12.8571 54.301C12.8571 52.4261 12.875 52.2832 13.3036 51.8725C13.875 51.2833 14.6964 51.2833 15.2679 51.8725C15.6964 52.2832 15.7143 52.4261 15.7143 54.2831C15.7143 56.1402 15.7321 56.283 16.1607 56.6937L16.5893 57.1401H34.1607H51.75L51.9643 57.6758C52.0893 57.9793 52.5357 58.5329 52.9643 58.9079C54.6964 60.4256 57.0357 60.3364 58.6964 58.7114C60.4107 57.033 60.4107 54.3902 58.6964 52.7118C57.5 51.5333 56 51.1761 54.3929 51.6404C53.5893 51.8725 51.7857 53.5153 51.7857 53.9974C51.7857 54.2474 50.125 54.2831 35.1786 54.2831H18.5714V53.2832C18.5714 51.8368 18.25 50.9797 17.375 49.9976C15.6786 48.1049 13.1607 48.0691 11.3393 49.9083C10.1964 51.0333 10 51.694 10 54.2653C10 56.1402 9.98214 56.283 9.55357 56.6937C9.28571 56.9794 8.91071 57.1401 8.57143 57.1401C8.23214 57.1401 7.85714 56.9794 7.58929 56.6937L7.14286 56.2651V43.8729V31.4629L7.76786 31.3557C8.53571 31.2129 9.44643 30.4629 9.75 29.6951C9.91071 29.3201 10 28.4095 10 27.1595C10 25.3561 10.0357 25.1418 10.4464 24.5347C11.1607 23.4633 11.4286 22.2848 11.4286 20.0528C11.4286 18.1243 11.4107 17.9993 10.9821 17.5886C10.75 17.3386 10.4286 17.1422 10.2679 17.1422C10.0536 17.1422 10 16.8565 10 15.4459C10 13.8745 9.96428 13.696 9.55357 13.3031C9.28571 13.0174 8.91071 12.8567 8.57143 12.8567C8.23214 12.8567 7.85714 13.0174 7.58929 13.3031C7.17857 13.696 7.14286 13.8745 7.14286 15.4459V17.1422H5.71429H4.28571V15.4459C4.28571 13.8745 4.25 13.696 3.83929 13.3031C3.57143 13.0174 3.19643 12.8567 2.85714 12.8567C2.51786 12.8567 2.14286 13.0174 1.875 13.3031ZM8.53571 21.2491C8.42857 23.2133 7.5 24.1954 5.71429 24.1954C3.92857 24.1954 3 23.2133 2.89286 21.2491L2.82143 19.9992H5.71429H8.60714L8.53571 21.2491ZM7.14286 27.8024V28.5702H5.71429H4.28571V27.8024V27.0524H5.71429H7.14286V27.8024ZM56.6964 54.7295C57.5893 55.6045 56.9643 57.1401 55.7143 57.1401C54.9821 57.1401 54.2857 56.4437 54.2857 55.7116C54.2857 54.9795 54.9821 54.2831 55.7143 54.2831C56.0536 54.2831 56.4286 54.4438 56.6964 54.7295Z" fill="#52C306"/>
</svg>
