<svg width="36" height="36" viewBox="0 0 36 36" fill="none" xmlns="http://www.w3.org/2000/svg">
<path d="M18.1075 11.24C19.1401 11.24 19.9774 10.4028 19.9774 9.36999C19.9774 8.33724 19.1401 7.5 18.1075 7.5C17.0746 7.5 16.2374 8.33724 16.2374 9.36999C16.2374 10.4028 17.0746 11.24 18.1075 11.24Z" stroke="#010F1C" stroke-width="1.5" stroke-linecap="round" stroke-linejoin="round"/>
<path d="M26.8464 11.24C27.8793 11.24 28.7166 10.4028 28.7166 9.36999C28.7166 8.33724 27.8793 7.5 26.8464 7.5C25.8136 7.5 24.9765 8.33724 24.9765 9.36999C24.9765 10.4028 25.8136 11.24 26.8464 11.24Z" stroke="#010F1C" stroke-width="1.5" stroke-linecap="round" stroke-linejoin="round"/>
<path d="M9.36825 11.24C10.401 11.24 11.2382 10.4028 11.2382 9.36999C11.2382 8.33724 10.401 7.5 9.36825 7.5C8.33548 7.5 7.49826 8.33724 7.49826 9.36999C7.49826 10.4028 8.33548 11.24 9.36825 11.24Z" stroke="#010F1C" stroke-width="1.5" stroke-linecap="round" stroke-linejoin="round"/>
<path d="M18.1075 19.9791C19.1401 19.9791 19.9774 19.1419 19.9774 18.1092C19.9774 17.0764 19.1401 16.2391 18.1075 16.2391C17.0746 16.2391 16.2374 17.0764 16.2374 18.1092C16.2374 19.1419 17.0746 19.9791 18.1075 19.9791Z" stroke="#010F1C" stroke-width="1.5" stroke-linecap="round" stroke-linejoin="round"/>
<path d="M26.8464 19.9791C27.8793 19.9791 28.7165 19.1419 28.7165 18.1092C28.7165 17.0764 27.8793 16.2391 26.8464 16.2391C25.8136 16.2391 24.9765 17.0764 24.9765 18.1092C24.9765 19.1419 25.8136 19.9791 26.8464 19.9791Z" stroke="#010F1C" stroke-width="1.5" stroke-linecap="round" stroke-linejoin="round"/>
<path d="M9.36824 19.9791C10.401 19.9791 11.2382 19.1419 11.2382 18.1092C11.2382 17.0764 10.401 16.2391 9.36824 16.2391C8.33547 16.2391 7.49826 17.0764 7.49826 18.1092C7.49826 19.1419 8.33547 19.9791 9.36824 19.9791Z" stroke="#010F1C" stroke-width="1.5" stroke-linecap="round" stroke-linejoin="round"/>
<path d="M18.1075 28.7183C19.1401 28.7183 19.9774 27.881 19.9774 26.8484C19.9774 25.8155 19.1401 24.9783 18.1075 24.9783C17.0746 24.9783 16.2374 25.8155 16.2374 26.8484C16.2374 27.881 17.0746 28.7183 18.1075 28.7183Z" stroke="#010F1C" stroke-width="1.5" stroke-linecap="round" stroke-linejoin="round"/>
<path d="M26.8464 28.7183C27.8793 28.7183 28.7165 27.881 28.7165 26.8484C28.7165 25.8155 27.8793 24.9783 26.8464 24.9783C25.8136 24.9783 24.9765 25.8155 24.9765 26.8484C24.9765 27.881 25.8136 28.7183 26.8464 28.7183Z" stroke="#010F1C" stroke-width="1.5" stroke-linecap="round" stroke-linejoin="round"/>
<path d="M9.36824 28.7183C10.401 28.7183 11.2382 27.881 11.2382 26.8484C11.2382 25.8155 10.401 24.9783 9.36824 24.9783C8.33548 24.9783 7.49826 25.8155 7.49826 26.8484C7.49826 27.881 8.33548 28.7183 9.36824 28.7183Z" stroke="#010F1C" stroke-width="1.5" stroke-linecap="round" stroke-linejoin="round"/>
</svg>
