<svg width="48" height="44" viewBox="0 0 48 44" fill="none" xmlns="http://www.w3.org/2000/svg">
<path d="M47.25 40.1C46.8344 40.1 46.5 39.7656 46.5 39.35C46.5 37.9937 45.3969 36.8875 44.0375 36.8875H41.6094C41.1937 36.8875 40.8594 36.5531 40.8594 36.1375V9.72188H6.39062C5.975 9.72188 5.64062 9.3875 5.64062 8.97188C5.64062 8.55625 5.975 8.22188 6.39062 8.22188H40.8625V1.4375C40.8625 1.02187 41.1969 0.6875 41.6125 0.6875H42.925C45.725 0.6875 48.0031 2.96563 48.0031 5.76562V39.3531C48 39.7656 47.6656 40.1 47.25 40.1ZM42.3625 35.3875H44.0406C44.9719 35.3875 45.8281 35.7094 46.5031 36.2469V5.7625C46.5031 3.79062 44.9 2.18437 42.925 2.18437H42.3625V35.3875Z" fill="#57B33E"/>
<path d="M0.75 40.1C0.334375 40.1 0 39.7656 0 39.35V5.7625C0 2.96562 2.27812 0.6875 5.07812 0.6875H6.39062C6.80625 0.6875 7.14062 1.02187 7.14062 1.4375V36.1406C7.14062 36.5563 6.80625 36.8906 6.39062 36.8906H3.9625C2.60312 36.8906 1.5 37.9938 1.5 39.3531C1.5 39.7656 1.16562 40.1 0.75 40.1ZM5.07812 2.1875C3.10312 2.1875 1.5 3.79062 1.5 5.7625V36.25C2.175 35.7125 3.03125 35.3906 3.9625 35.3906H5.6375V2.1875H5.07812Z" fill="#57B33E"/>
<path d="M44.0375 43.3125H3.9625C2.90313 43.3125 1.90937 42.9 1.15937 42.1531C0.409375 41.4062 0 40.4094 0 39.35C0 38.9344 0.334375 38.6 0.75 38.6C1.16562 38.6 1.5 38.9344 1.5 39.35C1.5 40.0094 1.75625 40.625 2.22187 41.0906C2.6875 41.5562 3.30625 41.8125 3.9625 41.8125H44.0375C44.6969 41.8125 45.3125 41.5562 45.7781 41.0906C46.2438 40.625 46.5 40.0062 46.5 39.35C46.5 38.9344 46.8344 38.6 47.25 38.6C47.6656 38.6 48 38.9344 48 39.35C48 40.4094 47.5875 41.4031 46.8406 42.1531C46.0906 42.9 45.0969 43.3125 44.0375 43.3125Z" fill="#57B33E"/>
<path d="M24 24.3094C23.5844 24.3094 23.25 23.9751 23.25 23.5594V17.0813C23.25 16.6657 23.5844 16.3313 24 16.3313C24.4156 16.3313 24.75 16.6657 24.75 17.0813V23.5594C24.75 23.9751 24.4156 24.3094 24 24.3094Z" fill="#57B33E"/>
<path d="M24 34.3407C23.5844 34.3407 23.25 34.0063 23.25 33.5907V27.1125C23.25 26.6969 23.5844 26.3625 24 26.3625C24.4156 26.3625 24.75 26.6969 24.75 27.1125V33.5907C24.75 34.0063 24.4156 34.3407 24 34.3407Z" fill="#57B33E"/>
<path d="M36.0719 31.4281C35.6563 31.4281 35.3219 31.0937 35.3219 30.6781V26.0844H26.8906C26.475 26.0844 26.1406 25.75 26.1406 25.3344C26.1406 24.9187 26.475 24.5844 26.8906 24.5844H36.0719C36.4875 24.5844 36.8219 24.9187 36.8219 25.3344V30.6781C36.8219 31.0937 36.4875 31.4281 36.0719 31.4281Z" fill="#57B33E"/>
<path d="M11.9287 31.4281C11.5131 31.4281 11.1787 31.0937 11.1787 30.6781V25.3344C11.1787 24.9187 11.5131 24.5844 11.9287 24.5844H21.11C21.5256 24.5844 21.86 24.9187 21.86 25.3344C21.86 25.75 21.5256 26.0844 21.11 26.0844H12.6787V30.6781C12.6787 31.0937 12.3412 31.4281 11.9287 31.4281Z" fill="#57B33E"/>
<path d="M24.0006 17.8312C22.6068 17.8312 21.4756 16.6969 21.4756 15.3062C21.4756 13.9156 22.61 12.7812 24.0006 12.7812C25.3912 12.7812 26.5256 13.9156 26.5256 15.3062C26.5256 16.6969 25.3943 17.8312 24.0006 17.8312ZM24.0006 14.2781C23.435 14.2781 22.9756 14.7375 22.9756 15.3031C22.9756 15.8688 23.435 16.3281 24.0006 16.3281C24.5662 16.3281 25.0256 15.8688 25.0256 15.3031C25.0256 14.7375 24.5662 14.2781 24.0006 14.2781Z" fill="#57B33E"/>
<path d="M24.0006 37.8937C22.6068 37.8937 21.4756 36.7594 21.4756 35.3688C21.4756 33.9781 22.61 32.8438 24.0006 32.8438C25.3912 32.8438 26.5256 33.9781 26.5256 35.3688C26.5256 36.7594 25.3943 37.8937 24.0006 37.8937ZM24.0006 34.3406C23.435 34.3406 22.9756 34.8 22.9756 35.3656C22.9756 35.9312 23.435 36.3906 24.0006 36.3906C24.5662 36.3906 25.0256 35.9312 25.0256 35.3656C25.0256 34.8 24.5662 34.3406 24.0006 34.3406Z" fill="#57B33E"/>
<path d="M36.0719 34.9843C34.6781 34.9843 33.5469 33.8499 33.5469 32.4593C33.5469 31.0687 34.6813 29.9343 36.0719 29.9343C37.4625 29.9343 38.5969 31.0687 38.5969 32.4593C38.5969 33.8499 37.4656 34.9843 36.0719 34.9843ZM36.0719 31.4343C35.5063 31.4343 35.0469 31.8937 35.0469 32.4593C35.0469 33.0249 35.5063 33.4843 36.0719 33.4843C36.6375 33.4843 37.0969 33.0249 37.0969 32.4593C37.0969 31.8937 36.6375 31.4343 36.0719 31.4343Z" fill="#57B33E"/>
<path d="M11.9283 34.9843C10.5346 34.9843 9.40332 33.8499 9.40332 32.4593C9.40332 31.0687 10.5377 29.9343 11.9283 29.9343C13.3189 29.9343 14.4533 31.0687 14.4533 32.4593C14.4533 33.8499 13.3189 34.9843 11.9283 34.9843ZM11.9283 31.4343C11.3627 31.4343 10.9033 31.8937 10.9033 32.4593C10.9033 33.0249 11.3627 33.4843 11.9283 33.4843C12.4939 33.4843 12.9533 33.0249 12.9533 32.4593C12.9533 31.8937 12.4939 31.4343 11.9283 31.4343Z" fill="#57B33E"/>
<path d="M26.8906 27.8624H21.1094C20.6937 27.8624 20.3594 27.5281 20.3594 27.1124V23.5593C20.3594 23.1437 20.6937 22.8093 21.1094 22.8093H26.8937C27.3094 22.8093 27.6437 23.1437 27.6437 23.5593V27.1124C27.6406 27.5249 27.3062 27.8624 26.8906 27.8624ZM21.8594 26.3624H26.1437V24.3093H21.8594V26.3624Z" fill="#57B33E"/>
<path d="M31.0373 7.18755H17.6436C17.2279 7.18755 16.8936 6.85317 16.8936 6.43755V2.98755C16.8936 2.57192 17.2279 2.23755 17.6436 2.23755H31.0373C31.4529 2.23755 31.7873 2.57192 31.7873 2.98755V6.43755C31.7873 6.85005 31.4529 7.18755 31.0373 7.18755ZM18.3936 5.68755H30.2873V3.73755H18.3936V5.68755Z" fill="#57B33E"/>
<path d="M17.6439 7.18753C17.5502 7.18753 17.4596 7.17191 17.3721 7.13441L12.9596 5.40941C12.6721 5.29691 12.4814 5.01878 12.4814 4.70941C12.4814 4.40003 12.6721 4.12191 12.9596 4.00941L17.3721 2.28441C17.6033 2.19378 17.8627 2.22503 18.0689 2.36253C18.2721 2.50316 18.3971 2.73441 18.3971 2.98128V6.43753C18.3971 6.68441 18.2752 6.91566 18.0689 7.05628C17.9408 7.14378 17.7939 7.18753 17.6439 7.18753ZM15.2908 4.71253L16.8939 5.33753V4.08441L15.2908 4.71253Z" fill="#57B33E"/>
<path d="M33.0443 7.18755H31.0381C30.6225 7.18755 30.2881 6.85317 30.2881 6.43755V2.98755C30.2881 2.57192 30.6225 2.23755 31.0381 2.23755H33.0443C34.41 2.23755 35.5193 3.34692 35.5193 4.71255C35.5193 6.07817 34.41 7.18755 33.0443 7.18755ZM31.7881 5.68755H33.0443C33.5818 5.68755 34.0193 5.25005 34.0193 4.71255C34.0193 4.17505 33.5818 3.73755 33.0443 3.73755H31.7881V5.68755Z" fill="#57B33E"/>
</svg>
