<svg width="50" height="50" viewBox="0 0 50 50" fill="none" xmlns="http://www.w3.org/2000/svg">
<g clip-path="url(#clip0_1174_2616)">
<path d="M44.0518 6.92483C44.3017 6.92483 44.5517 6.82942 44.7424 6.63879L46.4532 4.92795C46.8345 4.54661 46.8345 3.92825 46.4532 3.5468C46.0718 3.16555 45.4535 3.16555 45.072 3.5468L43.3612 5.25764C42.9799 5.63899 42.9799 6.25735 43.3612 6.63879C43.552 6.82942 43.8019 6.92483 44.0518 6.92483Z" fill="#57B33E"/>
<path d="M31.0388 6.63882C31.2296 6.82944 31.4795 6.92485 31.7294 6.92485C31.9793 6.92485 32.2293 6.82944 32.4199 6.63882C32.8012 6.25747 32.8012 5.63911 32.4199 5.25767L30.7092 3.54692C30.3278 3.16567 29.7094 3.16567 29.328 3.54692C28.9467 3.92827 28.9467 4.54663 29.328 4.92808L31.0388 6.63882Z" fill="#57B33E"/>
<path d="M37.8911 17.8932C41.0803 17.8932 43.6748 15.2986 43.6748 12.1095C43.6748 8.92031 41.0803 6.32568 37.8911 6.32568C34.702 6.32568 32.1074 8.92021 32.1074 12.1095C32.1073 15.2986 34.702 17.8932 37.8911 17.8932ZM37.8911 8.27891C40.0033 8.27891 41.7217 9.99736 41.7217 12.1096C41.7217 14.2218 40.0033 15.9401 37.8911 15.9401C35.7789 15.9401 34.0605 14.2218 34.0605 12.1096C34.0605 9.99736 35.7789 8.27891 37.8911 8.27891Z" fill="#57B33E"/>
<path d="M44.7424 17.5802C44.361 17.199 43.7427 17.199 43.3612 17.5802C42.9799 17.9616 42.9799 18.58 43.3612 18.9614L45.072 20.6722C45.2628 20.8629 45.5127 20.9583 45.7626 20.9583C46.0125 20.9583 46.2625 20.8629 46.4531 20.6722C46.8344 20.2909 46.8344 19.6725 46.4531 19.2911L44.7424 17.5802Z" fill="#57B33E"/>
<path d="M31.0388 17.5802L29.328 19.2911C28.9467 19.6724 28.9467 20.2908 29.328 20.6722C29.5187 20.8629 29.7686 20.9583 30.0185 20.9583C30.2684 20.9583 30.5184 20.8629 30.7091 20.6722L32.4199 18.9614C32.8012 18.5801 32.8012 17.9617 32.4199 17.5802C32.0385 17.199 31.4202 17.199 31.0388 17.5802Z" fill="#57B33E"/>
<path d="M45.6279 12.1094C45.6279 12.6486 46.0651 13.0859 46.6045 13.0859H49.0239C49.5633 13.0859 50.0005 12.6486 50.0005 12.1094C50.0005 11.5701 49.5633 11.1328 49.0239 11.1328H46.6045C46.0651 11.1328 45.6279 11.5701 45.6279 12.1094Z" fill="#57B33E"/>
<path d="M37.8906 4.37268C38.43 4.37268 38.8672 3.93538 38.8672 3.39612V0.976685C38.8672 0.437427 38.43 0.00012207 37.8906 0.00012207C37.3513 0.00012207 36.9141 0.437427 36.9141 0.976685V3.39602C36.9141 3.93538 37.3513 4.37268 37.8906 4.37268Z" fill="#57B33E"/>
<path d="M36.9141 20.8228V23.2422C36.9141 23.7814 37.3513 24.2188 37.8906 24.2188C38.43 24.2188 38.8672 23.7814 38.8672 23.2422V20.8228C38.8672 20.2835 38.43 19.8462 37.8906 19.8462C37.3513 19.8462 36.9141 20.2834 36.9141 20.8228Z" fill="#57B33E"/>
<path d="M26.7578 13.0859H29.1772C29.7166 13.0859 30.1538 12.6486 30.1538 12.1094C30.1538 11.5701 29.7166 11.1328 29.1772 11.1328H26.7578C26.2185 11.1328 25.7812 11.5701 25.7812 12.1094C25.7812 12.6487 26.2185 13.0859 26.7578 13.0859Z" fill="#57B33E"/>
<path d="M49.0234 48.0469H35.5726V45.3126H46.9027C47.6388 45.3126 48.3173 44.9772 48.7644 44.3927C49.2116 43.808 49.3574 43.0652 49.1646 42.355L45.4542 28.6832C45.1778 27.6646 44.2477 26.9533 43.1923 26.9533H20.5559C19.5005 26.9533 18.5704 27.6646 18.294 28.6832L16.4541 35.4626V20.6313L20.3063 22.8553C21.5152 23.5532 22.8946 23.913 24.2786 23.9129C24.9775 23.9129 25.6776 23.8212 26.3574 23.635C26.8753 23.4932 27.1802 22.9545 27.0415 22.4358C26.495 20.3902 25.1841 18.6804 23.3504 17.6216L16.5517 13.6965V5.89348C16.5517 3.77601 15.7265 1.78588 14.2248 0.286379C13.8449 -0.0935995 13.2295 -0.0950644 12.8476 0.28257C11.3539 1.75991 10.4972 3.81204 10.4972 5.91281V13.7123L3.72594 17.6217C1.89216 18.6804 0.581228 20.3901 0.0334772 22.4405C-0.105487 22.9594 0.200761 23.4932 0.718922 23.635C1.3988 23.8212 2.0987 23.9129 2.79772 23.9129C4.1816 23.9129 5.56118 23.5531 6.77006 22.8553L10.5949 20.647V29.6387C10.5949 30.178 11.0321 30.6153 11.5715 30.6153C12.1108 30.6153 12.5481 30.178 12.5481 29.6387V19.5195L13.5383 18.9478L14.5012 19.5037V48.047H12.5481V38.428C12.5481 37.8887 12.1108 37.4514 11.5715 37.4514C11.0321 37.4514 10.5949 37.8887 10.5949 38.428V48.047H0.976831C0.437479 48.047 0.000274311 48.4843 0.000274311 49.0236C0.000274311 49.5629 0.437479 50.0002 0.976831 50.0002H49.0234C49.5628 50.0002 50 49.5629 50 49.0236C50 48.4843 49.5628 48.0469 49.0234 48.0469ZM14.9318 15.4601C14.9318 16.2361 14.3005 16.8674 13.5244 16.8674C12.7483 16.8674 12.117 16.2361 12.117 15.4601C12.117 14.684 12.7483 14.0527 13.5244 14.0527C14.3005 14.0527 14.9318 14.684 14.9318 15.4601ZM24.7897 21.9387C23.5778 22.0426 22.3434 21.7762 21.2829 21.1639L15.7537 17.9717C16.2931 17.4924 16.6775 16.8427 16.8217 16.1077L22.3738 19.3131C23.4429 19.9304 24.276 20.8411 24.7897 21.9387ZM13.5331 2.48803C14.2257 3.48011 14.5986 4.65803 14.5986 5.89348V12.2766C14.261 12.1625 13.9001 12.0996 13.5244 12.0996C13.1487 12.0996 12.7878 12.1625 12.4502 12.2766V5.91281C12.4503 4.68801 12.8368 3.48519 13.5331 2.48803ZM5.7934 21.1639C4.73277 21.7763 3.49781 22.0435 2.286 21.9386C2.79879 20.8427 3.63248 19.9308 4.70239 19.3131L10.2297 16.1219C10.377 16.8561 10.7645 17.5041 11.3061 17.9812L5.7934 21.1639ZM24.5683 43.3595L25.0453 39.8439H30.889V43.3595H24.5683ZM16.8455 43.3595C16.6775 43.3595 16.579 43.2635 16.5352 43.2062C16.4914 43.1489 16.4245 43.0287 16.4685 42.8665L17.2888 39.8439H23.0743L22.5972 43.3595H16.8455ZM18.773 34.3751H23.8163L23.3393 37.8908H17.8189L18.773 34.3751ZM30.8889 28.9064V32.422H26.0524L26.5294 28.9064H30.8889ZM37.2014 28.9064L37.6785 32.422H32.842V28.9064H37.2014ZM45.9294 37.8908H40.3916L39.9146 34.3751H44.9753L45.9294 37.8908ZM38.4206 37.8908H32.842V34.3751H37.9435L38.4206 37.8908ZM30.8889 34.3751V37.8908H25.3104L25.7874 34.3751H30.8889ZM32.842 39.8439H38.6856L39.1626 43.3595H32.842V39.8439ZM47.2131 43.2062C47.1693 43.2635 47.0707 43.3595 46.9028 43.3595H41.1337L40.6567 39.8439H46.4595L47.2798 42.8665C47.3237 43.0287 47.2568 43.1489 47.2131 43.2062ZM43.5693 29.1947L44.4451 32.422H39.6495L39.1724 28.9064H43.1923C43.3682 28.9064 43.5233 29.025 43.5693 29.1947ZM20.5559 28.9064H24.5584L24.0814 32.422H19.3031L20.179 29.1947C20.2251 29.025 20.38 28.9064 20.5559 28.9064ZM16.4541 45.2801C16.582 45.3013 16.7128 45.3126 16.8455 45.3126H28.1508V48.0469H16.4541V45.2801ZM30.1039 48.0469V45.3126H33.6195V48.0469H30.1039Z" fill="#57B33E"/>
<path d="M11.5713 35.0095C11.8281 35.0095 12.0801 34.9059 12.2617 34.7233C12.4434 34.5417 12.5479 34.2898 12.5479 34.033C12.5479 33.7761 12.4434 33.5242 12.2617 33.3425C12.0801 33.1609 11.8281 33.0564 11.5713 33.0564C11.3145 33.0564 11.0625 33.1608 10.8809 33.3425C10.6992 33.5243 10.5947 33.7761 10.5947 34.033C10.5947 34.2898 10.6992 34.5417 10.8809 34.7233C11.0625 34.906 11.3145 35.0095 11.5713 35.0095Z" fill="#57B33E"/>
</g>
<defs>
<clipPath id="clip0_1174_2616">
<rect width="50" height="50" fill="white"/>
</clipPath>
</defs>
</svg>
