<svg width="50" height="50" viewBox="0 0 50 50" fill="none" xmlns="http://www.w3.org/2000/svg">
<path d="M29.0832 8.24998C29.0851 7.18782 28.3932 6.24894 27.3782 5.93618C26.3631 5.62342 25.2628 6.01011 24.6666 6.88915L12.8816 24.1883C12.61 24.57 12.4755 25.0322 12.4999 25.5C12.5973 26.6431 13.5619 27.5164 14.7091 27.5H21.6257L20.9166 41.6333V41.75C20.9147 42.8121 21.6066 43.751 22.6216 44.0638C23.6367 44.3765 24.737 43.9898 25.3332 43.1108L37.1182 25.8116C37.3893 25.4297 37.5237 24.9677 37.4999 24.5C37.4025 23.3569 36.4379 22.4836 35.2907 22.5H28.3741L29.0832 8.36665C29.0832 8.35248 29.0832 8.26414 29.0832 8.24998ZM35.2907 24.1666C35.55 24.1507 35.7813 24.3286 35.8324 24.5833C35.8387 24.6806 35.8107 24.777 35.7532 24.8558L23.9557 42.1666C23.7686 42.4461 23.4184 42.5668 23.0988 42.4621C22.7793 42.3573 22.5685 42.0526 22.5832 41.7166L23.2891 27.5833C23.3119 27.127 23.1464 26.6814 22.8314 26.3506C22.5163 26.0197 22.0792 25.8327 21.6224 25.8333H14.7057C14.4466 25.8489 14.2155 25.6711 14.1641 25.4166C14.1578 25.3193 14.1858 25.2229 14.2432 25.1441L26.0441 7.83331C26.2312 7.55387 26.5814 7.43312 26.9009 7.5379C27.2205 7.64267 27.4312 7.94734 27.4166 8.28331L26.7116 22.4166C26.6887 22.8729 26.8542 23.3186 27.1692 23.6494C27.4843 23.9802 27.9214 24.1672 28.3782 24.1666H35.2907Z" fill="#57B33E"/>
<path d="M24.9996 1.23748e-07C16.2345 -0.00087016 8.10911 4.58865 3.58487 12.0959C-0.939376 19.6031 -1.20161 28.9313 2.89373 36.6808C1.0404 38.6525 1.32873 42.0142 3.5679 44.2467C6.42456 47.11 10.2762 47.4808 12.0796 47.4808C12.4148 47.4831 12.75 47.4683 13.0837 47.4367C13.4022 47.402 13.6727 47.1877 13.7793 46.8856C13.8859 46.5835 13.8099 46.2469 13.5837 46.02C12.8878 45.2605 12.3546 44.3666 12.0171 43.3933C11.85 42.769 11.7842 42.1219 11.8221 41.4767C11.9978 39.6614 11.3457 37.8637 10.0471 36.5833C8.57528 34.9281 6.14536 34.5297 4.22206 35.6283C-0.836387 25.7233 1.80924 13.6241 10.5401 6.7342C19.271 -0.155679 31.6537 0.0840131 40.1114 7.30661C48.5691 14.5292 50.7445 26.7217 45.3065 36.4236C39.8685 46.1255 28.3328 50.6328 17.7579 47.1875C17.327 47.0645 16.876 47.3043 16.737 47.7303C16.598 48.1563 16.8207 48.616 17.2412 48.7708C26.6298 51.8289 36.9388 49.0744 43.5508 41.7411C50.163 34.4078 51.8393 23.8697 47.8291 14.8467C43.819 5.82363 34.8736 0.00622972 24.9996 1.23748e-07ZM6.5229 36.6617C7.42156 36.6977 8.26754 37.0952 8.86873 37.7642C9.85491 38.7331 10.3305 40.108 10.1537 41.4792C10.1106 42.3036 10.2055 43.1294 10.4346 43.9225C10.6564 44.5746 10.9537 45.1986 11.3204 45.7817C8.87596 45.6921 6.54465 44.7291 4.74956 43.0675C3.30373 41.6283 2.9429 39.5908 3.79456 38.2342C4.69175 39.6703 5.73206 41.0118 6.89956 42.2383C7.10192 42.4656 7.41209 42.5645 7.70868 42.4964C8.00527 42.4282 8.2411 42.2038 8.32389 41.9109C8.40667 41.6181 8.32323 41.3034 8.10623 41.09C6.94373 39.8685 5.9164 38.5252 5.04206 37.0833C5.48992 36.8148 6.00076 36.6693 6.5229 36.6617Z" fill="#57B33E"/>
</svg>
