<svg width="490" height="270" viewBox="0 0 490 270" fill="none" xmlns="http://www.w3.org/2000/svg">
<g opacity="0.05">
<path d="M72.3305 13.9919C73.8857 13.9919 79.9715 19.1517 79.9715 20.735C79.9715 21.0333 79.9121 21.3622 79.8968 21.4368C77.9378 31.5803 76.9961 41.5154 76.9961 51.7641C76.9961 61.355 77.8784 71.0358 79.6126 80.5674L80.4203 85.0497L83.0521 94.5594H92.8024H193.231C196.252 94.5594 203.474 101.812 203.474 104.829L203.49 247.098C203.49 250.101 196.253 257.353 193.261 257.353H22.9094C19.9034 257.353 13.6377 250.101 13.6377 247.113L13.6674 129.539C13.787 117.752 17.1816 96.2239 37.2046 60.5786C48.3301 40.7687 65.9749 18.9073 68.8766 16.039C70.9256 14.381 71.5984 14.0674 71.6577 14.0368C71.6577 14.0368 71.8367 13.9919 72.3305 13.9919ZM72.3305 0.387695C66.3041 0.387695 62.5956 2.4797 57.8401 6.34818C53.3535 9.99293 38.4899 31.1778 26.7663 52.0328C9.2411 83.2417 0.239258 109.251 0.0449805 129.36L0 247.098C0 259.721 10.2728 270 22.9094 270H193.261C205.882 270 216.17 259.721 216.17 247.098L216.141 104.829C216.141 92.19 205.868 81.9117 193.231 81.9117H92.8024L91.9946 77.4294C90.4548 68.9734 89.6614 60.3386 89.6614 51.7632C89.6614 42.5901 90.5285 33.7459 92.2636 24.723C92.5622 22.8557 92.6521 21.78 92.6521 20.7187C92.6521 9.50053 83.5307 0.387695 72.3305 0.387695Z" fill="white"/>
<path d="M346.176 12.6468C347.732 12.6468 353.833 13.9767 353.833 15.5151C353.803 15.8134 353.743 16.1729 353.743 16.2619C351.799 26.3605 350.842 41.0684 350.842 51.3764C350.842 61.0123 351.709 70.693 353.444 80.1348L354.252 84.6314L356.854 94.1708H366.648H467.077C470.083 94.1708 477.32 101.423 477.32 104.426V246.724C477.32 249.712 470.098 256.95 467.092 256.95H296.74C293.749 256.95 287.468 249.713 287.468 246.724L287.528 129.121C287.632 117.349 291.012 95.8363 311.05 60.1757C322.175 40.381 337.906 17.5469 340.792 14.6785C342.841 13.0206 345.413 12.7213 345.487 12.6917C345.487 12.6917 345.668 12.6468 346.176 12.6468ZM346.176 0C340.136 0 336.426 2.092 331.701 5.94614C327.215 9.57655 312.351 30.7605 300.613 51.6461C283.073 82.8693 274.085 108.879 273.891 128.957L273.832 246.725C273.832 259.335 284.12 269.598 296.741 269.598H467.093C479.728 269.598 490.002 259.335 490.002 246.725L489.987 104.427C489.987 91.8177 479.714 81.525 467.077 81.525H366.647L365.825 77.0283C364.3 68.5876 363.523 59.9529 363.523 51.3774C363.523 42.19 364.36 33.3458 366.095 24.3372C366.409 22.4699 366.499 21.379 366.499 20.333C366.498 9.12813 357.377 0 346.176 0Z" fill="white"/>
</g>
</svg>
