<svg width="50" height="50" viewBox="0 0 50 50" fill="none" xmlns="http://www.w3.org/2000/svg">
<g clip-path="url(#clip0_949_361)">
<path d="M25 41.6668C15.81 41.6668 8.33321 34.19 8.33321 25C8.33321 15.8101 15.81 8.33325 25 8.33325C34.19 8.33325 41.6668 15.8101 41.6668 25C41.6668 34.19 34.19 41.6668 25 41.6668ZM25 9.99989C16.7294 9.99989 9.99985 16.7294 9.99985 25C9.99985 33.2707 16.7294 40.0002 25 40.0002C33.2706 40.0002 40.0002 33.2707 40.0002 25C40.0002 16.7294 33.2706 9.99989 25 9.99989Z" fill="#010F1C"/>
<path d="M25 50.0001C24.5399 50.0001 24.1665 49.6266 24.1665 49.1665V44.1666C24.1665 43.7066 24.5399 43.3335 25 43.3335C25.4601 43.3335 25.8335 43.7066 25.8335 44.1666V49.1665C25.8335 49.6266 25.4601 50.0001 25 50.0001Z" fill="#010F1C"/>
<path d="M25 6.66656C24.5399 6.66656 24.1665 6.29349 24.1665 5.83344V0.833511C24.1665 0.373459 24.5399 0 25 0C25.4601 0 25.8335 0.373459 25.8335 0.833511V5.83344C25.8335 6.29349 25.4601 6.66656 25 6.66656Z" fill="#010F1C"/>
<path d="M5.83344 25.8335H0.833511C0.373459 25.8335 0 25.4601 0 25C0 24.54 0.373459 24.1665 0.833511 24.1665H5.83344C6.29349 24.1665 6.66656 24.54 6.66656 25C6.66656 25.4601 6.29349 25.8335 5.83344 25.8335Z" fill="#010F1C"/>
<path d="M49.1665 25.8335H44.1666C43.7065 25.8335 43.3334 25.4601 43.3334 25C43.3334 24.54 43.7065 24.1665 44.1666 24.1665H49.1665C49.6265 24.1665 50 24.54 50 25C50 25.4601 49.6265 25.8335 49.1665 25.8335Z" fill="#010F1C"/>
<path d="M20.8332 37.5001C20.705 37.5001 20.5757 37.4711 20.4559 37.4101C20.1149 37.2369 19.936 36.8528 20.0218 36.4793L22.2858 26.6668H18.3334C18.0065 26.6668 17.7109 26.476 17.5751 26.18C17.4393 25.8836 17.4892 25.5349 17.7032 25.2885L28.5366 12.7885C28.7876 12.4986 29.2034 12.4177 29.5441 12.5909C29.8859 12.7641 30.0651 13.1486 29.9782 13.5217L27.7141 23.3335H31.6666C31.9935 23.3335 32.2891 23.5242 32.4249 23.8202C32.5607 24.1166 32.5107 24.4653 32.2967 24.7117L21.4634 37.2117C21.3009 37.4002 21.0693 37.5001 20.8332 37.5001ZM20.1584 25.0001H23.3333C23.5874 25.0001 23.8274 25.1161 23.9849 25.3144C24.1432 25.5124 24.2016 25.7726 24.1451 26.0209L22.3991 33.5878L29.8416 25.0001H26.6666C26.4126 25.0001 26.1726 24.8841 26.0143 24.6858C25.8568 24.4878 25.7976 24.2276 25.8541 23.9793L27.6009 16.4125L20.1584 25.0001Z" fill="#010F1C"/>
<path d="M42.0883 42.9219C41.8751 42.9219 41.6618 42.8399 41.4993 42.6777L37.9642 39.1427C37.6385 38.8169 37.6385 38.2901 37.9642 37.9643C38.29 37.6385 38.8168 37.6385 39.1426 37.9643L42.6777 41.4994C43.0035 41.8252 43.0035 42.3516 42.6777 42.6777C42.5152 42.8399 42.3016 42.9219 42.0883 42.9219Z" fill="#010F1C"/>
<path d="M11.4475 12.2798C11.2343 12.2798 11.0207 12.1982 10.8581 12.0357L7.3223 8.50057C6.99653 8.1748 6.99653 7.64837 7.3223 7.32221C7.64732 6.99644 8.17489 6.99644 8.50066 7.32221L12.0365 10.8573C12.3627 11.1831 12.3627 11.7099 12.0365 12.0357C11.874 12.1989 11.66 12.2798 11.4475 12.2798Z" fill="#010F1C"/>
<path d="M7.91167 42.9219C7.69843 42.9219 7.48481 42.8399 7.3223 42.6777C6.99653 42.3516 6.99653 41.8252 7.3223 41.4994L10.8581 37.9643C11.1843 37.6385 11.7115 37.6385 12.0365 37.9643C12.3627 38.2901 12.3627 38.8169 12.0365 39.1427L8.50066 42.6777C8.33816 42.8399 8.12492 42.9219 7.91167 42.9219Z" fill="#010F1C"/>
<path d="M38.5532 12.2798C38.34 12.2798 38.1267 12.1982 37.9642 12.0357C37.6385 11.7099 37.6385 11.1831 37.9642 10.8573L41.4993 7.32221C41.8251 6.99644 42.3515 6.99644 42.6777 7.32221C43.0035 7.64837 43.0035 8.1748 42.6777 8.50057L39.1426 12.0357C38.9793 12.1989 38.7665 12.2798 38.5532 12.2798Z" fill="#010F1C"/>
</g>
<defs>
<clipPath id="clip0_949_361">
<rect width="50" height="50" fill="white"/>
</clipPath>
</defs>
</svg>
