<svg width="50" height="50" viewBox="0 0 50 50" fill="none" xmlns="http://www.w3.org/2000/svg">
<path d="M14.392 32.4068C14.0002 32.4068 13.664 32.1103 13.6228 31.712L10.6615 3.01341H6.39103L3.42032 31.7122C3.37628 32.1375 2.99603 32.4467 2.57051 32.4026C2.14519 32.3586 1.83612 31.9781 1.88015 31.5528L4.92273 2.15951C4.96357 1.7649 5.29612 1.46503 5.69283 1.46503H11.3599C11.7567 1.46503 12.0893 1.76506 12.13 2.15974L15.1631 31.553C15.207 31.9784 14.8977 32.3587 14.4724 32.4026C14.4454 32.4054 14.4186 32.4068 14.392 32.4068Z" fill="#010F1C"/>
<path d="M38.373 5.98107H11.6658C11.2382 5.98107 10.8916 5.63445 10.8916 5.20687C10.8916 4.77929 11.2382 4.43268 11.6658 4.43268H38.373C38.8006 4.43268 39.1472 4.77929 39.1472 5.20687C39.1472 5.63445 38.8006 5.98107 38.373 5.98107Z" fill="#010F1C"/>
<path d="M47.3508 32.4067H38.6963C38.2687 32.4067 37.9221 32.0601 37.9221 31.6325C37.9221 31.2049 38.2687 30.8583 38.6963 30.8583H46.4926L43.6193 3.01341H39.3488L37.5072 20.8049C37.4632 21.2302 37.0827 21.5394 36.6574 21.4953C36.2321 21.4513 35.923 21.0708 35.9671 20.6455L37.8806 2.15951C37.9214 1.7649 38.2539 1.46503 38.6507 1.46503H44.3177C44.7146 1.46503 45.0471 1.76506 45.0878 2.15974L48.1209 31.553C48.1434 31.7711 48.0724 31.9884 47.9256 32.1511C47.7788 32.3138 47.5699 32.4067 47.3508 32.4067Z" fill="#010F1C"/>
<path d="M23.6232 13.465H14.9832C14.5556 13.465 14.209 13.1184 14.209 12.6908V8.09206C14.209 7.66448 14.5556 7.31787 14.9832 7.31787H23.6232C24.0508 7.31787 24.3974 7.66448 24.3974 8.09206V12.6908C24.3974 13.1184 24.0508 13.465 23.6232 13.465ZM15.7574 11.9166H22.849V8.86626H15.7574V11.9166Z" fill="#010F1C"/>
<path d="M35.1202 13.465H26.4802C26.0527 13.465 25.7061 13.1184 25.7061 12.6908V8.09206C25.7061 7.66448 26.0527 7.31787 26.4802 7.31787H35.1202C35.5478 7.31787 35.8944 7.66448 35.8944 8.09206V12.6908C35.8944 13.1184 35.5478 13.465 35.1202 13.465ZM27.2545 11.9166H34.3461V8.86626H27.2545V11.9166Z" fill="#010F1C"/>
<path d="M31.9907 32.3479C31.5897 32.3479 31.2504 32.0386 31.2196 31.6321C31.047 29.3549 30.1996 21.304 26.5401 13.3125C26.536 13.3037 26.5067 13.2386 26.4759 13.1705C26.4443 13.1003 26.4111 13.0267 26.4052 13.0139C26.2277 12.6253 26.3982 12.1659 26.7865 11.9878C27.1749 11.8098 27.6338 11.9795 27.8123 12.3676C27.8169 12.3777 27.853 12.4576 27.8874 12.5337C27.9159 12.5969 27.9431 12.6572 27.948 12.6681C29.3187 15.6612 30.4527 19.0041 31.3185 22.6037C32.2473 26.465 32.617 29.5811 32.7636 31.5151C32.7959 31.9415 32.4764 32.3133 32.0501 32.3456C32.0302 32.3471 32.0103 32.3479 31.9907 32.3479Z" fill="#010F1C"/>
<path d="M38.6943 32.3476C38.2933 32.3476 37.954 32.0384 37.9232 31.6319C37.7508 29.3578 36.9047 21.3173 33.2522 13.331C33.2468 13.3192 33.217 13.2529 33.1855 13.1828C33.1521 13.1084 33.1166 13.0295 33.1095 13.014C32.9317 12.6255 33.1021 12.1659 33.4904 11.9877C33.8789 11.8095 34.3379 11.9791 34.5164 12.3673C34.5227 12.3811 34.5614 12.467 34.5978 12.5479C34.627 12.613 34.6547 12.6747 34.6604 12.6872C36.0285 15.6785 37.1603 19.0181 38.0245 22.6134C38.9516 26.4706 39.3208 29.5831 39.4672 31.5149C39.4994 31.9413 39.18 32.3131 38.7537 32.3454C38.7337 32.3469 38.7139 32.3476 38.6943 32.3476Z" fill="#010F1C"/>
<path d="M20.5141 32.3476C20.1131 32.3477 19.7737 32.0384 19.7429 31.6319C19.5706 29.3577 18.7245 21.3179 15.0725 13.3322C15.0621 13.3104 15.0316 13.2486 15.0014 13.1875C14.9369 13.0567 14.925 13.0324 14.9166 13.014C14.7381 12.6255 14.9084 12.1658 15.2969 11.9873C15.6836 11.8097 16.1407 11.9775 16.321 12.3621C16.3303 12.3814 16.3601 12.4418 16.3902 12.5028C16.4574 12.6392 16.4698 12.6646 16.4786 12.6837C17.8471 15.6754 18.9793 19.0156 19.8438 22.6116C20.7712 26.4696 21.1404 29.5827 21.2869 31.5149C21.3192 31.9412 20.9997 32.313 20.5734 32.3454C20.5535 32.3469 20.5337 32.3476 20.5141 32.3476Z" fill="#010F1C"/>
<path d="M27.2176 32.3476C26.8165 32.3476 26.4772 32.0384 26.4464 31.6319C26.2742 29.3586 25.4287 21.3228 21.7791 13.3388C21.7674 13.315 21.7373 13.2553 21.7074 13.1961C21.6387 13.0597 21.6269 13.0359 21.6168 13.0141C21.4383 12.6255 21.6085 12.1658 21.997 11.9873C22.3831 11.8098 22.8395 11.9769 23.0204 12.3603C23.0309 12.3819 23.0604 12.4403 23.0902 12.4993C23.1617 12.6411 23.174 12.6659 23.1844 12.6887C24.5522 15.6799 25.6839 19.0193 26.5479 22.6142C27.475 26.4711 27.844 29.5833 27.9904 31.5149C28.0227 31.9413 27.7033 32.3131 27.2769 32.3454C27.257 32.3469 27.2372 32.3476 27.2176 32.3476Z" fill="#010F1C"/>
<path d="M47.3503 32.4067H2.65017C2.22259 32.4067 1.87598 32.0601 1.87598 31.6325C1.87598 31.205 2.22259 30.8583 2.65017 30.8583H47.3503C47.7779 30.8583 48.1245 31.205 48.1245 31.6325C48.1245 32.0601 47.7779 32.4067 47.3503 32.4067Z" fill="#010F1C"/>
<path d="M40.9212 41.254C40.7055 41.254 40.4909 41.1643 40.3379 40.9891C38.5919 38.991 36.8343 37.9441 35.1139 37.8775C33.6902 37.8222 32.6303 38.5196 31.5082 39.2578C30.204 40.1158 28.7257 41.0882 26.65 40.7314C25.019 40.4511 23.9028 39.683 22.918 39.0052C21.9602 38.346 21.2035 37.8251 20.2102 37.919C19.2665 38.0079 18.6434 38.5899 17.9219 39.2639C17.1541 39.9809 16.284 40.7937 14.9529 40.9314C14.0227 41.0277 10.7268 41.035 7.3663 37.087C7.08917 36.7614 7.12843 36.2728 7.45404 35.9957C7.77966 35.7185 8.26824 35.7578 8.5454 36.0834C9.70692 37.448 10.9663 38.4128 12.2886 38.9512C13.5245 39.4545 14.452 39.4266 14.7934 39.3913C15.6072 39.3071 16.19 38.7627 16.8649 38.1323C17.6761 37.3746 18.5955 36.5158 20.065 36.3774C21.6183 36.231 22.7253 36.993 23.7959 37.7297C24.691 38.3457 25.6167 38.9827 26.9123 39.2054C28.3858 39.4588 29.4383 38.7661 30.6573 37.9642C31.8745 37.1635 33.2546 36.2564 35.1739 36.3302C37.3369 36.414 39.4666 37.6387 41.5039 39.9703C41.7853 40.2923 41.7523 40.7814 41.4304 41.0628C41.2835 41.191 41.102 41.254 40.9212 41.254Z" fill="#010F1C"/>
<path d="M40.9924 48.535C40.7767 48.535 40.5622 48.4454 40.4091 48.2702C38.6632 46.2721 36.9056 45.2252 35.1851 45.1585C33.7619 45.1025 32.7016 45.8007 31.5795 46.5389C30.4654 47.2717 29.2241 48.0881 27.5921 48.0882C27.3135 48.0882 27.0239 48.0644 26.7212 48.0124C25.0903 47.7321 23.9741 46.9639 22.9893 46.2862C22.0315 45.627 21.275 45.106 20.2815 45.2C19.3378 45.2889 18.7147 45.8709 17.9931 46.5449C17.2254 47.2619 16.3553 48.0747 15.0241 48.2124C14.094 48.3087 10.7982 48.316 7.43759 44.368C7.16046 44.0424 7.19972 43.5538 7.52533 43.2767C7.85091 42.9995 8.33956 43.0388 8.61669 43.3644C9.77817 44.729 11.0376 45.6938 12.3598 46.2322C13.5958 46.7355 14.5233 46.7076 14.8647 46.6723C15.6785 46.5881 16.2613 46.0437 16.9362 45.4133C17.7474 44.6556 18.6669 43.7968 20.1364 43.6584C21.6896 43.5119 22.7966 44.2739 23.8671 45.0106C24.7623 45.6267 25.6879 46.2637 26.9836 46.4864C28.4569 46.7396 29.5096 46.0471 30.7286 45.2452C31.9457 44.4445 33.326 43.537 35.2451 43.6112C37.4081 43.695 39.5379 44.9197 41.5752 47.2514C41.8565 47.5733 41.8236 48.0624 41.5016 48.3438C41.3548 48.4721 41.1732 48.535 40.9924 48.535Z" fill="#010F1C"/>
</svg>
