<svg width="50" height="50" viewBox="0 0 50 50" fill="none" xmlns="http://www.w3.org/2000/svg">
<path d="M13.1348 20.5938C13.1348 20.9982 13.4626 21.3262 13.8672 21.3262C14.2718 21.3262 14.5996 20.9982 14.5996 20.5938C14.5996 16.7554 16.7025 13.242 20.0877 11.4246C20.444 11.2333 20.5779 10.7893 20.3866 10.4329C20.1952 10.0766 19.7513 9.94268 19.3948 10.134C15.5334 12.207 13.1348 16.2149 13.1348 20.5938ZM6.75752 24.8229C6.38838 23.3415 6.20117 21.8075 6.20117 20.2637C6.20117 16.4657 7.32793 12.8067 9.45977 9.68223C11.5418 6.63057 14.4412 4.27646 17.8443 2.87451C18.2184 2.72041 18.3967 2.29238 18.2426 1.91826C18.0886 1.54434 17.6606 1.36582 17.2864 1.52002C13.6182 3.03125 10.4934 5.56826 8.2498 8.85664C5.95117 12.2254 4.73633 16.1699 4.73633 20.2637C4.73633 21.9268 4.93809 23.5799 5.33623 25.177C5.43486 25.5729 5.83984 25.8063 6.22402 25.7106C6.6165 25.6129 6.85537 25.2154 6.75752 24.8229ZM29.9123 11.4246C33.2975 13.242 35.4004 16.7554 35.4004 20.5938C35.4004 20.9982 35.7282 21.3262 36.1328 21.3262C36.5374 21.3262 36.8652 20.9982 36.8652 20.5938C36.8652 16.2149 34.4666 12.207 30.6052 10.134C30.2487 9.94268 29.8048 10.0765 29.6134 10.4329C29.4221 10.7893 29.5559 11.2332 29.9123 11.4246ZM20.1338 39.1987C20.249 38.8109 20.028 38.4032 19.6401 38.2881C17.1794 37.5572 14.9282 36.3474 12.9494 34.6921C12.6391 34.4326 12.1772 34.4737 11.9177 34.784C11.6582 35.0942 11.6993 35.5562 12.0095 35.8157C14.1426 37.6 16.5695 38.9042 19.2231 39.6923C19.601 39.8045 20.0173 39.5908 20.1338 39.1987ZM41.9408 29.0328L34.6774 22.8585C33.6014 21.9345 32.1571 22.3686 31.3697 23.4024L29.0626 22.0703C29.9935 19.5616 28.3913 16.7519 25.7324 16.2999V13.492C25.9668 13.411 26.1942 13.3035 26.4096 13.1667C27.3378 12.5767 27.8919 11.5679 27.8919 10.4681V2.03359C27.8918 0.912305 26.9796 0 25.8582 0C24.8759 0 24.0347 0.701367 23.8578 1.66768L22.1425 11.045C21.9681 11.9985 22.4593 12.9519 23.3369 13.3634C23.6367 13.5039 23.9504 13.5942 24.2676 13.6375V16.3017C23.0073 16.5187 21.9178 17.2684 21.2681 18.3704C20.582 19.5342 20.5042 20.8908 20.938 22.0694L18.504 23.4752C18.3166 23.3125 18.1093 23.1692 17.8829 23.0512C16.9081 22.5424 15.7572 22.567 14.8047 23.1168L7.50039 27.334C6.53604 27.8828 6.20146 29.1513 6.75605 30.1119C7.25117 30.9696 8.29062 31.3365 9.20039 31.0104L18.1791 27.8073C19.0922 27.4816 19.6722 26.5796 19.5896 25.6137C19.5613 25.2841 19.4831 24.9674 19.3621 24.6712L21.6686 23.3391C21.9329 23.6578 22.2467 23.943 22.6073 24.1815L21.9341 37.4758C21.9122 37.893 22.2476 38.2452 22.6661 38.2452C23.0536 38.2452 23.3771 37.9412 23.397 37.5498L24.043 24.7932C24.3573 24.8641 24.6755 24.9011 24.9924 24.9011C25.3179 24.9011 25.6411 24.8623 25.9567 24.7906L27.1593 48.5352H22.8407L23.2229 40.9912C23.2434 40.5872 22.9324 40.2432 22.5284 40.2227C22.1246 40.2006 21.7804 40.5132 21.76 40.9171L21.374 48.5352H12.8273C12.4228 48.5352 12.0949 48.8631 12.0949 49.2676C12.0949 49.6721 12.4228 50 12.8273 50H37.1719C37.5765 50 37.9043 49.6721 37.9043 49.2676C37.9043 48.8631 37.5765 48.5352 37.1719 48.5352H28.626L27.3926 24.1794C27.7393 23.9504 28.0553 23.6685 28.3294 23.3384L30.7632 24.7437C30.5027 26.0685 31.1133 27.4444 32.3025 28.1262L39.6069 32.3435C40.5672 32.899 41.8181 32.5809 42.3849 31.599C42.876 30.7483 42.6893 29.6691 41.9408 29.0328ZM17.6869 26.4277L8.7082 29.6309C8.44932 29.7234 8.16201 29.6175 8.02461 29.3795C7.86992 29.1116 7.96406 28.756 8.23281 28.6025L15.5372 24.3854C16.0617 24.0825 16.6697 24.0703 17.2053 24.3498C17.7415 24.6297 18.0786 25.1357 18.1302 25.7385C18.1561 26.0418 17.9738 26.3254 17.6869 26.4277ZM23.9587 12.037C23.6829 11.9077 23.5286 11.6082 23.5834 11.3087L25.2987 1.93135C25.3481 1.66104 25.5834 1.46494 25.8582 1.46494C26.1719 1.46494 26.427 1.72012 26.427 2.03369V10.4681C26.427 11.0729 26.1342 11.606 25.6236 11.9305C25.1134 12.2549 24.5064 12.2939 23.9587 12.037ZM27.4694 22.0263C26.6667 23.3881 24.9058 23.843 23.5437 23.04C22.1819 22.2372 21.7271 20.4762 22.53 19.1143C23.0503 18.2316 23.9815 17.703 25 17.703C25.0045 17.703 25.0088 17.7024 25.0132 17.7023C27.1278 17.6655 28.587 20.1304 27.4694 22.0263ZM41.1162 30.8666C40.9594 31.1383 40.611 31.2315 40.3393 31.0748L33.0349 26.8575C31.9408 26.2383 31.8845 24.6378 32.9103 23.9354C33.1612 23.7636 33.4966 23.7772 33.7287 23.9746L40.992 30.1488C41.2013 30.3269 41.2536 30.6287 41.1162 30.8666ZM24.9997 19.8379C24.5952 19.8379 24.2673 20.1658 24.2673 20.5703C24.2673 20.9748 24.5952 21.3027 24.9997 21.3027C25.4042 21.3027 25.7321 20.9748 25.7321 20.5703C25.7321 20.1658 25.4042 19.8379 24.9997 19.8379ZM37.0507 34.692C35.0703 36.3479 32.8191 37.5577 30.3598 38.2881C29.9719 38.4032 29.751 38.8109 29.8661 39.1987C29.9825 39.5904 30.3975 39.805 30.7767 39.6923C33.4286 38.9047 35.8557 37.6005 37.9901 35.8158C38.3005 35.5563 38.3418 35.0944 38.0822 34.7842C37.823 34.4737 37.361 34.4326 37.0507 34.692ZM41.7502 8.85664C39.5065 5.56826 36.3817 3.03125 32.7135 1.52012C32.3396 1.36592 31.9113 1.54434 31.7573 1.91836C31.6032 2.29238 31.7815 2.72051 32.1556 2.87461C35.5588 4.27656 38.4581 6.63066 40.5401 9.68232C42.672 12.8068 43.7987 16.4658 43.7987 20.2638C43.7987 21.8076 43.6115 23.3415 43.2424 24.823C43.1445 25.2155 43.3834 25.613 43.776 25.7108C44.1584 25.8062 44.5648 25.574 44.6638 25.1772C45.0618 23.5801 45.2637 21.927 45.2637 20.2639C45.2637 16.1699 44.0488 12.2254 41.7502 8.85664Z" fill="#010F1C"/>
</svg>
