<svg width="50" height="44" viewBox="0 0 50 44" fill="none" xmlns="http://www.w3.org/2000/svg">
<path d="M50 11.9973C50 10.5202 48.7983 9.31846 47.3213 9.31846H46.5085V7.78291C46.5085 6.23906 45.3318 4.96484 43.8281 4.80986V3.52158C43.8281 2.01699 42.6041 0.792969 41.0996 0.792969H40.2994C38.7964 0.792969 37.5735 2.01699 37.5735 3.52158V4.79404H33.9597L33.2396 2.51416C32.8559 1.29531 32.0426 1.03945 31.4279 1.03945H18.5721C17.9574 1.03945 17.144 1.29531 16.7607 2.51309L16.0381 4.79404H12.4264V3.52158C12.4264 2.01699 11.2022 0.792969 9.69775 0.792969H8.90039C7.3959 0.792969 6.17188 2.01699 6.17188 3.52158V4.80996C4.66826 4.96484 3.4915 6.23906 3.4915 7.78301V9.31855H2.67598C1.20039 9.31846 0 10.5202 0 11.9973C0 13.4408 1.14912 14.6203 2.58066 14.6709V34.9395C1.50947 35.1151 0.689453 36.0469 0.689453 37.167V41.8133C0.689453 42.5819 1.31475 43.2072 2.0834 43.2072H47.5566C48.3252 43.2072 48.9506 42.5819 48.9506 41.8133V37.167C48.9506 36.1762 48.3088 35.333 47.4193 35.0298V14.6708C48.8511 14.6189 50 13.4399 50 11.9973ZM39.027 3.52158C39.027 2.81836 39.5978 2.24629 40.2995 2.24629H41.0997C41.8028 2.24629 42.3749 2.81836 42.3749 3.52158V4.79404H39.0271V3.52158H39.027ZM18.1465 2.95068C18.2907 2.49277 18.4211 2.49277 18.5721 2.49277H31.4279C31.5789 2.49277 31.7093 2.49277 31.8536 2.95127L32.4356 4.79414H17.5626L18.1465 2.95068ZM7.6252 3.52158C7.6252 2.81836 8.19727 2.24629 8.90039 2.24629H9.69785C10.4011 2.24629 10.9731 2.81836 10.9731 3.52158V4.79404H7.6252V3.52158ZM4.94482 7.78291C4.94482 6.93623 5.63369 6.24736 6.48037 6.24736H6.89854H11.6998H16.5702H33.4272H38.3003H43.1016H43.5197C44.3665 6.24736 45.0553 6.93623 45.0553 7.78291V9.31846H4.94482V7.78291ZM47.4973 41.7539H2.14287V37.167C2.14287 36.7233 2.50371 36.3625 2.94736 36.3625H4.32637C4.77158 36.3625 5.13369 36.7234 5.13369 37.167V38.5792C5.13369 38.9806 5.45898 39.3059 5.86035 39.3059H23.5202C23.9216 39.3059 24.2469 38.9805 24.2469 38.5792C24.2469 38.1779 23.9216 37.8525 23.5202 37.8525H6.58691V37.167C6.58691 35.922 5.57275 34.9091 4.32627 34.9091H4.03398V14.6732H23.5201C23.9215 14.6732 24.2468 14.3479 24.2468 13.9466C24.2468 13.5453 23.9215 13.2199 23.5201 13.2199H2.67598C2.00186 13.2199 1.45332 12.6715 1.45332 11.9973C1.45332 11.3216 2.00186 10.7718 2.67598 10.7718H47.3213C47.997 10.7718 48.5467 11.3215 48.5467 11.9973C48.5467 12.6715 47.997 13.2199 47.3213 13.2199H26.9008C26.4994 13.2199 26.1741 13.5453 26.1741 13.9466C26.1741 14.3479 26.4994 14.6732 26.9008 14.6732H45.966V34.9091H45.311C44.066 34.9091 43.0531 35.922 43.0531 37.167V37.8525H26.9008C26.4994 37.8525 26.1741 38.1779 26.1741 38.5792C26.1741 38.9805 26.4994 39.3059 26.9008 39.3059H43.7799C44.1813 39.3059 44.5065 38.9805 44.5065 38.5792V37.167C44.5065 36.7233 44.8674 36.3625 45.311 36.3625H46.6927C47.1363 36.3625 47.4972 36.7234 47.4972 37.167V41.7539H47.4973Z" fill="#010F1C"/>
<path d="M30.6562 24.9783C30.3681 24.3953 29.6353 24.3953 29.3595 24.3953H26.0759L27.2053 19.7614C27.3048 19.3522 27.5119 18.5007 26.8369 18.1791C26.1339 17.844 25.5579 18.6001 25.1387 19.1506L19.7667 26.1648C19.4967 26.518 19.0445 27.1092 19.3425 27.7121C19.6327 28.2991 20.3566 28.2991 20.6291 28.2991H23.9092L22.7828 32.9323C22.6099 33.6523 22.7521 34.1272 23.2055 34.3438C23.3309 34.4036 23.4538 34.4293 23.5728 34.4293C24.169 34.4293 24.6656 33.7836 24.85 33.5437L30.219 26.527C30.51 26.1467 30.9496 25.5719 30.6562 24.9783ZM24.6469 31.4179L25.342 28.5582C25.4243 28.2196 25.4963 27.7217 25.1729 27.3101C24.8459 26.8939 24.3273 26.8458 23.9658 26.8458H21.0758L25.3397 21.2784L24.6082 24.2797C24.5428 24.548 24.421 25.0475 24.7341 25.446C25.0503 25.8487 25.5622 25.8487 25.8679 25.8487H28.9082L24.6469 31.4179Z" fill="#010F1C"/>
<path d="M37.4862 22.9357H38.3628V23.815C38.3628 24.2164 38.6881 24.5417 39.0895 24.5417C39.4908 24.5417 39.8161 24.2163 39.8161 23.815V22.9357H40.6953C41.0967 22.9357 41.422 22.6104 41.422 22.2091C41.422 21.8077 41.0967 21.4824 40.6953 21.4824H39.8161V20.6031C39.8161 20.2018 39.4908 19.8765 39.0895 19.8765C38.6881 19.8765 38.3628 20.2019 38.3628 20.6031V21.4824H37.4862C37.0849 21.4824 36.7596 21.8078 36.7596 22.2091C36.7596 22.6104 37.0849 22.9357 37.4862 22.9357Z" fill="#010F1C"/>
<path d="M11.5225 21.4824H8.75632C8.35496 21.4824 8.02966 21.8078 8.02966 22.2091C8.02966 22.6104 8.35496 22.9357 8.75632 22.9357H11.5225C11.9239 22.9357 12.2492 22.6104 12.2492 22.2091C12.2492 21.8077 11.9239 21.4824 11.5225 21.4824Z" fill="#010F1C"/>
</svg>
