<svg width="40" height="50" viewBox="0 0 40 50" fill="none" xmlns="http://www.w3.org/2000/svg">
<path d="M19.6471 0.10336C19.0346 0.406179 19.1207 2.22309 19.7523 2.38915C19.8863 2.41846 20.116 2.41846 20.25 2.38915C20.9007 2.22309 20.9581 0.39641 20.3265 0.0935915C20.0394 -0.033397 19.9246 -0.033397 19.6471 0.10336Z" fill="#010F1C"/>
<path d="M14.7377 2.23285C14.6228 2.35007 14.5463 2.55521 14.5463 2.75058C14.5463 3.02409 14.642 3.17061 15.1109 3.62973C15.4267 3.94231 15.7425 4.18652 15.8286 4.18652C16.1157 4.18652 16.4507 3.96185 16.5559 3.70787C16.6995 3.33668 16.5751 3.05339 16.0009 2.4966C15.4554 1.97888 15.063 1.90073 14.7377 2.23285Z" fill="#010F1C"/>
<path d="M24.0014 2.4966C23.4272 3.05339 23.3028 3.33668 23.4463 3.70787C23.5516 3.96185 23.8865 4.18652 24.1736 4.18652C24.2598 4.18652 24.5756 3.94231 24.8914 3.62973C25.3603 3.17061 25.456 3.02409 25.456 2.75058C25.456 2.3403 25.1689 2.03749 24.7861 2.03749C24.566 2.03749 24.365 2.15471 24.0014 2.4966Z" fill="#010F1C"/>
<path d="M19.4078 3.99114C17.4842 4.32326 16.1157 6.27693 16.4603 8.21106C16.6804 9.45164 17.4172 10.4187 18.5465 10.956C19.1111 11.2197 19.2929 11.2588 20.0011 11.2588C20.7093 11.2588 20.8911 11.2197 21.4557 10.956C23.3123 10.0671 24.0779 7.97662 23.2549 6.08156C22.6233 4.61631 20.9773 3.72739 19.4078 3.99114ZM20.9103 5.63222C22.7764 6.56021 22.4606 9.29535 20.4318 9.76423C19.7523 9.92052 19.025 9.70562 18.5274 9.20744C18.0584 8.73855 17.867 8.27944 17.867 7.60543C17.8575 6.01318 19.5322 4.93867 20.9103 5.63222Z" fill="#010F1C"/>
<path d="M12.7471 7.14635C12.3739 7.54685 12.5079 8.09388 13.0246 8.27948C13.4074 8.41624 14.0678 8.41624 14.4123 8.28925C14.9482 8.07434 15.0918 7.50778 14.709 7.13658C14.5176 6.95098 14.374 6.92168 13.7233 6.92168C13.0438 6.92168 12.929 6.95098 12.7471 7.14635Z" fill="#010F1C"/>
<path d="M25.2837 7.14635C24.9105 7.54685 25.0636 8.08411 25.59 8.28925C25.9345 8.41624 26.5948 8.41624 26.9776 8.27948C27.4944 8.09388 27.6379 7.50778 27.2456 7.13658C27.0542 6.95098 26.9106 6.92168 26.2599 6.92168C25.5804 6.92168 25.4656 6.95098 25.2837 7.14635Z" fill="#010F1C"/>
<path d="M15.6468 11.1123C15.5416 11.1611 15.2545 11.4151 15.0056 11.6886C14.4889 12.2552 14.4123 12.6459 14.7377 12.9781C15.0918 13.3395 15.4937 13.2418 16.0488 12.6557C16.6612 12.0305 16.7474 11.7277 16.4411 11.3858C16.1827 11.0928 15.9148 11.0048 15.6468 11.1123Z" fill="#010F1C"/>
<path d="M23.8578 11.1221C23.5516 11.2491 23.3219 11.6496 23.3984 11.9231C23.4367 12.0501 23.6855 12.3822 23.9535 12.6557C24.5086 13.2418 24.9105 13.3395 25.2646 12.9781C25.6091 12.6264 25.5134 12.2454 24.9583 11.6593C24.4129 11.1025 24.1927 10.9853 23.8578 11.1221Z" fill="#010F1C"/>
<path d="M19.5705 13.0073C19.3695 13.1831 19.3025 13.3394 19.2642 13.8083C19.1781 14.834 19.5513 15.3614 20.2499 15.1856C20.8241 15.0391 20.9581 13.4664 20.4318 13.0073C20.2978 12.8803 20.0968 12.7826 20.0011 12.7826C19.9054 12.7826 19.7045 12.8803 19.5705 13.0073Z" fill="#010F1C"/>
<path d="M4.41173 18.3408C4.28732 18.3701 4.1055 18.5166 4.0098 18.6436C3.90453 18.7999 3.17721 22.1114 1.92355 28.2459L0 37.5942V39.2841C0 40.9252 0.00956992 40.9838 0.220108 41.1889L0.440216 41.4039H9.12013H17.8001V43.504V45.6042H14.9004H11.9911L11.7901 45.8289C11.5987 46.034 11.5796 46.161 11.5796 47.2942V48.5347H7.96217C4.04808 48.5347 4.01937 48.5347 3.88539 49.072C3.8184 49.3553 4.02894 49.8437 4.25861 49.9414C4.46915 50.0195 35.5331 50.0195 35.7436 49.9414C35.9733 49.8437 36.1839 49.3553 36.1169 49.072C35.9829 48.5347 35.9542 48.5347 32.0401 48.5347H28.4227V47.2844C28.4227 45.4675 28.7002 45.6042 25.0923 45.6042H22.2022V43.504V41.4039H30.8917H39.5908L39.7917 41.1792C39.9927 40.9643 40.0023 40.8666 40.0023 39.245L39.9927 37.5454L38.05 28.1384C36.404 20.1284 36.0786 18.7022 35.8968 18.5166L35.6862 18.3017L20.1638 18.2822C11.6275 18.2822 4.53614 18.3017 4.41173 18.3408ZM14.0678 20.0307C14.0678 20.1577 14.0008 21.0661 13.9242 22.0625C13.8477 23.0589 13.7807 24.0162 13.7807 24.1822V24.5046H8.99572C6.04819 24.5046 4.21076 24.4655 4.21076 24.4167C4.21076 24.3092 5.06249 20.1186 5.11991 19.933C5.14862 19.8451 6.13432 19.8158 9.61777 19.8158H14.0678V20.0307ZM24.499 20.1284C24.499 20.3042 24.566 21.2615 24.6425 22.2579C24.7191 23.2543 24.7861 24.1627 24.7861 24.2799V24.5046H20.0011C15.5033 24.5046 15.2162 24.4948 15.2162 24.3288C15.2162 24.2409 15.2832 23.2836 15.3597 22.209C15.4363 21.1345 15.5033 20.1577 15.5033 20.0307V19.8158H20.0011H24.499V20.1284ZM35.3226 22.0625C35.581 23.2738 35.7819 24.319 35.7915 24.3776C35.7915 24.4753 34.7771 24.5046 31.0065 24.5046H26.2216V24.1822C26.2216 24.0162 26.1546 23.0589 26.078 22.0625C26.0015 21.0661 25.9345 20.1577 25.9345 20.0307V19.8158L30.4036 19.8353L34.8728 19.8646L35.3226 22.0625ZM13.618 26.0382C13.6467 26.0968 13.35 30.6098 13.3118 30.727C13.3022 30.7466 10.948 30.7563 8.07701 30.7563C3.1485 30.7563 2.86141 30.7466 2.90926 30.5805C2.93797 30.4926 3.15807 29.4474 3.39732 28.2654C3.64614 27.0834 3.86625 26.0871 3.88539 26.048C3.95238 25.9503 13.5701 25.9503 13.618 26.0382ZM24.9201 26.3801C24.9488 26.6146 25.0158 27.5719 25.0732 28.5096C25.1306 29.4474 25.1976 30.3363 25.2167 30.4828L25.2646 30.7563H20.0011H14.7472L14.7855 30.4828C14.8047 30.3363 14.8717 29.4474 14.9291 28.5096C14.9865 27.5719 15.0535 26.6146 15.0822 26.3801L15.13 25.9699H20.0011H24.8722L24.9201 26.3801ZM36.1169 26.048C36.136 26.0871 36.3561 27.0834 36.6049 28.2654C36.8442 29.4474 37.0643 30.4926 37.093 30.5805C37.1409 30.7466 36.8538 30.7563 31.9253 30.7563C29.0543 30.7563 26.7001 30.7466 26.6905 30.727C26.6522 30.6098 26.3556 26.0968 26.3843 26.0382C26.4321 25.9503 36.0499 25.9503 36.1169 26.048ZM13.2065 32.4365C13.2065 32.5635 13.1395 33.5403 13.0629 34.6148C12.9864 35.6894 12.9194 36.6662 12.9194 36.7834V37.0081H10.3355H7.74206L7.51239 37.2523C7.37841 37.3793 7.27314 37.604 7.27314 37.7407C7.27314 37.8775 7.37841 38.1021 7.51239 38.2291L7.74206 38.4733H23.1592H38.5668V39.206V39.9386H20.0011H1.43549V39.206V38.4733H3.27291C5.02421 38.4733 5.11991 38.4636 5.33045 38.2584C5.64625 37.9654 5.62711 37.477 5.30174 37.2132C5.06249 37.0276 4.91894 37.0081 3.3399 37.0081C2.39248 37.0081 1.62689 36.969 1.62689 36.9299C1.62689 36.8518 2.39248 33.0714 2.53603 32.4365L2.58388 32.2216H7.89518H13.2065V32.4365ZM25.4464 33.9018C25.5038 34.8297 25.5804 35.914 25.6187 36.295L25.6761 37.0081H20.0011H14.3262L14.3836 36.295C14.4219 35.914 14.4984 34.8297 14.5558 33.9018L14.6707 32.2216H20.0011H25.3316L25.4464 33.9018ZM37.4662 32.4365C37.6098 33.0714 38.3754 36.8518 38.3754 36.9299C38.3754 36.969 35.8393 37.0081 32.7291 37.0081H27.0829V36.7834C27.0829 36.6662 27.0159 35.6894 26.9393 34.6148C26.8628 33.5403 26.7958 32.5635 26.7958 32.4365V32.2216H32.1071H37.4184L37.4662 32.4365ZM20.7189 43.504V45.5554H20.0011H19.2834L19.2547 43.6017C19.2451 42.5272 19.2547 41.5992 19.2834 41.5211C19.3121 41.4332 19.5131 41.4039 20.0203 41.4234L20.7189 41.4527V43.504ZM26.9872 47.8021V48.5347H20.0011H13.0151V47.8021V47.0695H20.0011H26.9872V47.8021Z" fill="#010F1C"/>
</svg>
