<svg width="50" height="50" viewBox="0 0 50 50" fill="none" xmlns="http://www.w3.org/2000/svg">
<g clip-path="url(#clip0_1172_229)">
<path d="M37.3985 29.0902C40.5605 25.7968 42.2605 21.4668 42.1852 16.898C42.0299 7.4713 34.2324 -0.106137 24.7961 0.00118718C15.3875 0.11066 7.8125 7.76095 7.8125 17.1875C7.8125 21.6378 9.50732 25.8588 12.585 29.0731C14.181 30.7401 15.2364 32.8779 15.5585 35.454C13.8927 36.3041 13.546 38.5325 14.8858 39.8438C13.2291 41.4652 14.2223 44.3022 16.5405 44.5189C17.3144 47.7412 20.1951 50 23.493 50H26.5069C29.8078 50 32.6862 47.7384 33.4595 44.5189C35.7764 44.3023 36.7721 41.4663 35.1142 39.8438C36.4562 38.5303 36.105 36.3029 34.4416 35.454C34.7608 32.902 35.793 30.7625 37.3985 29.0902ZM13.7135 27.9924C10.9157 25.0704 9.375 21.2331 9.375 17.1875C9.375 8.6715 16.301 1.66261 24.8143 1.56359C33.3861 1.46632 40.4816 8.35431 40.6228 16.9237C40.6912 21.0777 39.1459 25.0142 36.2714 28.008C34.4783 29.8756 33.2538 32.3509 32.9041 35.1562H25.7812V26.5624H28.125C32.8636 26.5624 36.7188 22.7072 36.7188 17.9687V15.6249C36.7188 15.1935 36.3689 14.8437 35.9375 14.8437H32.8125C29.3501 14.8437 26.3598 16.9021 25 19.8593C23.6402 16.9022 20.6499 14.8438 17.1875 14.8438H14.0625C13.6311 14.8438 13.2812 15.1936 13.2812 15.625V17.9688C13.2812 22.7073 17.1364 26.5625 21.875 26.5625H24.2188V35.1563H17.0959C16.7413 32.3248 15.4966 29.8547 13.7135 27.9924ZM31.838 19.7981C31.5538 19.4733 31.0601 19.4405 30.7356 19.7246L25.7812 24.0596V23.4375C25.7812 19.5605 28.9354 16.4063 32.8125 16.4063H35.1562V17.9688C35.1562 21.8458 32.0021 25 28.125 25H27.0792L31.7645 20.9005C32.0892 20.6163 32.1221 20.1228 31.838 19.7981ZM24.2188 24.0596L19.2645 19.7245C18.9396 19.4403 18.4462 19.4733 18.162 19.798C17.8778 20.1227 17.9107 20.6162 18.2354 20.9004L22.9207 25H21.875C17.9979 25 14.8438 21.8458 14.8438 17.9688V16.4063H17.1875C21.0646 16.4063 24.2188 19.5605 24.2188 23.4375V24.0596ZM26.507 48.4375H23.4931C21.0395 48.4375 18.8893 46.811 18.1647 44.5313H31.8353C31.1107 46.8109 28.9606 48.4375 26.507 48.4375ZM34.375 41.7969C34.375 42.4431 33.8493 42.9688 33.2031 42.9688C32.251 42.9688 17.4283 42.9688 16.7969 42.9688C16.1507 42.9688 15.625 42.4431 15.625 41.7969C15.625 41.1507 16.1507 40.625 16.7969 40.625H33.2031C33.8493 40.625 34.375 41.1507 34.375 41.7969ZM16.7969 39.0625C16.1507 39.0625 15.625 38.5368 15.625 37.8906C15.625 37.2444 16.1507 36.7188 16.7969 36.7188H33.2031C33.8493 36.7188 34.375 37.2444 34.375 37.8906C34.375 38.5368 33.8493 39.0625 33.2031 39.0625H16.7969Z" fill="#010F1C"/>
<path d="M5.46875 17.1875C5.46875 16.7561 5.11895 16.4062 4.6875 16.4062H0.78125C0.349805 16.4062 0 16.7561 0 17.1875C0 17.6189 0.349805 17.9688 0.78125 17.9688H4.6875C5.11895 17.9688 5.46875 17.6189 5.46875 17.1875Z" fill="#010F1C"/>
<path d="M7.01827 26.6671L3.63536 28.6202C3.26172 28.8359 3.1337 29.3138 3.34942 29.6874C3.56553 30.0616 4.04336 30.1888 4.41661 29.9733L7.79952 28.0202C8.17315 27.8045 8.30118 27.3266 8.08545 26.953C7.86963 26.5794 7.3919 26.4516 7.01827 26.6671Z" fill="#010F1C"/>
<path d="M3.63542 5.7547C7.25661 7.84533 7.11218 7.81261 7.40827 7.81261C8.20632 7.81261 8.48884 6.75256 7.79958 6.35461L4.41667 4.40148C4.04294 4.18576 3.5653 4.31379 3.34948 4.68742C3.13366 5.06115 3.26169 5.53898 3.63542 5.7547Z" fill="#010F1C"/>
<path d="M49.2188 16.4062H45.3125C44.8811 16.4062 44.5312 16.7561 44.5312 17.1875C44.5312 17.6189 44.8811 17.9688 45.3125 17.9688H49.2188C49.6502 17.9688 50 17.6189 50 17.1875C50 16.7561 49.6502 16.4062 49.2188 16.4062Z" fill="#010F1C"/>
<path d="M46.3646 28.6202L42.9816 26.6671C42.608 26.4513 42.1302 26.5793 41.9143 26.953C41.6986 27.3267 41.8267 27.8045 42.2004 28.0202L45.5834 29.9734C45.9553 30.1882 46.4339 30.0627 46.6507 29.6874C46.8664 29.3138 46.7384 28.836 46.3646 28.6202Z" fill="#010F1C"/>
<path d="M42.5917 7.81263C42.8893 7.81263 42.748 7.8427 46.3646 5.75472C46.7382 5.53899 46.8663 5.06116 46.6506 4.68753C46.4349 4.31399 45.9572 4.18557 45.5833 4.40159L42.2003 6.35472C41.5098 6.75335 41.7949 7.81263 42.5917 7.81263Z" fill="#010F1C"/>
</g>
<defs>
<clipPath id="clip0_1172_229">
<rect width="50" height="50" fill="white"/>
</clipPath>
</defs>
</svg>
