<svg width="50" height="50" viewBox="0 0 50 50" fill="none" xmlns="http://www.w3.org/2000/svg">
<g clip-path="url(#clip0_949_417)">
<path d="M47.7437 34.0151C47.7401 33.9792 47.7348 33.9429 47.7269 33.9076L45.0944 21.6436C47.676 19.3771 49.3086 16.0544 49.3086 12.3571C49.3086 5.54346 43.7651 0 36.9515 0C30.1378 0 24.5943 5.54346 24.5943 12.3571C24.5943 12.7492 24.6136 13.1369 24.6494 13.5198H5.87988C5.41953 13.5198 5.02168 13.8413 4.9251 14.2913L0.713184 33.9075C0.698633 33.9744 0.691406 34.044 0.691406 34.1126V41.0706C0.691406 41.6099 1.12871 42.0472 1.66797 42.0472H23.2447V48.0469H12.1701C11.6309 48.0469 11.1936 48.4842 11.1936 49.0234C11.1936 49.5627 11.6309 50 12.1701 50H36.2697C36.809 50 37.2463 49.5627 37.2463 49.0234C37.2463 48.4842 36.809 48.0469 36.2697 48.0469H25.1979V42.0471H46.772C47.3112 42.0471 47.7485 41.6098 47.7485 41.0705V34.1125C47.7485 34.0802 47.7468 34.0473 47.7437 34.0151ZM45.5636 33.1359H32.7533L32.3241 28.5494H44.5791L45.5636 33.1359ZM36.9515 13.9046C38.6084 13.9046 39.9564 12.5565 39.9564 10.8996V7.99531C41.3652 8.96582 42.2458 10.5842 42.2458 12.3571C42.2458 14.5107 40.9591 16.4328 38.9679 17.2541C38.6022 17.405 38.3636 17.7614 38.3636 18.1569V22.665C37.9017 22.728 37.4304 22.7612 36.9515 22.7612C36.4726 22.7612 36.0013 22.728 35.5394 22.665V18.1569C35.5394 17.7612 35.3006 17.4047 34.9348 17.254C32.9421 16.4332 31.6544 14.511 31.6544 12.3571C31.6544 10.5842 32.5351 8.96582 33.9438 7.99531V10.8996C33.9438 12.5565 35.293 13.9046 36.9515 13.9046ZM36.9515 24.7144C39.3001 24.7144 41.4977 24.0556 43.3694 22.9133L44.16 26.5963H32.1414L31.8626 23.6168C33.4152 24.3214 35.1383 24.7144 36.9515 24.7144ZM36.9515 1.95312C42.6883 1.95312 47.3555 6.62031 47.3555 12.3571C47.3555 16.9168 44.407 20.8004 40.3167 22.2024V18.7779C42.6953 17.5341 44.1989 15.0809 44.1989 12.3571C44.1989 9.25479 42.2282 6.49814 39.2952 5.49746C38.9967 5.39561 38.6679 5.44404 38.4116 5.62744C38.1554 5.81074 38.0032 6.10654 38.0032 6.42168V10.8996C38.0032 11.4795 37.5313 11.9515 36.9514 11.9515C36.3699 11.9515 35.8968 11.4796 35.8968 10.8996V6.42168C35.8968 6.10654 35.7447 5.81074 35.4884 5.62744C35.2321 5.44414 34.9034 5.3957 34.6048 5.49746C31.6718 6.49814 29.7011 9.25488 29.7011 12.3571C29.7011 15.0813 31.2058 17.5349 33.586 18.7782V22.2024C29.4957 20.8005 26.5473 16.9168 26.5473 12.3571C26.5475 6.62031 31.2146 1.95312 36.9515 1.95312ZM19.3 15.4729H24.9925C25.4352 17.1707 26.2311 18.7271 27.2961 20.0595H18.8711L19.3 15.4729ZM18.6885 22.0126H29.249C29.4252 22.1534 29.6053 22.2897 29.7891 22.421L30.1798 26.5964H18.2598L18.6885 22.0126ZM18.0771 28.5495H30.3626L30.7918 33.136H17.6482L18.0771 28.5495ZM6.66904 15.4729H17.3384L16.9095 20.0595H5.68428L6.66904 15.4729ZM5.26484 22.0126H16.7268L16.2981 26.5964H4.28066L5.26484 22.0126ZM3.86133 28.5495H16.1155L15.6866 33.136H2.87646L3.86133 28.5495ZM45.7954 40.0939H2.64453V35.0891H16.5752C16.5759 35.0891 16.5766 35.0892 16.5772 35.0892C16.5779 35.0892 16.5786 35.0891 16.5793 35.0891H31.8607C31.8614 35.0891 31.8621 35.0892 31.8628 35.0892C31.8635 35.0892 31.8642 35.0891 31.8648 35.0891H45.7955V40.0939H45.7954Z" fill="#010F1C"/>
</g>
<defs>
<clipPath id="clip0_949_417">
<rect width="50" height="50" fill="white"/>
</clipPath>
</defs>
</svg>
