<svg width="50" height="50" viewBox="0 0 50 50" fill="none" xmlns="http://www.w3.org/2000/svg">
<g clip-path="url(#clip0_1172_239)">
<path d="M19.4129 7.78712C20.3944 7.78712 21.317 7.40505 22.0111 6.71104C23.1758 5.54627 23.6962 3.86309 23.4762 1.9713C23.3585 0.958794 22.5709 0.169065 21.5607 0.0507917C20.3391 -0.0919963 18.5766 -0.00263163 17.1183 1.23587C16.3009 1.93008 15.8072 2.93751 15.7639 3.99963C15.6773 6.12221 17.3775 7.78693 19.4129 7.78712ZM18.0666 2.35249C18.9908 1.56755 20.2003 1.36665 21.3904 1.50582C21.7174 1.54411 21.9827 1.81103 22.021 2.14046C22.1392 3.15755 22.0537 4.59647 20.9752 5.675C20.3009 6.34938 19.2938 6.50487 18.4583 6.10336L19.931 4.63114C20.2172 4.34508 20.2172 3.88126 19.9312 3.59519C19.6453 3.30913 19.1814 3.30893 18.8954 3.595L17.4246 5.06527C17.0094 4.17006 17.2544 3.04221 18.0666 2.35249Z" fill="#010F1C"/>
<path d="M11.1218 9.97135C12.5581 8.53556 12.5582 6.2112 11.1222 4.77512C9.95753 3.61045 8.27445 3.09077 6.38256 3.31003C5.37005 3.42772 4.58023 4.21549 4.46195 5.22566C4.31907 6.44736 4.40863 8.20985 5.64703 9.668C7.04083 11.3091 9.56677 11.526 11.1218 9.97135ZM5.91708 5.39599C5.95537 5.0688 6.22229 4.80364 6.55172 4.76535C7.86454 4.6126 9.15169 4.8765 10.0864 5.81116C10.7586 6.48321 10.9173 7.49024 10.5147 8.32802L9.0424 6.85522C8.75633 6.56915 8.29252 6.56905 8.00655 6.85512C7.72039 7.14108 7.72039 7.6049 8.00636 7.89096L9.47652 9.36162C8.57282 9.78051 7.44722 9.52443 6.76375 8.71976C5.8662 7.66282 5.80789 6.32889 5.91708 5.39599Z" fill="#010F1C"/>
<path d="M30.8612 12.4963C31.8426 12.4963 32.7653 12.1142 33.4594 11.4202C34.624 10.2555 35.1444 8.57227 34.9245 6.68048C34.8068 5.66797 34.0191 4.87824 33.0089 4.75997C31.7873 4.61728 30.0248 4.70664 28.5666 5.94505C27.7491 6.63926 27.2554 7.64669 27.2122 8.70871C27.1255 10.8314 28.8255 12.4961 30.8612 12.4963ZM29.5148 7.06167C30.439 6.27673 31.6485 6.07583 32.8386 6.215C33.1657 6.25329 33.431 6.52021 33.4692 6.84964C33.5874 7.86673 33.502 9.30565 32.4234 10.3842C31.7513 11.0563 30.7443 11.2153 29.9065 10.8125L31.3793 9.34012C31.6654 9.05416 31.6654 8.59034 31.3795 8.30428C31.0935 8.01821 30.6297 8.01821 30.3436 8.30408L28.8729 9.77435C28.453 8.86928 28.7117 7.74377 29.5148 7.06167Z" fill="#010F1C"/>
<path d="M40.7265 7.36715C42.3737 7.36715 43.9318 6.5448 45.1139 5.05168C45.7467 4.25248 45.7482 3.13703 45.1175 2.3391C44.3546 1.37416 43.0451 0.191321 41.1384 0.0358369C40.0691 -0.0511836 39.0081 0.311842 38.2265 1.03232C36.6642 2.47212 36.6893 4.85146 38.1285 6.29087C38.8224 6.98488 39.7451 7.36715 40.7265 7.36715ZM41.0193 1.49604C42.4012 1.60865 43.3857 2.5108 43.9682 3.24759C44.1724 3.50601 44.1712 3.88222 43.9653 4.14231C43.3297 4.94522 42.2519 5.90225 40.7265 5.90225C39.7757 5.90225 38.9516 5.30248 38.644 4.42534L40.7264 4.42574C41.131 4.42574 41.459 4.09797 41.459 3.69334C41.459 3.2888 41.1312 2.96084 40.7266 2.96074L38.6471 2.96035C38.9925 2.01739 39.9764 1.41039 41.0193 1.49604Z" fill="#010F1C"/>
<path d="M47.0604 44.1224H46.3221V27.1112C47.5893 26.7849 48.5284 25.6326 48.5284 24.2648C48.5284 22.6444 47.21 21.3261 45.5896 21.3261H41.3196C40.9151 21.3261 40.5871 21.6539 40.5871 22.0586C40.5871 22.4632 40.9151 22.7911 41.3196 22.7911H45.5896C46.4023 22.7911 47.0634 23.4523 47.0634 24.2648C47.0634 25.0774 46.4022 25.7386 45.5896 25.7386H24.9996C24.187 25.7386 23.5258 25.0774 23.5258 24.2648C23.5258 23.4523 24.187 22.7911 24.9996 22.7911H37.9013C38.3058 22.7911 38.6338 22.4632 38.6338 22.0586C38.6338 21.6539 38.3058 21.3261 37.9013 21.3261H24.9996C23.3791 21.3261 22.0608 22.6444 22.0608 24.2648C22.0608 25.6325 22.9999 26.7849 24.2671 27.1112V28.68H21.6212L19.7688 18.3053C21.0762 18.0078 22.0553 16.8366 22.0553 15.4404C22.0553 13.82 20.737 12.5018 19.1167 12.5018H7.35075C5.73046 12.5018 4.41217 13.82 4.41217 15.4404C4.41217 16.8366 5.39127 18.0078 6.69873 18.3053L4.84629 28.6801H4.40924C2.78895 28.6801 1.47066 29.9983 1.47066 31.6187C1.47066 32.9864 2.40981 34.1388 3.67713 34.465V38.0036C3.67713 38.4083 4.00509 38.7361 4.40963 38.7361C4.81416 38.7361 5.14212 38.4083 5.14212 38.0036V34.5573H31.6204V44.1225H5.14212V41.4221C5.14212 41.0174 4.81416 40.6896 4.40963 40.6896C4.00509 40.6896 3.67713 41.0174 3.67713 41.4221V44.1225H2.93878C1.3183 44.1225 0 45.4408 0 47.0613C0 48.6818 1.3184 50.0001 2.93878 50.0001H27.3338C27.7384 50.0001 28.0663 49.6722 28.0663 49.2676C28.0663 48.8629 27.7384 48.5351 27.3338 48.5351H2.93878C2.12609 48.5351 1.46499 47.8739 1.46499 47.0613C1.46499 46.2487 2.12619 45.5875 2.93878 45.5875H47.0604C47.8731 45.5875 48.5342 46.2487 48.5342 47.0613C48.5342 47.8739 47.873 48.5351 47.0604 48.5351H30.7521C30.3476 48.5351 30.0196 48.8629 30.0196 49.2676C30.0196 49.6722 30.3476 50.0001 30.7521 50.0001H47.0604C48.6809 50.0001 49.9992 48.6818 49.9992 47.0613C49.9992 45.4408 48.6809 44.1224 47.0604 44.1224ZM18.2938 18.3792L18.8201 21.3262H7.64746L8.17368 18.3792H18.2938ZM7.38591 22.7912H19.0815L19.3452 24.2679H7.12221L7.38591 22.7912ZM5.87716 15.4405C5.87716 14.628 6.53826 13.9669 7.35075 13.9669H19.1167C19.9293 13.9669 20.5903 14.628 20.5903 15.4405C20.5903 16.2531 19.9292 16.9142 19.1167 16.9142H7.35075C6.53816 16.9142 5.87716 16.2532 5.87716 15.4405ZM6.86066 25.7329H19.6068L20.133 28.6801H6.33443L6.86066 25.7329ZM2.93565 31.6187C2.93565 30.8062 3.59675 30.1451 4.40924 30.1451H32.3533C33.1659 30.1451 33.8269 30.8062 33.8269 31.6187C33.8269 32.4312 33.1658 33.0923 32.3533 33.0923H4.40924C3.59675 33.0923 2.93565 32.4312 2.93565 31.6187ZM33.0854 34.4649C34.3527 34.1387 35.2919 32.9863 35.2919 31.6186C35.2919 29.9982 33.9736 28.68 32.3533 28.68H25.7321V27.2036H44.8571V44.1223H33.0854V34.4649Z" fill="#010F1C"/>
<path d="M12.7072 38.0107V36.8387C12.7072 36.4341 12.3792 36.1062 11.9747 36.1062C11.5702 36.1062 11.2422 36.4341 11.2422 36.8387V38.0107C11.2422 38.4153 11.5702 38.7432 11.9747 38.7432C12.3792 38.7432 12.7072 38.4153 12.7072 38.0107Z" fill="#010F1C"/>
<path d="M20.6228 38.4848C20.8886 38.1798 20.8568 37.7171 20.5518 37.4513C20.2468 37.1855 19.7841 37.2173 19.5183 37.5223C18.9164 38.213 17.8466 38.213 17.2447 37.5223C16.9789 37.2174 16.5162 37.1856 16.2112 37.4513C15.9062 37.7171 15.8745 38.1798 16.1402 38.4848C17.3259 39.8451 19.4373 39.8451 20.6228 38.4848Z" fill="#010F1C"/>
<path d="M24.3878 37.978C24.3878 37.633 24.6685 37.3524 25.0135 37.3524C25.3585 37.3524 25.6391 37.633 25.6391 37.978C25.6391 38.3826 25.9671 38.7105 26.3716 38.7105C26.7762 38.7105 27.1041 38.3826 27.1041 37.978C27.1041 36.8252 26.1662 35.8875 25.0135 35.8875C23.8607 35.8875 22.9229 36.8253 22.9229 37.978C22.9229 38.3826 23.2508 38.7105 23.6553 38.7105C24.0599 38.7105 24.3878 38.3826 24.3878 37.978Z" fill="#010F1C"/>
</g>
<defs>
<clipPath id="clip0_1172_239">
<rect width="50" height="50" fill="white"/>
</clipPath>
</defs>
</svg>
